<svg width="372" height="326" viewBox="0 0 372 326" fill="none" xmlns="http://www.w3.org/2000/svg">
<path fill-rule="evenodd" clip-rule="evenodd" d="M185.626 4.18491C225.27 11.7658 246.893 49.5093 277.218 76.1476C311.497 106.26 368.33 122.246 371.813 167.74C375.333 213.717 328.365 245.654 292.405 274.519C261.331 299.461 225.16 312.216 185.626 317.188C138.174 323.156 83.2974 337.648 48.1272 305.238C12.5291 272.434 22.9855 216.145 23.4468 167.74C23.9012 120.049 17.1419 66.703 50.723 32.837C84.3722 -1.09773 138.687 -4.79083 185.626 4.18491Z" fill="#FAFAFA"/>
<path d="M210.873 88.4189H58.5029C48.5882 88.4189 40.5508 96.4564 40.5508 106.371V256.801C40.5508 266.716 48.5882 274.753 58.5029 274.753H210.873C220.788 274.753 228.825 266.716 228.825 256.801V106.371C228.825 96.4564 220.788 88.4189 210.873 88.4189Z" fill="#F2F2F2"/>
<path d="M90.4995 92.1113C78.2313 92.1113 66.4656 96.9849 57.7907 105.66C49.1157 114.335 44.2422 126.1 44.2422 138.369V256.802C44.2422 258.674 44.611 260.529 45.3277 262.259C46.0443 263.989 47.0947 265.561 48.4189 266.885C49.7431 268.209 51.3152 269.26 53.0453 269.976C54.7754 270.693 56.6297 271.062 58.5024 271.062H155.749C174.151 271.062 191.799 263.752 204.811 250.74C217.823 237.728 225.133 220.08 225.133 201.678V106.372C225.133 102.59 223.63 98.9624 220.956 96.2881C218.282 93.6138 214.654 92.1113 210.872 92.1113H90.4995Z" fill="#FDFDFD"/>
<path d="M157.927 207.601H54.5582C53.967 207.601 53.4 207.366 52.982 206.948C52.564 206.53 52.3291 205.963 52.3291 205.372C52.3291 204.781 52.564 204.214 52.982 203.795C53.4 203.377 53.967 203.143 54.5582 203.143H157.927C158.518 203.143 159.085 203.377 159.503 203.795C159.921 204.214 160.156 204.781 160.156 205.372C160.156 205.963 159.921 206.53 159.503 206.948C159.085 207.366 158.518 207.601 157.927 207.601Z" fill="#F2F2F2"/>
<path d="M157.928 144.018H2.23253C1.93947 144.018 1.64918 143.961 1.37828 143.849C1.10738 143.737 0.86119 143.573 0.653785 143.366C0.44638 143.159 0.281846 142.913 0.169579 142.643C0.0573119 142.372 -0.000488281 142.082 -0.000488281 141.789C-0.000488281 141.496 0.0573119 141.205 0.169579 140.935C0.281846 140.664 0.44638 140.418 0.653785 140.211C0.86119 140.004 1.10738 139.84 1.37828 139.728C1.64918 139.616 1.93947 139.559 2.23253 139.56H157.928C158.518 139.561 159.084 139.796 159.502 140.214C159.919 140.632 160.153 141.198 160.153 141.789C160.153 142.379 159.919 142.946 159.502 143.364C159.084 143.782 158.518 144.017 157.928 144.018Z" fill="#F2F2F2"/>
<path d="M157.933 159.936H2.2309C1.63991 159.937 1.07348 160.172 0.655946 160.59C0.238413 161.009 0.00390625 161.575 0.00390625 162.166C0.00390625 162.757 0.238413 163.324 0.655946 163.743C1.07348 164.161 1.63991 164.396 2.2309 164.397H157.933C158.524 164.396 159.09 164.161 159.508 163.743C159.925 163.324 160.16 162.757 160.16 162.166C160.16 161.575 159.925 161.009 159.508 160.59C159.09 160.172 158.524 159.937 157.933 159.936Z" fill="#F2F2F2"/>
<path d="M157.928 184.777H2.23305C1.64185 184.777 1.07485 184.542 0.656807 184.124C0.238761 183.706 0.00390625 183.139 0.00390625 182.548C0.00390625 181.956 0.238761 181.389 0.656807 180.971C1.07485 180.553 1.64185 180.318 2.23305 180.318H157.928C158.52 180.318 159.087 180.553 159.505 180.971C159.923 181.389 160.158 181.956 160.158 182.548C160.158 183.139 159.923 183.706 159.505 184.124C159.087 184.542 158.52 184.777 157.928 184.777Z" fill="#F2F2F2"/>
<path d="M313.759 123.403H161.389C151.474 123.403 143.437 131.441 143.437 141.355V219.961C143.437 229.876 151.474 237.913 161.389 237.913H313.759C323.674 237.913 331.711 229.876 331.711 219.961V141.355C331.711 131.441 323.674 123.403 313.759 123.403Z" fill="white"/>
<path d="M313.761 238.585H161.39C156.453 238.579 151.719 236.615 148.228 233.124C144.737 229.633 142.773 224.899 142.767 219.961V141.356C142.773 136.418 144.737 131.685 148.228 128.193C151.719 124.702 156.453 122.738 161.39 122.732H313.761C318.698 122.738 323.432 124.702 326.923 128.193C330.414 131.685 332.378 136.418 332.384 141.356V219.961C332.378 224.899 330.414 229.633 326.923 233.124C323.432 236.615 318.698 238.579 313.761 238.585ZM161.39 124.075C156.807 124.075 152.412 125.896 149.171 129.136C145.93 132.377 144.11 136.773 144.11 141.356V170.736C144.11 188.375 151.116 205.291 163.589 217.763C176.061 230.236 192.977 237.242 210.616 237.242H313.761C318.344 237.242 322.739 235.422 325.98 232.181C329.221 228.94 331.041 224.545 331.041 219.962V141.356C331.041 139.086 330.594 136.839 329.726 134.743C328.857 132.646 327.585 130.741 325.98 129.136C324.375 127.532 322.47 126.259 320.374 125.39C318.277 124.522 316.03 124.075 313.76 124.075L161.39 124.075Z" fill="#101623"/>
<path d="M201.661 206.838H166.085C164.787 206.838 163.735 207.89 163.735 209.187C163.735 210.485 164.787 211.537 166.085 211.537H201.661C202.959 211.537 204.011 210.485 204.011 209.187C204.011 207.89 202.959 206.838 201.661 206.838Z" fill="#6677FF"/>
<path d="M309.063 200.461H284.227C282.929 200.461 281.877 201.513 281.877 202.81V215.564C281.877 216.862 282.929 217.914 284.227 217.914H309.063C310.361 217.914 311.413 216.862 311.413 215.564V202.81C311.413 201.513 310.361 200.461 309.063 200.461Z" fill="#6677FF"/>
<path d="M175.818 167.569C182.491 167.569 187.901 162.159 187.901 155.486C187.901 148.813 182.491 143.403 175.818 143.403C169.145 143.403 163.735 148.813 163.735 155.486C163.735 162.159 169.145 167.569 175.818 167.569Z" fill="#6677FF"/>
<path d="M192.032 237.034L160.565 236.363C156.65 236.357 152.898 234.799 150.131 232.031C147.363 229.262 145.807 225.509 145.802 221.595L144.46 188.695C148.324 215.518 163.172 232.532 192.032 237.034Z" fill="#6677FF"/>
<path d="M127.164 298.87C163.099 298.87 192.231 269.738 192.231 233.803C192.231 197.867 163.099 168.735 127.164 168.735C91.2282 168.735 62.0967 197.867 62.0967 233.803C62.0967 269.738 91.2282 298.87 127.164 298.87Z" fill="#6677FF"/>
<path d="M127.078 256.505C132.212 256.505 136.373 252.343 136.373 247.209C136.373 242.076 132.212 237.914 127.078 237.914C121.944 237.914 117.783 242.076 117.783 247.209C117.783 252.343 121.944 256.505 127.078 256.505Z" fill="#101623"/>
<path d="M127.074 251.499C129.444 251.499 131.364 249.578 131.364 247.209C131.364 244.84 129.444 242.919 127.074 242.919C124.705 242.919 122.784 244.84 122.784 247.209C122.784 249.578 124.705 251.499 127.074 251.499Z" fill="#6677FF"/>
<path d="M107.966 259.356H138.438C140.019 259.356 141.586 259.045 143.047 258.44C144.508 257.834 145.836 256.947 146.954 255.829C148.073 254.71 148.96 253.383 149.565 251.921C150.17 250.46 150.482 248.894 150.482 247.312V234.14C150.479 232.679 150.21 231.231 149.687 229.867C151.174 230.987 152.38 232.436 153.211 234.101C154.042 235.766 154.474 237.602 154.474 239.463V252.635C154.474 254.217 154.162 255.783 153.557 257.244C152.952 258.706 152.065 260.033 150.946 261.152C149.828 262.27 148.5 263.157 147.039 263.763C145.578 264.368 144.012 264.679 142.43 264.679H111.958C109.516 264.678 107.132 263.934 105.123 262.546C103.114 261.158 101.574 259.192 100.708 256.908C102.794 258.497 105.344 259.357 107.966 259.356Z" fill="#101623"/>
<path d="M127.69 198.522C121.326 198.522 115.732 201.404 112.564 205.728C115.95 203.264 120.038 201.952 124.226 201.986C134.081 201.986 142.099 208.89 142.099 217.375V224.429H145.563V213.911C145.563 205.426 137.545 198.522 127.69 198.522Z" fill="#101623"/>
<path d="M147.945 228.039H106.382V215.81C106.382 205.944 115.705 197.917 127.164 197.917C138.623 197.917 147.945 205.944 147.945 215.81V228.039ZM107.725 226.696H146.603V215.81C146.603 206.684 137.882 199.26 127.164 199.26C116.445 199.26 107.725 206.684 107.725 215.81V226.696Z" fill="white"/>
<path d="M137.81 223.37H116.521C115.563 223.368 114.645 222.988 113.968 222.31C113.291 221.633 112.91 220.715 112.909 219.757V214.89C112.909 208.105 119.304 202.585 127.165 202.585C135.026 202.585 141.422 208.105 141.422 214.89V219.757C141.421 220.715 141.04 221.633 140.363 222.31C139.686 222.988 138.767 223.368 137.81 223.37ZM127.165 203.927C120.044 203.927 114.251 208.845 114.251 214.89V219.757C114.252 220.359 114.491 220.936 114.917 221.361C115.342 221.787 115.919 222.026 116.521 222.027H137.81C138.412 222.026 138.988 221.787 139.414 221.361C139.84 220.936 140.079 220.359 140.079 219.757V214.89C140.079 208.845 134.286 203.927 127.165 203.927Z" fill="white"/>
</svg>
