<svg width="276" height="211" viewBox="0 0 276 211" fill="none" xmlns="http://www.w3.org/2000/svg">
<path fill-rule="evenodd" clip-rule="evenodd" d="M125.43 1.83091C158.086 -4.76451 191.909 7.05153 218.011 27.7538C247.504 51.1459 280.59 83.1321 274.844 120.335C269.232 156.671 224.731 169.17 193.238 188.143C172.059 200.903 150.149 209.818 125.43 210.352C100.014 210.901 75.2482 206.005 54.6291 191.135C29.599 173.085 -1.5644 151.118 0.607539 120.335C2.76036 89.8224 41.778 79.9273 63.9614 58.8667C85.0343 38.8605 96.9476 7.58334 125.43 1.83091Z" fill="#FAFAFA"/>
<path d="M181.753 149.629C183.05 149.71 183.767 148.098 182.785 147.159L182.687 146.771C182.7 146.74 182.713 146.709 182.726 146.678C183.5 144.833 185.63 143.959 187.48 144.723C193.328 147.141 187.153 152.697 187.618 156.456C187.78 157.754 192.863 157.825 192.576 159.099C195.278 153.189 196.7 146.737 196.697 140.249C196.697 138.619 196.607 136.988 196.424 135.362C196.273 134.032 196.066 132.71 195.798 131.401C194.348 124.321 191.211 117.578 186.687 111.947C184.513 110.759 185.839 108.902 184.744 106.676C184.35 105.873 180.84 105.855 180.693 104.975C180.85 104.995 183.12 102.639 182.37 101.473C181.877 100.707 182.03 99.7304 182.664 99.075C182.726 99.0107 182.785 98.9429 182.838 98.87C184.71 96.3307 187.29 96.773 188.638 100.222C191.515 101.673 191.544 104.082 189.78 106.398C188.657 107.872 188.503 109.866 187.518 111.444C187.62 111.573 187.725 111.699 187.827 111.829C189.687 114.213 191.296 116.775 192.652 119.467C192.268 116.475 192.832 112.869 193.796 110.545C194.9 107.878 196.979 105.634 198.799 103.327C200.973 100.572 205.398 101.822 205.782 105.311C205.786 105.344 205.79 105.378 205.793 105.411C205.524 105.563 205.26 105.725 205.003 105.895C203.534 106.867 204.043 109.144 205.784 109.412L205.823 109.418C205.726 110.387 202.287 113.44 202.044 114.385C204.37 123.369 202.629 124.555 195.472 124.705L195.097 125.24C195.775 127.19 196.321 129.187 196.731 131.21C197.117 133.087 197.385 134.985 197.536 136.891C197.723 139.295 197.708 141.712 197.506 144.113L197.518 144.028C198.032 141.384 199.467 138.914 201.55 137.202C204.655 134.65 209.041 133.709 212.39 131.657C214.003 130.67 216.069 131.945 215.789 133.814L215.775 133.904C215.276 134.107 214.79 134.342 214.319 134.606C214.05 134.758 213.786 134.92 213.528 135.09C212.059 136.063 212.569 138.34 214.31 138.606L214.349 138.612C214.378 138.616 214.402 138.621 214.43 138.625C213.575 140.657 205.43 143.523 203.938 145.149C202.487 152.996 203.2 152.763 196.522 150.48H196.518C195.79 153.66 194.724 156.766 193.354 159.727L182.04 159.731C182 159.605 181.963 159.476 181.927 159.35C182.973 159.414 184.027 159.353 185.057 159.162C184.217 158.132 183.378 157.095 182.538 156.065C182.518 156.045 182.501 156.024 182.485 156.004L182.472 155.988L181.307 152.154C181.399 151.303 181.55 150.46 181.753 149.629Z" fill="#BFBFBF"/>
<path d="M146.63 160.299L46.5138 160.334C41.4843 160.335 36.9789 157.736 34.4626 153.382C33.2043 151.204 32.575 148.815 32.5742 146.426C32.5734 144.036 33.2013 141.647 34.4578 139.468L84.4839 48.3989C86.9975 44.042 91.501 41.4401 96.5306 41.4384C101.56 41.4366 106.065 44.0354 108.582 48.3906L158.678 139.437C159.932 141.609 160.56 143.995 160.56 146.383C160.56 148.771 159.933 151.16 158.676 153.339C156.163 157.695 151.659 160.297 146.63 160.299ZM33.8327 146.424C33.8325 148.599 44.88 143.912 46.0245 145.893C48.3138 149.855 41.9375 159.08 46.5134 159.078C46.5134 159.078 155.302 156.675 157.588 152.711C158.731 150.729 159.303 148.555 159.302 146.382C159.301 144.208 158.728 142.035 157.584 140.054L107.488 49.0074C105.205 45.0569 101.107 42.6925 96.531 42.6941C91.9573 42.6956 33.8329 144.249 33.8327 146.424Z" fill="#3F3D56"/>
<path d="M147.741 159.043C146.486 161.555 205.261 160.783 205.955 160.783C205.955 160.783 222.475 160.418 222.823 159.816C222.996 159.515 223.083 159.185 223.083 158.855C223.083 158.525 222.996 158.195 222.822 157.894L215.215 144.068C214.868 143.468 214.246 143.109 213.551 143.109C213.522 143.109 213.479 143.135 213.424 143.184C203.276 152.253 190.77 158.248 177.161 158.45C162.691 158.665 147.82 158.883 147.741 159.043Z" fill="#3F3D56"/>
<path d="M22.4746 160.708C22.4747 161.031 22.6942 161.291 22.9675 161.291L239.22 161.203C239.493 161.202 239.712 160.942 239.712 160.619C239.712 160.295 239.492 160.035 239.219 160.035L22.9672 160.124C22.6939 160.124 22.4745 160.384 22.4746 160.708Z" fill="#CCCCCC"/>
<path d="M125.743 140.215C151.057 140.215 171.577 119.695 171.577 94.3817C171.577 69.0686 151.057 48.5483 125.743 48.5483C100.43 48.5483 79.9102 69.0686 79.9102 94.3817C79.9102 119.695 100.43 140.215 125.743 140.215Z" fill="#6C63FF"/>
<path d="M125.753 122.478C128.077 122.478 129.961 120.594 129.961 118.27C129.961 115.946 128.077 114.062 125.753 114.062C123.429 114.062 121.545 115.946 121.545 118.27C121.545 120.594 123.429 122.478 125.753 122.478Z" fill="white"/>
<path d="M125.735 66.2853C125.348 68.8539 126.041 69.3914 126.045 80.4654C126.049 91.5394 128.346 106.387 125.749 106.388C123.151 106.389 122.201 75.7467 113.181 73.0347C102.576 69.8462 126.986 57.97 125.735 66.2853Z" fill="white"/>
<path d="M74.9023 140.771L70.7614 149.52C75.7675 145.931 83.5867 142.836 89.809 141.179C84.0114 138.378 76.9172 133.863 72.679 129.393L75.0607 138.638C47.1375 132.95 27.0855 111.529 27.077 86.9908L26.0684 86.6438C26.0772 112.275 45.8519 134.964 74.9023 140.771Z" fill="#3F3D56"/>
</svg>
