<svg width="150" height="150" viewBox="0 0 150 150" fill="none" xmlns="http://www.w3.org/2000/svg">
<circle cx="74.9568" cy="74.6527" r="74.6526" transform="rotate(180 74.9568 74.6527)" fill="#CFF5B1"/>
<circle cx="74.9579" cy="74.6527" r="55.9895" transform="rotate(180 74.9579 74.6527)" fill="#00CC87"/>
<path d="M51.2062 91.0001V61.2001H62.2862C64.3129 61.2001 66.0996 61.5735 67.6462 62.3201C69.2196 63.0401 70.4462 64.1068 71.3262 65.5201C72.2062 66.9068 72.6462 68.6001 72.6462 70.6001C72.6462 72.6535 72.1529 74.4001 71.1662 75.8401C70.2062 77.2801 68.8996 78.3468 67.2462 79.0401L74.0862 91.0001H67.9262L60.6062 77.9201L64.1262 80.0001H56.6462V91.0001H51.2062ZM56.6462 75.2001H62.3662C63.3529 75.2001 64.2062 75.0135 64.9262 74.6401C65.6462 74.2401 66.2062 73.6935 66.6062 73.0001C67.0062 72.3068 67.2062 71.5068 67.2062 70.6001C67.2062 69.6668 67.0062 68.8668 66.6062 68.2001C66.2062 67.5068 65.6462 66.9735 64.9262 66.6001C64.2062 66.2001 63.3529 66.0001 62.3662 66.0001H56.6462V75.2001ZM88.2915 91.4801C86.3982 91.4801 84.6382 91.1335 83.0115 90.4401C81.4115 89.7468 80.0249 88.7868 78.8515 87.5601C77.7049 86.3068 76.8649 84.8535 76.3315 83.2001L80.8515 81.2401C81.5715 82.9468 82.6115 84.2935 83.9715 85.2801C85.3315 86.2401 86.8649 86.7201 88.5715 86.7201C89.5315 86.7201 90.3582 86.5735 91.0515 86.2801C91.7715 85.9601 92.3182 85.5335 92.6915 85.0001C93.0915 84.4668 93.2915 83.8268 93.2915 83.0801C93.2915 82.2001 93.0249 81.4801 92.4915 80.9201C91.9849 80.3335 91.2115 79.8801 90.1715 79.5601L84.4515 77.7201C82.1315 77.0001 80.3849 75.9201 79.2115 74.4801C78.0382 73.0401 77.4515 71.3468 77.4515 69.4001C77.4515 67.6935 77.8649 66.1868 78.6915 64.8801C79.5449 63.5735 80.7182 62.5601 82.2115 61.8401C83.7315 61.0935 85.4649 60.7201 87.4115 60.7201C89.1982 60.7201 90.8382 61.0401 92.3315 61.6801C93.8249 62.2935 95.1049 63.1601 96.1715 64.2801C97.2649 65.3735 98.0782 66.6668 98.6115 68.1601L94.1315 70.1601C93.5449 68.6668 92.6649 67.5201 91.4915 66.7201C90.3182 65.8935 88.9582 65.4801 87.4115 65.4801C86.5049 65.4801 85.7049 65.6401 85.0115 65.9601C84.3182 66.2535 83.7715 66.6801 83.3715 67.2401C82.9982 67.7735 82.8115 68.4135 82.8115 69.1601C82.8115 69.9868 83.0782 70.7201 83.6115 71.3601C84.1449 71.9735 84.9582 72.4535 86.0515 72.8001L91.5315 74.5201C93.9049 75.2935 95.6782 76.3601 96.8515 77.7201C98.0515 79.0801 98.6515 80.7601 98.6515 82.7601C98.6515 84.4668 98.2115 85.9735 97.3315 87.2801C96.4515 88.5868 95.2382 89.6135 93.6915 90.3601C92.1449 91.1068 90.3449 91.4801 88.2915 91.4801ZM86.3715 95.0001V57.2001H89.7715V95.0001H86.3715Z" fill="white"/>
</svg>
