<svg width="128" height="128" viewBox="0 0 128 128" fill="none" xmlns="http://www.w3.org/2000/svg">
<rect x="37" y="37" width="71" height="58" fill="white"/>
<path d="M103.739 10.2608L77.4177 2.06585C68.6861 -0.688615 59.3148 -0.688615 50.5831 2.06585L24.2622 10.2608C19.033 11.8859 14.4619 15.1357 11.2164 19.5358C7.9709 23.9358 6.22113 29.2555 6.22266 34.7177V71.8513C6.24736 78.8044 7.8825 85.6579 11.0005 91.877C14.1185 98.0961 18.6351 103.513 24.198 107.704L41.3387 120.509C47.8875 125.373 55.835 128 64.0004 128C72.1658 128 80.1133 125.373 86.6621 120.509L103.867 107.704C109.436 103.523 113.954 98.1071 117.063 91.8845C120.171 85.6619 121.786 78.8034 121.778 71.8513V34.7177C121.78 29.2555 120.03 23.9358 116.784 19.5358C113.539 15.1357 108.968 11.8859 103.739 10.2608ZM87.8177 49.3791L62.1387 74.9884C61.5388 75.5818 60.8274 76.0512 60.0453 76.3699C59.2631 76.6885 58.4256 76.85 57.5807 76.8451C56.7358 76.85 55.8983 76.6885 55.1161 76.3699C54.3339 76.0512 53.6225 75.5818 53.0226 74.9884L40.1831 62.1838C38.9743 60.9782 38.2951 59.343 38.2951 57.6381C38.2951 55.9331 38.9743 54.298 40.1831 53.0924C41.392 51.8869 43.0316 51.2096 44.7412 51.2096C46.4508 51.2096 48.0903 51.8869 49.2992 53.0924L57.5807 61.4155L78.7017 40.2878C79.9105 39.0822 81.5501 38.4049 83.2597 38.4049C84.9693 38.4049 86.6088 39.0822 87.8177 40.2878C89.0266 41.4934 89.7057 43.1285 89.7057 44.8334C89.7057 46.5384 89.0266 48.1735 87.8177 49.3791Z" fill="#CFF5B1"/>
<path d="M97.0133 19.203L75.1467 12.3739C67.8927 10.0785 60.1073 10.0785 52.8533 12.3739L30.9867 19.203C26.6425 20.5572 22.8449 23.2655 20.1486 26.9322C17.4524 30.5989 15.9987 35.0319 16 39.5838V70.5284C16.0205 76.3227 17.3789 82.0339 19.9693 87.2165C22.5597 92.3991 26.3119 96.913 30.9333 100.406L45.1733 111.077C50.6139 115.13 57.2165 117.319 64 117.319C70.7836 117.319 77.3861 115.13 82.8267 111.077L97.12 100.406C101.747 96.9216 105.5 92.4083 108.082 87.2228C110.665 82.0373 112.006 76.3218 112 70.5284V39.5838C112.001 35.0319 110.548 30.5989 107.851 26.9322C105.155 23.2655 101.358 20.5572 97.0133 19.203ZM83.7867 51.8016L62.4533 73.1427C61.955 73.6372 61.364 74.0284 60.7142 74.2939C60.0644 74.5594 59.3686 74.694 58.6667 74.6899C57.9648 74.694 57.269 74.5594 56.6192 74.2939C55.9694 74.0284 55.3783 73.6372 54.88 73.1427L44.2133 62.4721C43.209 61.4675 42.6448 60.1049 42.6448 58.6841C42.6448 57.2633 43.209 55.9007 44.2133 54.896C45.2176 53.8914 46.5797 53.327 48 53.327C49.4203 53.327 50.7824 53.8914 51.7867 54.896L58.6667 61.8319L76.2133 44.2255C77.2176 43.2208 78.5797 42.6564 80 42.6564C81.4203 42.6564 82.7824 43.2208 83.7867 44.2255C84.791 45.2301 85.3552 46.5927 85.3552 48.0135C85.3552 49.4343 84.791 50.7969 83.7867 51.8016Z" fill="#00CC87"/>
</svg>
