<svg width="320" height="321" viewBox="0 0 320 321" fill="none" xmlns="http://www.w3.org/2000/svg">
<path d="M302.735 220.29C302.763 222.035 302.446 223.769 301.804 225.392C301.162 227.015 300.206 228.496 298.991 229.749C297.777 231.003 296.327 232.005 294.725 232.698C293.123 233.392 291.4 233.762 289.655 233.79H37.7999C36.0546 233.762 34.3318 233.392 32.7298 232.698C31.1278 232.005 29.6781 231.003 28.4635 229.749C27.2489 228.496 26.2931 227.015 25.6508 225.392C25.0085 223.769 24.6922 222.035 24.7199 220.29V63.0898C24.6922 61.3445 25.0085 59.6108 25.6508 57.9877C26.2931 56.3647 27.2489 54.884 28.4635 53.6304C29.6781 52.3768 31.1278 51.3747 32.7298 50.6814C34.3318 49.9881 36.0546 49.6172 37.7999 49.5898H302.735V220.29Z" fill="#E7E6FF"/>
<path d="M37.7999 233.785H289.655C291.4 233.757 293.123 233.386 294.725 232.693C296.327 232 297.777 230.998 298.991 229.744C300.206 228.49 301.162 227.01 301.804 225.387C302.446 223.764 302.763 222.03 302.735 220.285V206.85H24.7199V220.29C24.6651 223.814 26.0123 227.215 28.4652 229.746C30.9182 232.277 34.2759 233.729 37.7999 233.785Z" fill="#7E76FF"/>
<path d="M163.725 230.745C169.772 230.745 174.675 225.688 174.675 219.45C174.675 213.212 169.772 208.155 163.725 208.155C157.677 208.155 152.775 213.212 152.775 219.45C152.775 225.688 157.677 230.745 163.725 230.745Z" fill="#FF9D00"/>
<path d="M123.765 233.785H203.695V260.72H123.765V233.785Z" fill="#7E76FF"/>
<path d="M123.765 233.785H203.695V247.25H123.765V233.785Z" fill="#5F55F7"/>
<path d="M112.81 260.715H214.645C220.69 260.715 226.487 263.115 230.764 267.388C235.04 271.66 237.445 277.456 237.45 283.5H90C90 277.452 92.4027 271.651 96.6794 267.375C100.956 263.098 106.757 260.695 112.805 260.695L112.81 260.715Z" fill="#7E76FF"/>
<path d="M251.715 172.65L246.375 176.405L241.03 172.65C223.567 160.378 209.314 144.084 199.475 125.144C189.636 106.204 184.5 85.1735 184.5 63.83V48.225L246.375 27.5L308.24 48.225V63.83C308.241 85.173 303.105 106.203 293.267 125.143C283.429 144.083 269.177 160.378 251.715 172.65Z" fill="#00CC87"/>
<path d="M299.315 45.2305V59.0005C299.319 80.3421 294.188 101.372 284.354 120.313C274.52 139.254 260.273 155.55 242.815 167.825L238.585 170.795C239.415 171.405 240.21 172.05 241.055 172.645L246.4 176.4L251.74 172.645C269.197 160.371 283.443 144.076 293.277 125.137C303.111 106.198 308.243 85.1705 308.24 63.8305V48.2255L299.315 45.2305Z" fill="#00AA70"/>
<path d="M242.128 118C239.933 118 237.828 117.139 236.277 115.608L218.923 98.4873C218.155 97.7294 217.545 96.8297 217.13 95.8395C216.714 94.8493 216.5 93.788 216.5 92.7162C216.5 91.6444 216.714 90.5831 217.13 89.5929C217.545 88.6027 218.155 87.703 218.923 86.9452C219.691 86.1868 220.603 85.5852 221.606 85.1748C222.61 84.7643 223.686 84.5531 224.773 84.5531C225.859 84.5531 226.935 84.7643 227.939 85.1748C228.942 85.5852 229.854 86.1868 230.622 86.9452L242.132 98.3004L267.378 73.3921C268.146 72.6338 269.058 72.0322 270.062 71.6217C271.065 71.2113 272.141 71 273.228 71C274.314 71 275.39 71.2113 276.394 71.6217C277.398 72.0322 278.309 72.6338 279.077 73.3921C279.845 74.1496 280.455 75.049 280.87 76.0389C281.286 77.0288 281.5 78.0898 281.5 79.1613C281.5 80.2328 281.286 81.2938 280.87 82.2837C280.455 83.2736 279.845 84.173 279.077 84.9305L247.975 115.601C247.208 116.36 246.297 116.963 245.294 117.375C244.29 117.786 243.215 117.999 242.128 118Z" fill="white"/>
<path d="M93.5752 90.8604H144.935V100.86H93.5752V90.8604Z" fill="#A8A3FF"/>
<path d="M75.8701 125.495H144.935V135.495H75.8701V125.495Z" fill="#A8A3FF"/>
<path d="M93.5752 160.13H144.935V170.13H93.5752V160.13Z" fill="#A8A3FF"/>
</svg>
