<svg width="357" height="92" viewBox="0 0 357 92" fill="none" xmlns="http://www.w3.org/2000/svg">
<path d="M37.7683 15.7249C27.7515 15.7249 18.145 19.704 11.0621 26.7869C3.97914 33.8698 0 43.4763 0 53.4931C0 63.5099 3.97914 73.1164 11.0621 80.1993C18.145 87.2822 27.7515 91.2614 37.7683 91.2614H319.232C329.249 91.2614 338.855 87.2822 345.938 80.1993C353.021 73.1164 357 63.5099 357 53.4931C357 43.4763 353.021 33.8698 345.938 26.7869C338.855 19.704 329.249 15.7249 319.232 15.7249H37.7683Z" fill="#E5E5E5"/>
<path d="M37.7673 23.3684C29.7777 23.3684 22.1154 26.5423 16.4659 32.1917C10.8164 37.8412 7.64258 45.5035 7.64258 53.4931C7.64258 61.4827 10.8164 69.145 16.4659 74.7945C22.1154 80.444 29.7777 83.6178 37.7673 83.6178H319.231C327.22 83.6178 334.883 80.444 340.532 74.7945C346.182 69.145 349.355 61.4827 349.355 53.4931C349.355 45.5035 346.182 37.8412 340.532 32.1917C334.883 26.5423 327.22 23.3684 319.231 23.3684H37.7673Z" fill="white"/>
<path d="M331.226 67.9529C327.91 69.3375 324.45 67.8201 322.999 64.345C321.526 60.8168 322.902 57.2352 326.271 55.8284C329.64 54.4215 333.038 55.9426 334.535 59.5277C336.01 63.0591 334.649 66.5235 331.226 67.9529ZM324.874 48.8838L322.237 49.9847C321.579 50.2565 320.842 50.2711 320.173 50.0258C319.504 49.7804 318.952 49.2929 318.625 48.6597L318.495 48.4047C315.658 43.2884 315.333 37.0704 317.534 29.933C319.574 23.5304 320.421 19.0274 318.717 14.948C316.748 10.2314 312.542 8.75397 307.179 10.8943C305.099 11.7628 304.437 11.749 302.8 13.3728C302.444 13.7303 302.02 14.0124 301.552 14.2024C301.085 14.3924 300.584 14.4862 300.08 14.4784C299.592 14.4727 299.11 14.3688 298.664 14.1729C298.217 13.9771 297.814 13.6932 297.479 13.3384C296.835 12.6546 296.474 11.7515 296.469 10.8117C296.464 9.87187 296.816 8.96525 297.454 8.27493C300.205 5.39481 303.524 3.11628 307.2 1.5831C318.723 -3.22845 324.523 3.87511 327.178 10.2321C329.774 16.45 328.314 22.2192 325.967 29.6908C324.001 35.8993 324.115 40.4997 326.349 45.0739C326.51 45.4197 326.6 45.7946 326.613 46.1759C326.626 46.5573 326.561 46.9373 326.423 47.2932C326.286 47.649 326.077 47.9733 325.811 48.2466C325.545 48.52 325.226 48.7367 324.874 48.8838Z" fill="#FF1720"/>
<path d="M71.8164 59.0922C77.5646 59.0922 82.2245 54.4323 82.2245 48.684C82.2245 42.9358 77.5646 38.2759 71.8164 38.2759C66.0681 38.2759 61.4082 42.9358 61.4082 48.684C61.4082 54.4323 66.0681 59.0922 71.8164 59.0922Z" fill="#6C63FF"/>
<path d="M143.285 59.0922C149.033 59.0922 153.693 54.4323 153.693 48.684C153.693 42.9358 149.033 38.2759 143.285 38.2759C137.537 38.2759 132.877 42.9358 132.877 48.684C132.877 54.4323 137.537 59.0922 143.285 59.0922Z" fill="#6C63FF"/>
<path d="M214.756 59.0922C220.504 59.0922 225.164 54.4323 225.164 48.684C225.164 42.9358 220.504 38.2759 214.756 38.2759C209.008 38.2759 204.348 42.9358 204.348 48.684C204.348 54.4323 209.008 59.0922 214.756 59.0922Z" fill="#FF1720"/>
<path d="M286.225 59.0922C291.973 59.0922 296.633 54.4323 296.633 48.684C296.633 42.9358 291.973 38.2759 286.225 38.2759C280.476 38.2759 275.816 42.9358 275.816 48.684C275.816 54.4323 280.476 59.0922 286.225 59.0922Z" fill="#FF1720"/>
</svg>
