<svg width="280" height="280" viewBox="0 0 280 280" fill="none" xmlns="http://www.w3.org/2000/svg">
<g clip-path="url(#clip0_440_131)">
<rect width="280" height="280" rx="140" fill="#F5F6FF"/>
<path d="M55.5845 73.2822H225.106V431.064H55.5845V73.2822Z" fill="#DCE0FE"/>
<path d="M209.385 263.891H224.728V415.014H209.385V263.891Z" fill="#CBD1FD"/>
<path d="M237.724 59.9891V81.2998C237.724 84.3453 235.261 86.8077 232.216 86.8077H48.3135C45.3601 86.8077 42.959 84.4143 42.959 81.4609V59.8203C42.959 56.8669 45.3601 54.4658 48.3135 54.4658H232.216C235.261 54.4658 237.724 56.9436 237.724 59.9891Z" fill="#6677FF"/>
<path d="M237.724 59.9891V81.2998C237.724 84.3453 235.261 86.8077 232.216 86.8077H215.216C218.262 86.8077 220.732 84.3453 220.732 81.2998V59.9891C220.732 56.9436 218.262 54.4658 215.216 54.4658H232.216C235.261 54.4658 237.724 56.9436 237.724 59.9891Z" fill="#0316B0"/>
<path d="M55.5845 86.8076H225.106V263.587H55.5845V86.8076Z" fill="#BEC5FE"/>
<path d="M209.29 86.8076H225.105V263.587H209.29V86.8076Z" fill="#A7B0FC"/>
<path d="M193.498 225.911C193.498 228.979 192.263 231.764 190.245 233.774C188.358 235.661 185.804 236.873 182.965 237.018C182.865 237.026 182.773 237.026 182.681 237.026H82.0885C76.1356 237.026 71.3027 232.201 71.3027 226.248V225.581C71.3027 219.62 76.1356 214.795 82.0885 214.795H182.39C188.527 214.795 193.498 219.774 193.498 225.911Z" fill="#6677FF"/>
<path d="M193.498 225.911C193.498 228.979 192.263 231.764 190.246 233.774C188.359 235.661 185.804 236.873 182.966 237.018C182.866 237.026 166.572 237.034 166.572 237.034C166.672 237.034 166.764 237.034 166.864 237.026C169.817 236.957 172.479 235.722 174.428 233.774C176.445 231.764 177.688 228.979 177.688 225.911C177.688 219.774 172.709 214.795 166.572 214.795H182.39C188.527 214.795 193.498 219.774 193.498 225.911Z" fill="#0316B0"/>
<path d="M171.102 191.004H80.4469C79.7834 191.004 79.2456 190.466 79.2456 189.802V112.12C79.2456 111.457 79.7834 110.919 80.4469 110.919H171.102C171.766 110.919 172.304 111.457 172.304 112.12V189.801C172.305 190.465 171.767 191.004 171.102 191.004Z" fill="#EAF6FF"/>
<path d="M172.301 112.159V189.768C172.301 190.449 171.747 191.002 171.068 191.002H155.687C156.375 191.002 156.928 190.448 156.928 189.768V112.159C156.928 111.471 156.374 110.918 155.687 110.918H171.068C171.747 110.917 172.301 111.471 172.301 112.159Z" fill="#D8ECFE"/>
<path d="M201.444 137.382H193.823C190.645 137.382 188.069 134.806 188.069 131.628C188.069 128.451 190.645 125.875 193.823 125.875H201.444C204.622 125.875 207.198 128.451 207.198 131.628C207.198 134.806 204.622 137.382 201.444 137.382Z" fill="#6677FF"/>
<path d="M201.444 156.715H193.823C190.645 156.715 188.069 154.139 188.069 150.961C188.069 147.784 190.645 145.208 193.823 145.208H201.444C204.622 145.208 207.198 147.784 207.198 150.961C207.198 154.139 204.622 156.715 201.444 156.715Z" fill="#6677FF"/>
<path d="M201.444 176.046H193.823C190.645 176.046 188.069 173.47 188.069 170.292C188.069 167.115 190.645 164.539 193.823 164.539H201.444C204.622 164.539 207.198 167.115 207.198 170.292C207.198 173.47 204.622 176.046 201.444 176.046Z" fill="#6677FF"/>
<path d="M168.979 167.491V164.364C168.979 162.983 167.86 161.863 166.478 161.863H135.214C133.832 161.863 132.712 162.983 132.712 164.364V167.491H168.979Z" fill="#6E7CEC"/>
<path d="M153.577 169.992H132.712V184.374C132.712 185.755 133.832 186.875 135.214 186.875H151.643C149.974 184.829 148.97 182.219 148.97 179.372C148.97 175.554 150.778 172.166 153.577 169.992ZM135.214 178.746H143.342V180.622H135.214V178.746ZM146.469 184.374H135.214V182.498H146.469V184.374Z" fill="#6E7CEC"/>
<path d="M160.851 174.369C159.817 174.369 158.975 175.211 158.975 176.245V177.496H162.727V176.245C162.727 175.211 161.885 174.369 160.851 174.369Z" fill="#00CC87"/>
<path d="M160.851 169.992C155.671 169.992 151.471 174.192 151.471 179.372C151.471 184.552 155.671 188.751 160.851 188.751C166.031 188.751 170.23 184.552 170.23 179.372C170.23 174.192 166.031 169.992 160.851 169.992ZM165.853 183.749C165.853 184.439 165.293 184.999 164.602 184.999H157.099C156.409 184.999 155.848 184.439 155.848 183.749V178.746C155.848 178.056 156.409 177.496 157.099 177.496V176.245C157.099 174.176 158.782 172.493 160.851 172.493C162.92 172.493 164.602 174.176 164.602 176.245V177.496C165.293 177.496 165.853 178.056 165.853 178.746V183.749Z" fill="#00CC87"/>
</g>
<defs>
<clipPath id="clip0_440_131">
<rect width="280" height="280" rx="140" fill="white"/>
</clipPath>
</defs>
</svg>
