<svg width="247" height="137" viewBox="0 0 247 137" fill="none" xmlns="http://www.w3.org/2000/svg">
<path d="M180 45.9751L179.872 47.4697L180 45.9751ZM149 73.9751L150.493 73.8306L149 73.9751ZM3.09623 37.8861C2.26951 37.9392 1.55624 37.3121 1.50309 36.4854L0.637021 23.0132C0.583874 22.1865 1.21098 21.4732 2.0377 21.4201C2.86442 21.3669 3.57769 21.994 3.63084 22.8207L4.40068 34.796L16.376 34.0262C17.2027 33.973 17.916 34.6001 17.9691 35.4269C18.0222 36.2536 17.3951 36.9669 16.5684 37.02L3.09623 37.8861ZM243.508 135.821C243.589 135.037 243.337 133.919 242.549 132.411C241.774 130.927 240.56 129.213 238.943 127.294C235.711 123.457 231.02 118.973 225.472 114.095C214.347 104.314 200.115 93.2328 187.684 82.7728C181.499 77.5684 175.782 72.5345 171.205 67.9533C166.66 63.4046 163.114 59.1821 161.408 55.6015C160.554 53.8078 160.079 52.008 160.326 50.3262C160.587 48.5563 161.612 47.1452 163.271 46.1539C164.871 45.198 167.062 44.6232 169.796 44.3576C172.551 44.0901 175.975 44.126 180.128 44.4805L179.872 47.4697C175.825 47.1242 172.597 47.0997 170.086 47.3436C167.556 47.5893 165.867 48.0977 164.81 48.7291C163.813 49.325 163.406 50.0053 163.294 50.7629C163.17 51.6086 163.384 52.7726 164.117 54.3112C165.586 57.3952 168.809 61.3112 173.327 65.8329C177.812 70.3219 183.451 75.2901 189.616 80.4773C201.885 90.8007 216.328 102.061 227.453 111.842C233.03 116.746 237.857 121.348 241.238 125.361C242.927 127.367 244.293 129.268 245.209 131.023C246.112 132.753 246.661 134.496 246.492 136.129L243.508 135.821ZM180.128 44.4805C190.492 45.3653 198.03 47.4606 203.204 50.43C208.415 53.4213 211.273 57.3359 212.07 61.7557C212.857 66.1193 211.586 70.7061 209.108 75.0072C206.624 79.3184 202.862 83.4619 198.44 87.0189C189.641 94.0964 177.893 99.1083 167.777 98.2352C162.67 97.7943 157.946 95.8449 154.311 91.8724C150.691 87.9155 148.278 82.0899 147.507 74.1196L150.493 73.8306C151.222 81.3603 153.465 86.5034 156.525 89.8473C159.57 93.1756 163.548 94.859 168.035 95.2463C177.107 96.0294 188.109 91.4788 196.56 84.6813C200.763 81.3008 204.251 77.4287 206.509 73.5094C208.773 69.58 209.737 65.7216 209.118 62.2882C208.508 58.9112 206.319 55.6773 201.71 53.0319C197.063 50.3646 190.008 48.3349 179.872 47.4697L180.128 44.4805ZM147.507 74.1196C145.164 49.9093 125.42 22.3232 98.1454 10.0118C84.553 3.87643 69.1369 1.55832 53.1129 5.31763C37.0882 9.07713 20.3356 18.9433 4.12652 37.3796L1.87348 35.3987C18.4144 16.585 35.6868 6.32443 52.4277 2.39693C69.1694 -1.53078 85.2595 0.903839 99.3796 7.27745C127.53 19.9841 148.036 48.4409 150.493 73.8306L147.507 74.1196Z" fill="#6677FF"/>
</svg>
