<svg width="317" height="98" viewBox="0 0 317 98" fill="none" xmlns="http://www.w3.org/2000/svg">
<mask id="path-1-inside-1_348_97" fill="white">
<path d="M0 49C0 21.938 21.938 0 49 0H268C295.062 0 317 21.938 317 49C317 76.062 295.062 98 268 98H49C21.9381 98 0 76.062 0 49Z"/>
</mask>
<path d="M0 49C0 21.938 21.938 0 49 0H268C295.062 0 317 21.938 317 49C317 76.062 295.062 98 268 98H49C21.9381 98 0 76.062 0 49Z" fill="white"/>
<path d="M0 0H317H0ZM317 49C317 77.1665 294.167 100 266 100H51C22.8335 100 0 77.1665 0 49C0 74.9574 21.938 96 49 96H268C295.062 96 317 74.9574 317 49ZM0 98V0V98ZM317 0V98V0Z" fill="#00CC87" mask="url(#path-1-inside-1_348_97)"/>
<path d="M61.3167 35.0009L54.4833 32.8668C52.2165 32.1495 49.7835 32.1495 47.5167 32.8668L40.6833 35.0009C39.3258 35.4241 38.139 36.2705 37.2964 37.4163C36.4539 38.5621 35.9996 39.9475 36 41.3699V51.0401C36.0064 52.8508 36.4309 54.6356 37.2404 56.2552C38.0499 57.8747 39.2225 59.2853 40.6667 60.3769L45.1167 63.7114C46.8168 64.978 48.8801 65.6622 51 65.6622C53.1199 65.6622 55.1832 64.978 56.8833 63.7114L61.35 60.3769C62.7959 59.288 63.9687 57.8776 64.7758 56.2571C65.5828 54.6366 66.0019 52.8506 66 51.0401V41.3699C66.0004 39.9475 65.5461 38.5621 64.7036 37.4163C63.861 36.2705 62.6742 35.4241 61.3167 35.0009ZM57.1833 45.188L50.5167 51.8571C50.3609 52.0116 50.1762 52.1339 49.9732 52.2168C49.7701 52.2998 49.5527 52.3419 49.3333 52.3406C49.114 52.3419 48.8966 52.2998 48.6935 52.2168C48.4904 52.1339 48.3057 52.0116 48.15 51.8571L44.8167 48.5225C44.5028 48.2086 44.3265 47.7828 44.3265 47.3388C44.3265 46.8948 44.5028 46.469 44.8167 46.155C45.1305 45.8411 45.5562 45.6647 46 45.6647C46.4438 45.6647 46.8695 45.8411 47.1833 46.155L49.3333 48.3225L54.8167 42.8205C55.1305 42.5065 55.5562 42.3301 56 42.3301C56.4438 42.3301 56.8695 42.5065 57.1833 42.8205C57.4972 43.1344 57.6735 43.5602 57.6735 44.0042C57.6735 44.4482 57.4972 44.874 57.1833 45.188Z" fill="#00CC87"/>
<path d="M97.2146 56.5L102.229 41.9634H105.663L110.678 56.5H107.79L106.756 53.378H101.137L100.083 56.5H97.2146ZM101.898 51.0366H105.995L103.576 43.7976H104.317L101.898 51.0366ZM112.081 56.5V45.8854H114.481V48.3439L114.208 47.9341C114.403 47.1667 114.793 46.5943 115.379 46.2171C115.964 45.8398 116.654 45.6512 117.447 45.6512C118.319 45.6512 119.086 45.8789 119.75 46.3341C120.413 46.7894 120.842 47.3878 121.037 48.1293L120.315 48.1878C120.641 47.3423 121.128 46.7114 121.779 46.2951C122.429 45.8659 123.177 45.6512 124.023 45.6512C124.777 45.6512 125.447 45.8203 126.032 46.1585C126.631 46.4967 127.099 46.9715 127.437 47.5829C127.776 48.1813 127.945 48.8772 127.945 49.6707V56.5H125.389V50.2756C125.389 49.8073 125.304 49.4041 125.135 49.0659C124.966 48.7276 124.732 48.4675 124.432 48.2854C124.133 48.0902 123.769 47.9927 123.34 47.9927C122.937 47.9927 122.579 48.0902 122.267 48.2854C121.954 48.4675 121.714 48.7276 121.545 49.0659C121.376 49.4041 121.291 49.8073 121.291 50.2756V56.5H118.735V50.2756C118.735 49.8073 118.65 49.4041 118.481 49.0659C118.312 48.7276 118.071 48.4675 117.759 48.2854C117.46 48.0902 117.102 47.9927 116.686 47.9927C116.283 47.9927 115.925 48.0902 115.613 48.2854C115.301 48.4675 115.06 48.7276 114.891 49.0659C114.722 49.4041 114.637 49.8073 114.637 50.2756V56.5H112.081ZM135.902 56.7341C135.135 56.7341 134.426 56.5846 133.775 56.2854C133.138 55.9732 132.631 55.5309 132.254 54.9585L132.507 54.4512V56.5H130.107V41.7293H132.663V47.9927L132.273 47.4659C132.637 46.8935 133.132 46.4512 133.756 46.139C134.38 45.8138 135.102 45.6512 135.922 45.6512C136.923 45.6512 137.827 45.8984 138.634 46.3927C139.44 46.887 140.078 47.5504 140.546 48.3829C141.027 49.2154 141.268 50.152 141.268 51.1927C141.268 52.2203 141.034 53.1569 140.566 54.0024C140.097 54.848 139.46 55.5179 138.654 56.0122C137.847 56.4935 136.93 56.7341 135.902 56.7341ZM135.61 54.3927C136.195 54.3927 136.715 54.2561 137.171 53.9829C137.626 53.7098 137.977 53.3325 138.224 52.8512C138.484 52.3699 138.614 51.8171 138.614 51.1927C138.614 50.5683 138.484 50.022 138.224 49.5537C137.977 49.0724 137.626 48.6951 137.171 48.422C136.715 48.1358 136.195 47.9927 135.61 47.9927C135.05 47.9927 134.543 48.1293 134.088 48.4024C133.645 48.6756 133.294 49.0593 133.034 49.5537C132.787 50.035 132.663 50.5813 132.663 51.1927C132.663 51.8171 132.787 52.3699 133.034 52.8512C133.294 53.3325 133.645 53.7098 134.088 53.9829C134.543 54.2561 135.05 54.3927 135.61 54.3927ZM143.217 56.5V45.8854H145.773V56.5H143.217ZM143.217 44.6951V41.9634H145.773V44.6951H143.217ZM153.167 56.7341C152.075 56.7341 151.118 56.487 150.299 55.9927C149.479 55.4984 148.842 54.8285 148.387 53.9829C147.931 53.1374 147.704 52.2008 147.704 51.1732C147.704 50.1065 147.931 49.1634 148.387 48.3439C148.855 47.5114 149.486 46.8545 150.279 46.3732C151.086 45.8919 151.983 45.6512 152.972 45.6512C153.805 45.6512 154.533 45.7878 155.157 46.061C155.795 46.3341 156.335 46.7114 156.777 47.1927C157.219 47.674 157.557 48.2268 157.792 48.8512C158.026 49.4626 158.143 50.126 158.143 50.8415C158.143 51.0236 158.13 51.2122 158.104 51.4073C158.091 51.6024 158.058 51.7715 158.006 51.9146H149.811V49.9634H156.562L155.353 50.8805C155.47 50.2821 155.437 49.7488 155.255 49.2805C155.086 48.8122 154.8 48.4415 154.396 48.1683C154.006 47.8951 153.531 47.7585 152.972 47.7585C152.439 47.7585 151.964 47.8951 151.548 48.1683C151.131 48.4285 150.813 48.8187 150.592 49.339C150.383 49.8463 150.305 50.4642 150.357 51.1927C150.305 51.8431 150.39 52.422 150.611 52.9293C150.845 53.4236 151.183 53.8073 151.626 54.0805C152.081 54.3537 152.601 54.4902 153.187 54.4902C153.772 54.4902 154.266 54.3667 154.67 54.1195C155.086 53.8724 155.411 53.5407 155.645 53.1244L157.714 54.139C157.505 54.6463 157.18 55.0951 156.738 55.4854C156.296 55.8756 155.769 56.1813 155.157 56.4024C154.559 56.6236 153.896 56.7341 153.167 56.7341ZM160.08 56.5V45.8854H162.48V47.9732L162.285 47.6024C162.533 46.965 162.936 46.4837 163.495 46.1585C164.067 45.8203 164.731 45.6512 165.485 45.6512C166.266 45.6512 166.955 45.8203 167.554 46.1585C168.165 46.4967 168.64 46.9715 168.978 47.5829C169.316 48.1813 169.485 48.8772 169.485 49.6707V56.5H166.929V50.2756C166.929 49.8073 166.838 49.4041 166.656 49.0659C166.474 48.7276 166.22 48.4675 165.895 48.2854C165.583 48.0902 165.212 47.9927 164.783 47.9927C164.367 47.9927 163.996 48.0902 163.671 48.2854C163.346 48.4675 163.092 48.7276 162.91 49.0659C162.728 49.4041 162.637 49.8073 162.637 50.2756V56.5H160.08ZM176.486 56.6171C175.289 56.6171 174.359 56.2919 173.696 55.6415C173.045 54.978 172.72 54.048 172.72 52.8512V48.1683H170.886V45.8854H171.081C171.601 45.8854 172.005 45.7488 172.291 45.4756C172.577 45.2024 172.72 44.8057 172.72 44.2854V43.4659H175.276V45.8854H177.715V48.1683H175.276V52.7146C175.276 53.0659 175.335 53.365 175.452 53.6122C175.582 53.8593 175.777 54.048 176.037 54.178C176.31 54.3081 176.655 54.3732 177.071 54.3732C177.162 54.3732 177.266 54.3667 177.383 54.3537C177.513 54.3407 177.637 54.3276 177.754 54.3146V56.5C177.572 56.526 177.364 56.552 177.13 56.578C176.896 56.6041 176.681 56.6171 176.486 56.6171ZM184.646 56.7341C183.553 56.7341 182.597 56.487 181.778 55.9927C180.958 55.4984 180.321 54.8285 179.865 53.9829C179.41 53.1374 179.182 52.2008 179.182 51.1732C179.182 50.1065 179.41 49.1634 179.865 48.3439C180.334 47.5114 180.965 46.8545 181.758 46.3732C182.565 45.8919 183.462 45.6512 184.451 45.6512C185.283 45.6512 186.012 45.7878 186.636 46.061C187.274 46.3341 187.813 46.7114 188.256 47.1927C188.698 47.674 189.036 48.2268 189.27 48.8512C189.504 49.4626 189.621 50.126 189.621 50.8415C189.621 51.0236 189.608 51.2122 189.582 51.4073C189.569 51.6024 189.537 51.7715 189.485 51.9146H181.29V49.9634H188.041L186.831 50.8805C186.948 50.2821 186.916 49.7488 186.734 49.2805C186.565 48.8122 186.278 48.4415 185.875 48.1683C185.485 47.8951 185.01 47.7585 184.451 47.7585C183.917 47.7585 183.443 47.8951 183.026 48.1683C182.61 48.4285 182.291 48.8187 182.07 49.339C181.862 49.8463 181.784 50.4642 181.836 51.1927C181.784 51.8431 181.869 52.422 182.09 52.9293C182.324 53.4236 182.662 53.8073 183.104 54.0805C183.56 54.3537 184.08 54.4902 184.665 54.4902C185.251 54.4902 185.745 54.3667 186.148 54.1195C186.565 53.8724 186.89 53.5407 187.124 53.1244L189.192 54.139C188.984 54.6463 188.659 55.0951 188.217 55.4854C187.774 55.8756 187.248 56.1813 186.636 56.4024C186.038 56.6236 185.374 56.7341 184.646 56.7341ZM200.432 56.7341C199.508 56.7341 198.65 56.565 197.856 56.2268C197.076 55.8886 196.399 55.4203 195.827 54.822C195.268 54.2106 194.858 53.5016 194.598 52.6951L196.803 51.739C197.154 52.5715 197.661 53.2285 198.325 53.7098C198.988 54.178 199.736 54.4122 200.569 54.4122C201.037 54.4122 201.44 54.3407 201.778 54.1976C202.13 54.0415 202.396 53.8333 202.578 53.5732C202.773 53.313 202.871 53.0008 202.871 52.6366C202.871 52.2073 202.741 51.8561 202.481 51.5829C202.234 51.2967 201.856 51.0756 201.349 50.9195L198.559 50.022C197.427 49.6707 196.575 49.1439 196.003 48.4415C195.43 47.739 195.144 46.913 195.144 45.9634C195.144 45.1309 195.346 44.3959 195.749 43.7585C196.165 43.1211 196.738 42.6268 197.466 42.2756C198.208 41.9114 199.053 41.7293 200.003 41.7293C200.874 41.7293 201.674 41.8854 202.403 42.1976C203.131 42.4967 203.756 42.9195 204.276 43.4659C204.809 43.9992 205.206 44.6301 205.466 45.3585L203.281 46.3341C202.995 45.6057 202.565 45.0463 201.993 44.6561C201.421 44.2528 200.757 44.0512 200.003 44.0512C199.56 44.0512 199.17 44.1293 198.832 44.2854C198.494 44.4285 198.227 44.6366 198.032 44.9098C197.85 45.1699 197.759 45.4821 197.759 45.8463C197.759 46.2496 197.889 46.6073 198.149 46.9195C198.409 47.2187 198.806 47.4528 199.339 47.622L202.013 48.461C203.17 48.8382 204.035 49.3585 204.608 50.022C205.193 50.6854 205.486 51.5049 205.486 52.4805C205.486 53.313 205.271 54.048 204.842 54.6854C204.413 55.3228 203.821 55.8236 203.066 56.1878C202.312 56.552 201.434 56.7341 200.432 56.7341ZM212.695 56.7341C211.602 56.7341 210.646 56.487 209.826 55.9927C209.007 55.4984 208.369 54.8285 207.914 53.9829C207.459 53.1374 207.231 52.2008 207.231 51.1732C207.231 50.1065 207.459 49.1634 207.914 48.3439C208.382 47.5114 209.013 46.8545 209.807 46.3732C210.613 45.8919 211.511 45.6512 212.5 45.6512C213.332 45.6512 214.061 45.7878 214.685 46.061C215.322 46.3341 215.862 46.7114 216.304 47.1927C216.747 47.674 217.085 48.2268 217.319 48.8512C217.553 49.4626 217.67 50.126 217.67 50.8415C217.67 51.0236 217.657 51.2122 217.631 51.4073C217.618 51.6024 217.586 51.7715 217.534 51.9146H209.339V49.9634H216.09L214.88 50.8805C214.997 50.2821 214.965 49.7488 214.782 49.2805C214.613 48.8122 214.327 48.4415 213.924 48.1683C213.534 47.8951 213.059 47.7585 212.5 47.7585C211.966 47.7585 211.491 47.8951 211.075 48.1683C210.659 48.4285 210.34 48.8187 210.119 49.339C209.911 49.8463 209.833 50.4642 209.885 51.1927C209.833 51.8431 209.917 52.422 210.139 52.9293C210.373 53.4236 210.711 53.8073 211.153 54.0805C211.608 54.3537 212.129 54.4902 212.714 54.4902C213.3 54.4902 213.794 54.3667 214.197 54.1195C214.613 53.8724 214.939 53.5407 215.173 53.1244L217.241 54.139C217.033 54.6463 216.708 55.0951 216.265 55.4854C215.823 55.8756 215.296 56.1813 214.685 56.4024C214.087 56.6236 213.423 56.7341 212.695 56.7341ZM224.759 60.7927C223.966 60.7927 223.231 60.6626 222.554 60.4024C221.878 60.1423 221.292 59.778 220.798 59.3098C220.317 58.8545 219.966 58.3146 219.745 57.6902L222.125 56.7927C222.281 57.287 222.587 57.6837 223.042 57.9829C223.51 58.2951 224.083 58.4512 224.759 58.4512C225.279 58.4512 225.735 58.3537 226.125 58.1585C226.528 57.9634 226.84 57.6772 227.062 57.3C227.283 56.9358 227.393 56.4935 227.393 55.9732V53.5537L227.881 54.139C227.517 54.7764 227.029 55.2577 226.418 55.5829C225.806 55.9081 225.11 56.0707 224.33 56.0707C223.341 56.0707 222.457 55.8431 221.676 55.3878C220.896 54.9325 220.284 54.3081 219.842 53.5146C219.4 52.7211 219.179 51.8301 219.179 50.8415C219.179 49.8398 219.4 48.9488 219.842 48.1683C220.284 47.3878 220.889 46.7764 221.657 46.3341C222.424 45.8789 223.296 45.6512 224.271 45.6512C225.065 45.6512 225.761 45.8203 226.359 46.1585C226.971 46.4837 227.478 46.9585 227.881 47.5829L227.53 48.2268V45.8854H229.949V55.9732C229.949 56.8967 229.722 57.7228 229.266 58.4512C228.824 59.1797 228.213 59.752 227.432 60.1683C226.665 60.5846 225.774 60.7927 224.759 60.7927ZM224.642 53.7098C225.188 53.7098 225.663 53.5927 226.066 53.3585C226.483 53.1114 226.808 52.7732 227.042 52.3439C227.276 51.9146 227.393 51.4203 227.393 50.861C227.393 50.3146 227.27 49.8268 227.023 49.3976C226.788 48.9553 226.463 48.6106 226.047 48.3634C225.644 48.1163 225.175 47.9927 224.642 47.9927C224.109 47.9927 223.627 48.1163 223.198 48.3634C222.769 48.6106 222.431 48.9553 222.184 49.3976C221.949 49.8268 221.832 50.3146 221.832 50.861C221.832 51.4073 221.949 51.8951 222.184 52.3244C222.431 52.7537 222.762 53.0919 223.179 53.339C223.608 53.5862 224.096 53.7098 224.642 53.7098ZM236.122 56.7341C235.302 56.7341 234.587 56.552 233.976 56.1878C233.377 55.8236 232.915 55.3163 232.59 54.6659C232.278 54.0154 232.122 53.2545 232.122 52.3829V45.8854H234.678V52.1683C234.678 52.6106 234.763 53.0008 234.932 53.339C235.114 53.6642 235.367 53.9244 235.693 54.1195C236.031 54.3016 236.408 54.3927 236.824 54.3927C237.241 54.3927 237.611 54.3016 237.937 54.1195C238.262 53.9244 238.515 53.6577 238.698 53.3195C238.88 52.9813 238.971 52.578 238.971 52.1098V45.8854H241.527V56.5H239.107V54.4122L239.322 54.7829C239.075 55.4333 238.665 55.9211 238.093 56.2463C237.533 56.5715 236.876 56.7341 236.122 56.7341ZM243.903 56.5V45.8854H246.303V48.2463L246.108 47.8951C246.355 47.1016 246.739 46.5488 247.259 46.2366C247.792 45.9244 248.43 45.7683 249.171 45.7683H249.796V48.0317H248.879C248.15 48.0317 247.565 48.2593 247.122 48.7146C246.68 49.1569 246.459 49.7813 246.459 50.5878V56.5H243.903ZM256.391 56.7341C255.351 56.7341 254.401 56.4935 253.542 56.0122C252.697 55.5309 252.02 54.874 251.513 54.0415C251.019 53.2089 250.772 52.2593 250.772 51.1927C250.772 50.126 251.019 49.1764 251.513 48.3439C252.02 47.5114 252.697 46.8545 253.542 46.3732C254.388 45.8919 255.337 45.6512 256.391 45.6512C257.432 45.6512 258.375 45.8919 259.22 46.3732C260.066 46.8545 260.736 47.5114 261.23 48.3439C261.737 49.1634 261.991 50.113 261.991 51.1927C261.991 52.2593 261.737 53.2089 261.23 54.0415C260.723 54.874 260.046 55.5309 259.201 56.0122C258.355 56.4935 257.419 56.7341 256.391 56.7341ZM256.391 54.3927C256.964 54.3927 257.464 54.2561 257.894 53.9829C258.336 53.7098 258.681 53.3325 258.928 52.8512C259.188 52.3569 259.318 51.8041 259.318 51.1927C259.318 50.5683 259.188 50.022 258.928 49.5537C258.681 49.0724 258.336 48.6951 257.894 48.422C257.464 48.1358 256.964 47.9927 256.391 47.9927C255.806 47.9927 255.292 48.1358 254.85 48.422C254.407 48.6951 254.056 49.0724 253.796 49.5537C253.549 50.022 253.425 50.5683 253.425 51.1927C253.425 51.8041 253.549 52.3569 253.796 52.8512C254.056 53.3325 254.407 53.7098 254.85 53.9829C255.292 54.2561 255.806 54.3927 256.391 54.3927Z" fill="#101623"/>
</svg>
