<svg width="546" height="463" viewBox="0 0 546 463" fill="none" xmlns="http://www.w3.org/2000/svg">
<path opacity="0.3" d="M366.009 257.405L366.228 255.921L366.009 257.405ZM531.244 124.713L529.745 124.766L531.244 124.713ZM0.790654 452.993C0.193639 452.418 0.175294 451.469 0.749663 450.872L10.1095 441.143C10.6839 440.546 11.6335 440.528 12.2305 441.102C12.8274 441.677 12.8458 442.626 12.2714 443.223L3.95155 451.871L12.5991 460.191C13.1961 460.765 13.2144 461.714 12.6401 462.311C12.0657 462.908 11.1161 462.927 10.5192 462.352L0.790654 452.993ZM827.739 25.6536C819.64 74.8107 786.781 145.322 714.588 197.445C642.36 249.593 530.904 283.237 365.791 258.888L366.228 255.921C530.728 280.179 641.357 246.617 712.832 195.013C784.341 143.383 816.8 73.5934 824.778 25.1659L827.739 25.6536ZM365.791 258.888C314.175 251.277 277.715 238.51 253.531 222.518C229.31 206.501 217.359 187.21 214.951 166.669C212.55 146.185 219.671 124.728 233.037 104.376C246.409 84.0136 266.102 64.6435 289.071 48.2684C334.962 15.5525 394.283 -5.44667 443.006 1.7857C467.417 5.40923 489.2 16.1299 505.215 36.0381C521.216 55.9291 531.343 84.8461 532.743 124.661L529.745 124.766C528.36 85.3907 518.358 57.1633 502.877 37.9185C487.41 18.691 466.356 8.28468 442.565 4.75318C394.884 -2.32452 336.34 18.2543 290.813 50.7112C268.073 66.9225 248.669 86.0376 235.545 106.023C222.414 126.017 215.639 146.769 217.931 166.32C220.216 185.814 231.547 204.383 255.186 220.015C278.862 235.672 314.84 248.343 366.228 255.921L365.791 258.888ZM532.743 124.661C537.232 252.268 449.235 333.613 338.063 383.404C226.876 433.202 92.0774 451.669 1.8596 453.411L1.80169 450.412C91.7692 448.674 226.135 430.246 336.836 380.666C447.553 331.08 534.17 250.566 529.745 124.766L532.743 124.661Z" fill="#6677FF"/>
</svg>
