<svg width="425" height="414" viewBox="0 0 425 414" fill="none" xmlns="http://www.w3.org/2000/svg">
<path fill-rule="evenodd" clip-rule="evenodd" d="M222.466 1.01171C265.387 4.56528 303.954 24.4217 338.594 50.0132C372.983 75.4192 405.744 105.343 418.798 146.058C431.823 186.685 419.894 229.228 409.3 270.556C397.955 314.812 391.945 365.405 355.506 392.964C318.885 420.66 268.37 412.867 222.466 411.857C177.65 410.87 131.802 410.674 93.6153 387.197C53.5213 362.548 21.5533 324.615 7.49922 279.697C-6.46598 235.063 2.38144 187.512 17.2652 143.176C32.0227 99.2159 53.356 55.9612 91.473 29.5535C129.129 3.46546 176.812 -2.76806 222.466 1.01171Z" fill="#FAFAFA"/>
<path d="M83.6324 328.306C83.2028 328.326 82.7776 328.213 82.4143 327.983C82.051 327.753 81.7672 327.417 81.6013 327.02C81.4354 326.623 81.3955 326.185 81.4869 325.765C81.5784 325.345 81.7967 324.963 82.1125 324.671L82.2562 324.1C82.2373 324.054 82.2182 324.008 82.1991 323.962C81.7664 322.94 81.0412 322.069 80.1148 321.457C79.1884 320.846 78.102 320.522 76.992 320.526C75.8821 320.53 74.7981 320.862 73.8762 321.481C72.9544 322.099 72.2357 322.976 71.8106 324.001C70.1115 328.093 67.9483 332.192 67.4156 336.519C67.181 338.432 67.28 340.371 67.7081 342.249C63.7174 333.544 61.6451 324.083 61.6318 314.506C61.631 312.103 61.7645 309.702 62.0317 307.314C62.2526 305.356 62.559 303.412 62.951 301.482C65.0899 291.011 69.6823 281.196 76.3509 272.844C79.5786 271.083 82.1888 268.375 83.8299 265.084C84.4244 263.902 84.8446 262.639 85.0774 261.336C84.7133 261.384 83.7045 255.839 83.9791 255.498C83.4717 254.728 82.5636 254.346 82.0094 253.594C79.2534 249.858 75.4562 250.51 73.474 255.588C69.2394 257.725 69.1984 261.269 71.7967 264.678C73.4498 266.847 73.6769 269.782 75.1273 272.104C74.9781 272.295 74.8229 272.48 74.6737 272.671C71.9459 276.178 69.5685 279.945 67.5754 283.916C68.0601 279.467 67.4816 274.966 65.8876 270.785C64.272 266.887 61.2439 263.605 58.5773 260.236C55.3743 256.189 48.8061 257.955 48.2418 263.085C48.2364 263.135 48.231 263.184 48.2258 263.234C48.6219 263.457 49.0096 263.695 49.389 263.945C49.8656 264.264 50.2349 264.719 50.4485 265.251C50.6621 265.783 50.71 266.367 50.586 266.926C50.4621 267.486 50.1719 267.995 49.7537 268.387C49.3354 268.779 48.8085 269.035 48.2421 269.122L48.1841 269.131C48.3252 270.559 48.5746 271.973 48.9302 273.363C45.5092 286.593 52.8948 291.411 63.4403 291.628C63.6731 291.747 63.9 291.866 64.1328 291.98C62.1304 297.655 60.8743 303.565 60.3963 309.564C60.1256 313.103 60.1416 316.658 60.444 320.194L60.4261 320.069C59.662 316.137 57.5643 312.588 54.4871 310.024C49.9167 306.269 43.4596 304.887 38.5289 301.869C38.0049 301.532 37.3956 301.353 36.7729 301.351C36.1502 301.35 35.5401 301.526 35.0144 301.86C34.4888 302.194 34.0696 302.671 33.8063 303.236C33.5429 303.8 33.4465 304.428 33.5283 305.045C33.5349 305.089 33.5416 305.133 33.5485 305.177C34.2835 305.476 34.9991 305.821 35.6912 306.21C36.0873 306.433 36.475 306.67 36.8544 306.921C37.331 307.239 37.7002 307.694 37.9138 308.226C38.1274 308.758 38.1753 309.342 38.0514 309.902C37.9274 310.461 37.6373 310.97 37.219 311.362C36.8008 311.754 36.2739 312.01 35.7075 312.098L35.6494 312.107C35.6077 312.113 35.5718 312.119 35.5301 312.125C36.786 315.123 38.5486 317.883 40.7409 320.284C42.8799 331.833 52.0671 332.929 61.8944 329.566H61.9004C62.9786 334.251 64.5409 338.812 66.5621 343.174H83.2151C83.2748 342.989 83.3285 342.798 83.3822 342.613C81.8408 342.71 80.2933 342.618 78.7742 342.339C80.0098 340.823 81.2454 339.295 82.4809 337.779C82.5085 337.75 82.5344 337.72 82.5585 337.689C83.1853 336.913 83.818 336.143 84.4447 335.367L84.445 335.366C84.4784 332.988 84.205 330.615 83.6324 328.306Z" fill="#BFBFBF"/>
<path d="M225.656 344.385C94.5067 347.163 91.6309 289.715 91.6309 221.384C91.6309 153.053 151.436 99.5995 225.546 99.5995C299.656 99.5995 358.514 153.033 358.514 221.362C358.514 289.691 299.766 344.385 225.656 344.385Z" fill="white"/>
<path d="M224.91 345.132C93.7606 347.91 90.8848 290.462 90.8848 222.131C90.8848 153.8 151.178 98.2112 225.288 98.2112C299.398 98.2112 359.691 153.802 359.691 222.131C359.691 290.46 299.02 345.132 224.91 345.132ZM225.288 101.621C153.217 101.621 95.7967 155.691 94.583 222.131C93.4541 283.928 164.657 361.043 225.288 342.642C257.803 309.626 349.73 274.066 355.993 222.131C363.957 156.089 297.36 101.621 225.288 101.621Z" fill="#3F3D56"/>
<path d="M18.5 344.01C18.4998 344.108 18.5157 344.205 18.5468 344.296C18.578 344.387 18.6238 344.469 18.6816 344.538C18.7394 344.608 18.808 344.663 18.8836 344.7C18.9591 344.738 19.0401 344.757 19.1218 344.757H392.878C393.043 344.757 393.201 344.678 393.318 344.538C393.435 344.398 393.5 344.208 393.5 344.01C393.5 343.811 393.435 343.621 393.318 343.481C393.201 343.341 393.043 343.263 392.878 343.263H19.1218C19.0401 343.262 18.9591 343.281 18.8836 343.319C18.808 343.356 18.7394 343.411 18.6816 343.481C18.6238 343.55 18.578 343.633 18.5468 343.723C18.5157 343.814 18.4998 343.911 18.5 344.01Z" fill="#CCCCCC"/>
<path d="M317.61 343.522L289.235 343.521V343.162C289.236 340.233 290.399 337.424 292.47 335.353C294.542 333.282 297.351 332.118 300.28 332.118L305.463 328.186L315.134 332.118L317.61 332.119L317.61 343.522Z" fill="#2F2E41"/>
<path d="M303.266 251.396C292.729 241.164 280.619 232.688 267.399 226.289L260.656 233.901L264.951 225.132C247.256 217.051 228.047 212.82 208.595 212.717C189.143 212.614 169.89 216.642 152.111 224.535L155.614 232.145L150.235 225.382C136.347 231.842 123.638 240.58 112.633 251.234C111.502 252.288 110.803 253.725 110.672 255.266C110.616 256.103 110.74 256.942 111.036 257.727C111.332 258.512 111.793 259.225 112.388 259.816C114.084 260.619 116.5 262.461 120.089 267.517C121.19 268.603 122.672 269.216 124.218 269.225C125.764 269.235 127.253 268.64 128.367 267.568C149.686 246.931 178.194 235.393 207.866 235.393C237.537 235.393 266.045 246.931 287.364 267.568C288.478 268.64 289.967 269.235 291.513 269.225C293.059 269.216 294.541 268.603 295.642 267.517C299.254 264.268 300.098 259.675 303.201 259.957C304.294 258.9 304.957 257.476 305.063 255.959C305.109 255.114 304.972 254.269 304.662 253.482C304.352 252.694 303.876 251.983 303.266 251.396Z" fill="#6C63FF"/>
<path d="M273.382 286.297C273.239 285.361 272.876 284.472 272.321 283.705C271.766 282.938 271.035 282.314 270.191 281.886C262.263 277.828 253.954 274.563 245.385 272.138L237.366 282.709L243.293 271.555C221.357 265.67 198.3 265.343 176.206 270.603L179.29 279.106L174.252 271.09C164.304 273.591 154.671 277.213 145.539 281.886C144.698 282.316 143.971 282.939 143.417 283.704C142.862 284.469 142.497 285.355 142.35 286.288C142.202 287.221 142.278 288.175 142.57 289.074C142.861 289.972 143.362 290.789 144.029 291.458C147.496 291.671 149.785 294.892 152.07 299.499C152.946 300.363 154.067 300.935 155.281 301.137C156.494 301.339 157.74 301.161 158.848 300.627C174.162 293.344 190.907 289.565 207.865 289.565C224.823 289.565 241.568 293.344 256.882 300.627C257.99 301.161 259.236 301.34 260.449 301.138C261.662 300.935 262.784 300.363 263.659 299.499C265.033 295.774 267.864 293.571 271.701 291.458C272.372 290.793 272.874 289.979 273.167 289.081C273.459 288.183 273.533 287.229 273.382 286.297Z" fill="#6C63FF"/>
<path d="M229.078 322.702C227.322 322.426 225.555 322.186 223.778 321.98L216.811 333.065L222.002 321.791C213.567 320.929 205.072 320.84 196.621 321.524L201.934 333.065L194.782 321.683C192.052 321.942 189.342 322.282 186.652 322.702C185.731 322.838 184.867 323.232 184.159 323.837C183.452 324.442 182.93 325.235 182.652 326.124C182.357 327.02 182.316 327.981 182.536 328.898C182.755 329.816 183.225 330.655 183.893 331.321C186.77 334.139 189.942 338.052 195.154 342.582C195.662 343.097 196.277 343.496 196.954 343.751C197.632 344.006 198.357 344.11 199.079 344.058C201.968 343.844 204.924 343.735 207.865 343.735C210.806 343.735 213.762 343.844 216.65 344.058C217.372 344.109 218.097 344.004 218.774 343.75C219.452 343.495 220.066 343.097 220.576 342.582C225.958 337.987 228.678 333.774 231.836 331.321C232.505 330.655 232.975 329.816 233.194 328.898C233.413 327.981 233.373 327.02 233.077 326.124C232.8 325.235 232.278 324.442 231.57 323.837C230.863 323.232 229.999 322.838 229.078 322.702Z" fill="#6C63FF"/>
</svg>
