<svg width="611" height="591" viewBox="0 0 611 591" fill="none" xmlns="http://www.w3.org/2000/svg">
<path fill-rule="evenodd" clip-rule="evenodd" d="M365.653 82.7677C413.848 111.359 424.289 170.84 451.328 219.923C481.894 275.406 548.572 323.076 531.671 384.126C514.591 445.824 438.2 465.385 377.633 486.123C325.296 504.043 272.049 503.646 218.079 491.498C153.301 476.918 74.8094 469.97 44.1632 411.066C13.1442 351.446 53.3375 282.872 76.7619 219.88C99.8403 157.818 116.165 84.9698 175.984 56.5791C235.923 28.1308 308.59 48.9162 365.653 82.7677Z" fill="#FAFAFA"/>
<path fill-rule="evenodd" clip-rule="evenodd" d="M277.625 101.185C317.27 108.766 338.893 146.509 369.217 173.148C403.497 203.26 460.33 219.246 463.813 264.74C467.333 310.717 420.364 342.654 384.404 371.519C353.33 396.461 317.16 409.216 277.625 414.188C230.173 420.156 175.297 434.648 140.127 402.238C104.529 369.434 114.985 313.145 115.446 264.74C115.901 217.049 109.141 163.703 142.723 129.837C176.372 95.9023 230.686 92.2092 277.625 101.185Z" fill="#FAFAFA"/>
<path d="M307.412 167H111.297C98.5363 167 88.1914 177.345 88.1914 190.106V383.723C88.1914 396.485 98.5363 406.83 111.297 406.83H307.412C320.174 406.83 330.518 396.485 330.518 383.723V190.106C330.518 177.345 320.174 167 307.412 167Z" fill="#F2F2F2"/>
<path d="M152.481 171.752C136.691 171.752 121.547 178.025 110.382 189.19C99.2161 200.356 92.9434 215.499 92.9434 231.29V383.724C92.9434 386.134 93.4181 388.521 94.3405 390.748C95.2629 392.975 96.6148 394.998 98.3192 396.702C100.024 398.407 102.047 399.759 104.274 400.681C106.501 401.603 108.887 402.078 111.298 402.078H236.463C260.148 402.078 282.862 392.669 299.61 375.922C316.358 359.174 325.766 336.459 325.766 312.775V190.106C325.766 185.238 323.833 180.57 320.391 177.128C316.949 173.686 312.28 171.752 307.412 171.752H152.481Z" fill="#FDFDFD"/>
<path d="M239.265 320.398H106.22C105.459 320.398 104.729 320.096 104.191 319.558C103.653 319.02 103.351 318.29 103.351 317.529C103.351 316.768 103.653 316.039 104.191 315.501C104.729 314.962 105.459 314.66 106.22 314.66H239.265C240.026 314.66 240.755 314.962 241.293 315.501C241.831 316.039 242.134 316.768 242.134 317.529C242.134 318.29 241.831 319.02 241.293 319.558C240.755 320.096 240.026 320.398 239.265 320.398Z" fill="#F2F2F2"/>
<path d="M239.268 238.561H38.8731C38.4959 238.561 38.1223 238.488 37.7736 238.344C37.425 238.2 37.1081 237.989 36.8411 237.722C36.5742 237.456 36.3624 237.139 36.2179 236.791C36.0734 236.442 35.999 236.069 35.999 235.691C35.999 235.314 36.0734 234.941 36.2179 234.592C36.3624 234.244 36.5742 233.927 36.8411 233.661C37.1081 233.394 37.425 233.183 37.7736 233.039C38.1223 232.895 38.4959 232.822 38.8731 232.822H239.268C240.028 232.824 240.756 233.127 241.293 233.664C241.83 234.202 242.132 234.931 242.132 235.691C242.132 236.452 241.83 237.181 241.293 237.718C240.756 238.256 240.028 238.559 239.268 238.561Z" fill="#F2F2F2"/>
<path d="M239.273 259.048H38.8703C38.1096 259.049 37.3805 259.353 36.8431 259.891C36.3057 260.429 36.0039 261.159 36.0039 261.919C36.0039 262.68 36.3057 263.41 36.8431 263.948C37.3805 264.486 38.1096 264.79 38.8703 264.791H239.273C240.034 264.79 240.763 264.486 241.3 263.948C241.838 263.41 242.14 262.68 242.14 261.919C242.14 261.159 241.838 260.429 241.3 259.891C240.763 259.353 240.034 259.049 239.273 259.048Z" fill="#F2F2F2"/>
<path d="M239.268 291.021H38.873C38.1121 291.021 37.3823 290.719 36.8443 290.181C36.3062 289.643 36.0039 288.913 36.0039 288.152C36.0039 287.391 36.3062 286.662 36.8443 286.124C37.3823 285.586 38.1121 285.283 38.873 285.283H239.268C240.029 285.283 240.758 285.586 241.296 286.124C241.834 286.662 242.137 287.391 242.137 288.152C242.137 288.913 241.834 289.643 241.296 290.181C240.758 290.719 240.029 291.021 239.268 291.021Z" fill="#F2F2F2"/>
<path d="M439.837 212.028H243.722C230.961 212.028 220.616 222.373 220.616 235.134V336.307C220.616 349.068 230.961 359.413 243.722 359.413H439.837C452.598 359.413 462.943 349.068 462.943 336.307V235.134C462.943 222.373 452.598 212.028 439.837 212.028Z" fill="white"/>
<path d="M439.837 360.277H243.722C237.367 360.27 231.274 357.742 226.781 353.249C222.287 348.755 219.759 342.662 219.752 336.307V235.134C219.759 228.779 222.287 222.687 226.781 218.193C231.274 213.699 237.367 211.171 243.722 211.164H439.837C446.192 211.172 452.285 213.699 456.778 218.193C461.272 222.687 463.799 228.779 463.807 235.134V336.307C463.799 342.662 461.272 348.755 456.778 353.249C452.285 357.742 446.192 360.27 439.837 360.277ZM243.722 212.892C237.823 212.892 232.166 215.236 227.994 219.407C223.823 223.578 221.48 229.235 221.48 235.134V272.95C221.48 295.652 230.498 317.425 246.551 333.478C262.604 349.531 284.377 358.549 307.079 358.549H439.837C445.736 358.549 451.393 356.206 455.564 352.035C459.735 347.864 462.079 342.207 462.079 336.308V235.134C462.079 232.213 461.503 229.321 460.386 226.623C459.268 223.924 457.63 221.472 455.564 219.407C453.499 217.341 451.047 215.703 448.348 214.585C445.65 213.467 442.757 212.892 439.837 212.892L243.722 212.892Z" fill="#101623"/>
<path d="M295.554 319.416H249.764C248.094 319.416 246.74 320.77 246.74 322.44C246.74 324.11 248.094 325.464 249.764 325.464H295.554C297.225 325.464 298.578 324.11 298.578 322.44C298.578 320.77 297.225 319.416 295.554 319.416Z" fill="#6677FF"/>
<path d="M433.795 311.208H401.829C400.159 311.208 398.805 312.562 398.805 314.232V330.647C398.805 332.317 400.159 333.671 401.829 333.671H433.795C435.465 333.671 436.819 332.317 436.819 330.647V314.232C436.819 312.562 435.465 311.208 433.795 311.208Z" fill="#6677FF"/>
<path d="M262.292 268.873C270.88 268.873 277.843 261.911 277.843 253.322C277.843 244.733 270.88 237.771 262.292 237.771C253.703 237.771 246.74 244.733 246.74 253.322C246.74 261.911 253.703 268.873 262.292 268.873Z" fill="#00CC87"/>
<path d="M283.163 358.281L242.662 357.417C237.624 357.41 232.794 355.405 229.232 351.842C225.671 348.279 223.667 343.448 223.662 338.41L221.934 296.065C226.907 330.588 246.017 352.487 283.163 358.281Z" fill="#6677FF"/>
<path d="M199.672 437.87C245.925 437.87 283.42 400.375 283.42 354.122C283.42 307.87 245.925 270.375 199.672 270.375C153.42 270.375 115.925 307.87 115.925 354.122C115.925 400.375 153.42 437.87 199.672 437.87Z" fill="#6677FF"/>
<path d="M199.564 383.342C206.171 383.342 211.527 377.985 211.527 371.378C211.527 364.77 206.171 359.414 199.564 359.414C192.956 359.414 187.6 364.77 187.6 371.378C187.6 377.985 192.956 383.342 199.564 383.342Z" fill="#00CC87"/>
<path d="M199.557 376.9C202.607 376.9 205.079 374.427 205.079 371.378C205.079 368.328 202.607 365.856 199.557 365.856C196.507 365.856 194.035 368.328 194.035 371.378C194.035 374.427 196.507 376.9 199.557 376.9Z" fill="#6677FF"/>
<path d="M174.964 387.013H214.184C216.22 387.013 218.236 386.612 220.116 385.833C221.997 385.054 223.706 383.912 225.146 382.472C226.585 381.033 227.727 379.324 228.506 377.443C229.285 375.562 229.686 373.547 229.686 371.511V354.557C229.683 352.677 229.336 350.813 228.663 349.057C230.577 350.498 232.129 352.364 233.199 354.507C234.268 356.65 234.824 359.013 234.824 361.408V378.362C234.824 380.398 234.423 382.413 233.644 384.294C232.865 386.175 231.723 387.884 230.284 389.323C228.844 390.763 227.136 391.905 225.255 392.684C223.374 393.463 221.358 393.864 219.323 393.864H180.102C176.959 393.862 173.891 392.904 171.305 391.118C168.719 389.331 166.737 386.801 165.623 383.861C168.308 385.906 171.589 387.013 174.964 387.013Z" fill="#101623"/>
<path d="M200.351 308.713C192.16 308.713 184.959 312.421 180.883 317.987C185.241 314.816 190.503 313.127 195.892 313.171C208.577 313.171 218.896 322.057 218.896 332.978V342.057H223.355V328.52C223.355 317.598 213.035 308.713 200.351 308.713Z" fill="#101623"/>
<path d="M226.419 346.703H172.924V330.964C172.924 318.265 184.923 307.933 199.671 307.933C214.42 307.933 226.419 318.265 226.419 330.964V346.703ZM174.652 344.975H224.691V330.964C224.691 319.217 213.468 309.661 199.671 309.661C185.875 309.661 174.652 319.217 174.652 330.964V344.975Z" fill="white"/>
<path d="M213.375 340.694H185.975C184.742 340.693 183.56 340.203 182.688 339.331C181.817 338.459 181.327 337.277 181.325 336.045V329.781C181.325 321.048 189.557 313.943 199.675 313.943C209.793 313.943 218.024 321.048 218.024 329.781V336.045C218.023 337.277 217.533 338.459 216.661 339.331C215.79 340.203 214.608 340.693 213.375 340.694ZM199.675 315.671C190.51 315.671 183.053 322 183.053 329.781V336.045C183.054 336.819 183.362 337.562 183.91 338.11C184.457 338.657 185.2 338.966 185.975 338.966H213.375C214.15 338.966 214.892 338.657 215.44 338.11C215.988 337.562 216.296 336.819 216.297 336.045V329.781C216.297 322 208.84 315.671 199.675 315.671Z" fill="white"/>
</svg>
