<svg width="415" height="383" viewBox="0 0 415 383" fill="none" xmlns="http://www.w3.org/2000/svg">
<path fill-rule="evenodd" clip-rule="evenodd" d="M160.749 1.06168C213.713 -1.01416 267.62 -0.246477 310.87 30.3942C362.377 66.8845 420.177 117.69 414.052 180.515C408.028 242.308 332.789 265.316 284.2 303.966C244.593 335.471 211.277 379.137 160.749 382.003C108.145 384.987 54.8947 360.328 22.4522 318.812C-7.33753 280.691 3.38465 228.895 3.29737 180.515C3.20982 131.986 -10.0535 78.1962 21.9524 41.718C55.0058 4.04587 110.671 3.02447 160.749 1.06168Z" fill="#FAFAFA"/>
<path d="M345.485 105.29H20.0562C19.3583 105.276 18.8047 104.698 18.8196 104C18.8341 103.323 19.3793 102.778 20.0562 102.763H345.485C346.183 102.778 346.737 103.356 346.722 104.054C346.707 104.731 346.162 105.276 345.485 105.29Z" fill="#CACACA"/>
<path d="M234.579 147.873H144.618C137.861 147.873 132.383 153.351 132.383 160.108V160.108C132.383 166.865 137.861 172.343 144.618 172.343H234.579C241.336 172.343 246.814 166.865 246.814 160.108C246.814 153.351 241.336 147.873 234.579 147.873Z" fill="#BFBFBF"/>
<path d="M86.5024 196.813H292.695C299.452 196.813 304.93 202.29 304.93 209.047C304.93 215.805 299.452 221.282 292.695 221.282H86.5024C79.7453 221.282 74.2676 215.805 74.2676 209.047C74.2676 202.29 79.7453 196.813 86.5024 196.813Z" fill="#BFBFBF"/>
<path d="M86.5024 245.752H292.695C299.452 245.752 304.93 251.23 304.93 257.987C304.93 264.744 299.452 270.222 292.695 270.222H86.5024C79.7453 270.222 74.2676 264.744 74.2676 257.987C74.2676 251.23 79.7453 245.752 86.5024 245.752Z" fill="#BFBFBF"/>
<path d="M114.269 217.197C114.128 217.202 113.987 217.205 113.846 217.209C113.786 217.365 113.721 217.52 113.646 217.673L114.269 217.197Z" fill="#2F2E41"/>
<path d="M119.064 200.207C119.092 200.379 119.134 200.548 119.19 200.713C119.167 200.541 119.125 200.371 119.064 200.207Z" fill="#2F2E41"/>
<path d="M229.271 228.623C230.9 208.944 216.267 191.671 196.588 190.042C176.909 188.413 159.636 203.046 158.008 222.725C156.379 242.404 171.012 259.677 190.69 261.306C210.369 262.934 227.643 248.302 229.271 228.623Z" fill="#FF1720"/>
<path d="M203.032 210.776L193.64 220.168L184.248 210.776C182.728 209.256 180.263 209.256 178.743 210.776C177.222 212.297 177.222 214.762 178.743 216.282L188.135 225.674L178.743 235.066C177.224 236.587 177.226 239.052 178.748 240.571C180.268 242.088 182.729 242.088 184.248 240.571L193.64 231.179L203.032 240.571C204.554 242.09 207.019 242.088 208.538 240.566C210.054 239.046 210.054 236.585 208.538 235.066L199.146 225.674L208.538 216.282C210.058 214.762 210.058 212.297 208.538 210.776C207.017 209.256 204.552 209.256 203.032 210.776Z" fill="white"/>
<path d="M36.564 89.2845C39.8306 89.2845 42.4786 86.5774 42.4786 83.2381C42.4786 79.8987 39.8306 77.1917 36.564 77.1917C33.2975 77.1917 30.6494 79.8987 30.6494 83.2381C30.6494 86.5774 33.2975 89.2845 36.564 89.2845Z" fill="#3F3D56"/>
<path d="M56.9947 89.2845C60.2612 89.2845 62.9093 86.5774 62.9093 83.2381C62.9093 79.8987 60.2612 77.1917 56.9947 77.1917C53.7281 77.1917 51.0801 79.8987 51.0801 83.2381C51.0801 86.5774 53.7281 89.2845 56.9947 89.2845Z" fill="#3F3D56"/>
<path d="M77.4273 89.2845C80.6939 89.2845 83.3419 86.5774 83.3419 83.2381C83.3419 79.8987 80.6939 77.1917 77.4273 77.1917C74.1608 77.1917 71.5127 79.8987 71.5127 83.2381C71.5127 86.5774 74.1608 89.2845 77.4273 89.2845Z" fill="#3F3D56"/>
<path d="M100.727 88.017C100.546 88.017 100.364 87.9466 100.227 87.8066L96.2366 83.7269C95.9706 83.4551 95.9706 83.0207 96.2366 82.7489L100.227 78.6696C100.498 78.3936 100.942 78.3892 101.216 78.6586C101.493 78.9288 101.498 79.3717 101.227 79.6476L97.715 83.2379L101.227 86.8285C101.498 87.1044 101.493 87.5474 101.216 87.8175C101.081 87.9507 100.904 88.017 100.727 88.017Z" fill="#3F3D56"/>
<path d="M107.433 88.0169C107.256 88.0169 107.08 87.9507 106.944 87.8175C106.668 87.5473 106.663 87.1048 106.933 86.8285L110.445 83.2379L106.933 79.6476C106.663 79.3717 106.668 78.9287 106.944 78.6586C107.219 78.3881 107.663 78.3933 107.933 78.6695L111.923 82.7488C112.189 83.0207 112.189 83.4551 111.923 83.7269L107.933 87.8065C107.796 87.9466 107.615 88.0169 107.433 88.0169Z" fill="#3F3D56"/>
<path d="M316.214 77.8917H308.793C307.947 77.8917 307.262 78.5771 307.262 79.4234V86.8511C307.262 87.6974 307.947 88.3828 308.793 88.3828H316.214C317.06 88.3828 317.753 87.6974 317.753 86.8511V79.4234C317.753 78.5771 317.06 77.8917 316.214 77.8917Z" fill="#3F3D56"/>
<path d="M298.027 77.8917H290.606C289.76 77.8917 289.074 78.5771 289.074 79.4234V86.8511C289.074 87.6974 289.76 88.3828 290.606 88.3828H298.027C298.873 88.3828 299.565 87.6974 299.565 86.8511V79.4234C299.565 78.5771 298.873 77.8917 298.027 77.8917Z" fill="#3F3D56"/>
<path d="M333.349 78.2414H325.928C325.082 78.2414 324.396 78.9268 324.396 79.7731V87.2008C324.396 88.0471 325.082 88.7325 325.928 88.7325H333.349C334.195 88.7325 334.888 88.0471 334.888 87.2008V79.7731C334.888 78.9268 334.195 78.2414 333.349 78.2414Z" fill="#3F3D56"/>
<path d="M221.498 81.067H162.181C161.146 81.067 160.313 81.9063 160.313 82.9345C160.313 83.9626 161.146 84.8019 162.181 84.8019H221.498C222.526 84.8019 223.365 83.9626 223.365 82.9345C223.365 81.9064 222.526 81.067 221.498 81.067Z" fill="#3F3D56"/>
</svg>
