<svg width="487" height="372" viewBox="0 0 487 372" fill="none" xmlns="http://www.w3.org/2000/svg">
<path fill-rule="evenodd" clip-rule="evenodd" d="M222.472 10.8877C283.869 3.51185 350.426 -14.2142 400.582 21.9562C455.956 61.8892 493.855 132.398 484.801 200.066C476.271 263.821 412.648 301.35 358.544 336.139C317.761 362.363 270.918 366.766 222.472 368.746C170.829 370.856 115.105 380.095 74.8037 347.735C31.487 312.954 10.8976 255.599 12.3966 200.066C13.86 145.85 42.263 96.4545 82.566 60.1605C120.761 25.7651 171.44 17.0183 222.472 10.8877Z" fill="#FAFAFA"/>
<path d="M475.462 256.786H39.1718C36.4714 256.783 33.8825 255.709 31.973 253.8C30.0636 251.89 28.9895 249.301 28.9863 246.601V156.247C28.9895 153.547 30.0636 150.958 31.973 149.049C33.8825 147.139 36.4714 146.065 39.1718 146.062H475.462C478.163 146.065 480.751 147.139 482.661 149.049C484.57 150.958 485.644 153.547 485.648 156.247V246.601C485.644 249.301 484.57 251.89 482.661 253.8C480.751 255.709 478.163 256.783 475.462 256.786Z" fill="#E6E6E6"/>
<path d="M446.015 249.916H46.0429C43.3425 249.913 40.7536 248.839 38.8441 246.929C36.9347 245.02 35.8606 242.431 35.8574 239.731V163.123C35.8606 160.423 36.9347 157.834 38.8441 155.924C40.7536 154.015 43.3425 152.941 46.0429 152.938H468.591C471.292 152.941 473.88 154.015 475.79 155.924C477.699 157.834 478.773 160.423 478.777 163.123V217.154C478.767 225.84 475.312 234.168 469.17 240.31C463.028 246.452 454.701 249.906 446.015 249.916Z" fill="white"/>
<path d="M393.266 187.668H271.456C270.759 187.668 270.091 187.391 269.598 186.898C269.106 186.406 268.829 185.737 268.829 185.041C268.829 184.344 269.106 183.676 269.598 183.183C270.091 182.691 270.759 182.414 271.456 182.414H393.266C393.963 182.414 394.631 182.691 395.124 183.183C395.616 183.676 395.893 184.344 395.893 185.041C395.893 185.737 395.616 186.406 395.124 186.898C394.631 187.391 393.963 187.668 393.266 187.668Z" fill="#6C63FF"/>
<path d="M424.098 203.259H240.625C239.928 203.259 239.26 202.983 238.767 202.49C238.275 201.997 237.998 201.329 237.998 200.633C237.998 199.936 238.275 199.268 238.767 198.775C239.26 198.282 239.928 198.006 240.625 198.006H424.098C424.795 198.006 425.463 198.282 425.955 198.775C426.448 199.268 426.725 199.936 426.725 200.633C426.725 201.329 426.448 201.997 425.955 202.49C425.463 202.983 424.795 203.259 424.098 203.259Z" fill="#E6E6E6"/>
<path d="M424.098 220.44H240.625C239.928 220.44 239.26 220.163 238.767 219.671C238.275 219.178 237.998 218.51 237.998 217.813C237.998 217.117 238.275 216.448 238.767 215.956C239.26 215.463 239.928 215.186 240.625 215.186H424.098C424.795 215.186 425.463 215.463 425.955 215.956C426.448 216.448 426.725 217.117 426.725 217.813C426.725 218.51 426.448 219.178 425.955 219.671C425.463 220.163 424.795 220.44 424.098 220.44Z" fill="#E6E6E6"/>
<path d="M269.837 161.13H268.34V103.469H376.606V104.965H269.837V161.13Z" fill="#3F3D56"/>
<path d="M422.391 94H382.724C380.143 94 377.669 95.0251 375.844 96.8498C374.019 98.6744 372.994 101.149 372.994 103.73C372.994 106.31 374.019 108.785 375.844 110.61C377.669 112.434 380.143 113.459 382.724 113.459H422.391C424.971 113.459 427.446 112.434 429.271 110.61C431.096 108.785 432.121 106.31 432.121 103.73C432.121 101.149 431.096 98.6744 429.271 96.8498C427.446 95.0251 424.971 94 422.391 94Z" fill="#6C63FF"/>
<path d="M268.22 170.925C273.158 170.925 277.161 166.922 277.161 161.984C277.161 157.046 273.158 153.043 268.22 153.043C263.282 153.043 259.279 157.046 259.279 161.984C259.279 166.922 263.282 170.925 268.22 170.925Z" fill="#E6E6E6"/>
<path d="M323.723 242.42H322.227V300.081H430.493V298.584H323.723V242.42Z" fill="#3F3D56"/>
<path d="M486.007 299.82C486.005 297.24 484.979 294.767 483.155 292.943C481.331 291.119 478.857 290.093 476.278 290.09H436.611C434.03 290.09 431.555 291.116 429.731 292.94C427.906 294.765 426.881 297.24 426.881 299.82C426.881 302.401 427.906 304.875 429.731 306.7C431.555 308.525 434.03 309.55 436.611 309.55H476.278C478.857 309.547 481.331 308.521 483.155 306.697C484.979 304.873 486.005 302.4 486.007 299.82Z" fill="#6C63FF"/>
<path d="M323.605 248.014C328.543 248.014 332.546 244.011 332.546 239.073C332.546 234.135 328.543 230.132 323.605 230.132C318.667 230.132 314.664 234.135 314.664 239.073C314.664 244.011 318.667 248.014 323.605 248.014Z" fill="#E6E6E6"/>
<path d="M163.145 243.168H164.642V300.83H56.375V299.333H163.145V243.168Z" fill="#3F3D56"/>
<path d="M10.591 310.298H50.2581C52.8386 310.298 55.3134 309.273 57.1381 307.448C58.9627 305.624 59.9878 303.149 59.9878 300.569C59.9878 297.988 58.9627 295.513 57.1381 293.689C55.3134 291.864 52.8386 290.839 50.2581 290.839H10.591C8.01053 290.839 5.53576 291.864 3.71109 293.689C1.88642 295.513 0.861328 297.988 0.861328 300.569C0.861328 303.149 1.88642 305.624 3.71109 307.448C5.53576 309.273 8.01053 310.298 10.591 310.298Z" fill="#6C63FF"/>
<path d="M164.935 247.513C169.873 247.513 173.876 243.51 173.876 238.572C173.876 233.634 169.873 229.631 164.935 229.631C159.997 229.631 155.994 233.634 155.994 238.572C155.994 243.51 159.997 247.513 164.935 247.513Z" fill="#E6E6E6"/>
<path d="M78.7777 228.229C93.6583 228.229 105.721 216.166 105.721 201.286C105.721 186.405 93.6583 174.342 78.7777 174.342C63.8971 174.342 51.834 186.405 51.834 201.286C51.834 216.166 63.8971 228.229 78.7777 228.229Z" fill="#F2F2F2"/>
<path d="M180.867 187.526H163.089C162.392 187.526 161.724 187.25 161.231 186.757C160.739 186.264 160.462 185.596 160.462 184.899C160.462 184.203 160.739 183.535 161.231 183.042C161.724 182.549 162.392 182.273 163.089 182.273H180.867C181.563 182.273 182.231 182.549 182.724 183.042C183.217 183.535 183.493 184.203 183.493 184.899C183.493 185.596 183.217 186.264 182.724 186.757C182.231 187.25 181.563 187.526 180.867 187.526Z" fill="#6C63FF"/>
<path d="M211.696 203.118H132.256C131.559 203.118 130.891 202.842 130.398 202.349C129.906 201.856 129.629 201.188 129.629 200.491C129.629 199.795 129.906 199.127 130.398 198.634C130.891 198.141 131.559 197.865 132.256 197.865H211.696C212.393 197.865 213.061 198.141 213.554 198.634C214.046 199.127 214.323 199.795 214.323 200.491C214.323 201.188 214.046 201.856 213.554 202.349C213.061 202.842 212.393 203.118 211.696 203.118Z" fill="#E6E6E6"/>
<path d="M211.696 220.299H132.256C131.559 220.299 130.891 220.022 130.398 219.53C129.906 219.037 129.629 218.369 129.629 217.672C129.629 216.975 129.906 216.307 130.398 215.815C130.891 215.322 131.559 215.045 132.256 215.045H211.696C212.393 215.045 213.061 215.322 213.554 215.815C214.046 216.307 214.323 216.975 214.323 217.672C214.323 218.369 214.046 219.037 213.554 219.53C213.061 220.022 212.393 220.299 211.696 220.299Z" fill="#E6E6E6"/>
</svg>
