<svg width="259" height="266" viewBox="0 0 259 266" fill="none" xmlns="http://www.w3.org/2000/svg">
<path d="M136.647 1.49143e-06L-87 164.708L-0.128493 282.666L223.518 117.957L136.647 1.49143e-06Z" fill="#CC092F"/>
<path opacity="0.72" d="M107.397 53.4667L-85.3035 193.477L-88 191.011L104.7 51L107.397 53.4667ZM111.588 57.2915L-81.1117 197.302L-78.4152 199.769L114.285 59.7582L111.588 57.2915ZM118.489 63.593L-74.2112 203.604L-71.5147 206.07L121.185 66.0597L118.489 63.593ZM125.377 69.8845L-67.3229 209.895L-64.6264 212.362L128.074 72.3511L125.377 69.8845ZM132.265 76.1859L-60.4347 216.197L-57.7382 218.663L134.962 78.6526L132.265 76.1859ZM139.154 82.4775L-53.5464 222.488L-50.8499 224.955L141.85 84.9441L139.154 82.4775ZM146.054 88.7789L-46.6458 228.79L-43.9494 231.256L148.751 91.2456L146.054 88.7789ZM152.943 95.0704L-39.7576 235.081L-37.0611 237.548L155.639 97.5371L152.943 95.0704ZM159.831 101.372L-32.8693 241.383L-30.1728 243.849L162.527 103.839L159.831 101.372ZM166.719 107.663L-25.981 247.674L-23.2845 250.141L169.416 110.13L166.719 107.663ZM173.62 113.965L-19.0805 253.976L-16.384 256.442L176.316 116.432L173.62 113.965ZM180.508 120.256L-12.1922 260.267L-9.49574 262.734L183.204 122.723L180.508 120.256ZM187.396 126.558L-5.30396 266.568L-2.60747 269.035L190.093 129.024L187.396 126.558ZM194.284 132.849L1.5843 272.86L4.2808 275.327L196.981 135.316L194.284 132.849ZM201.173 139.151L8.47258 279.161L11.1691 281.628L203.869 141.617L201.173 139.151ZM208.073 145.452L15.3731 285.463L18.0696 287.93L210.77 147.919L208.073 145.452ZM214.962 151.744L22.2614 291.754L24.9579 294.221L217.658 154.21L214.962 151.744ZM221.85 158.045L29.1497 298.056L31.8461 300.523L224.546 160.512L221.85 158.045ZM228.738 164.337L36.038 304.347L38.7344 306.814L231.435 166.803L228.738 164.337ZM235.639 170.638L42.9385 310.649L45.6349 313.116L238.335 173.105L235.639 170.638ZM242.527 176.93L49.8268 316.94L52.5232 319.407L245.223 179.396L242.527 176.93ZM249.415 183.231L56.7151 323.242L59.4115 325.709L252.112 185.698L249.415 183.231ZM256.303 189.523L63.6033 329.533L66.2998 332L259 191.989L256.303 189.523Z" fill="#CC092F"/>
</svg>
