<svg width="283" height="241" viewBox="0 0 283 241" fill="none" xmlns="http://www.w3.org/2000/svg">
<path d="M268.662 -29.527L31.5566 115.137L107.856 240.193L344.962 95.5288L268.662 -29.527Z" fill="#CC092F"/>
<path opacity="0.72" d="M195.397 -75.5333L2.69649 64.4773L0 62.0107L192.7 -78L195.397 -75.5333ZM199.588 -71.7085L6.88827 68.3022L9.58476 70.7688L202.285 -69.2418L199.588 -71.7085ZM206.489 -65.407L13.7888 74.6036L16.4853 77.0703L209.185 -62.9403L206.489 -65.407ZM213.377 -59.1155L20.6771 80.8951L23.3736 83.3618L216.074 -56.6489L213.377 -59.1155ZM220.265 -52.8141L27.5653 87.1966L30.2618 89.6633L222.962 -50.3474L220.265 -52.8141ZM227.154 -46.5225L34.4536 93.4881L37.1501 95.9548L229.85 -44.0559L227.154 -46.5225ZM234.054 -40.2211L41.3542 99.7896L44.0506 102.256L236.751 -37.7544L234.054 -40.2211ZM240.943 -33.9296L48.2424 106.081L50.9389 108.548L243.639 -31.4629L240.943 -33.9296ZM247.831 -27.6281L55.1307 112.383L57.8272 114.849L250.527 -25.1615L247.831 -27.6281ZM254.719 -21.3366L62.019 118.674L64.7155 121.141L257.416 -18.8699L254.719 -21.3366ZM261.62 -15.0351L68.9195 124.976L71.616 127.442L264.316 -12.5685L261.62 -15.0351ZM268.508 -8.74365L75.8078 131.267L78.5043 133.734L271.204 -6.27699L268.508 -8.74365ZM275.396 -2.44218L82.696 137.568L85.3925 140.035L278.093 0.0244904L275.396 -2.44218ZM282.284 3.84933L89.5843 143.86L92.2808 146.327L284.981 6.31597L282.284 3.84933ZM289.173 10.1508L96.4726 150.161L99.1691 152.628L291.869 12.6175L289.173 10.1508ZM296.073 16.4523L103.373 156.463L106.07 158.93L298.77 18.919L296.073 16.4523ZM302.962 22.7438L110.261 162.754L112.958 165.221L305.658 25.2104L302.962 22.7438ZM309.85 29.0452L117.15 169.056L119.846 171.523L312.546 31.5119L309.85 29.0452ZM316.738 35.3367L124.038 175.347L126.734 177.814L319.435 37.8034L316.738 35.3367ZM323.639 41.6382L130.939 181.649L133.635 184.116L326.335 44.1049L323.639 41.6382ZM330.527 47.9297L137.827 187.94L140.523 190.407L333.223 50.3964L330.527 47.9297ZM337.415 54.2312L144.715 194.242L147.411 196.709L340.112 56.6978L337.415 54.2312ZM344.303 60.5227L151.603 200.533L154.3 203L347 62.9893L344.303 60.5227Z" fill="#CC092F"/>
</svg>
