<svg width="159" height="149" viewBox="0 0 159 149" fill="none" xmlns="http://www.w3.org/2000/svg">
<path d="M13.9058 47.2808C10.6371 47.2808 8 44.6163 8 41.375C8 38.1062 10.6645 35.4692 13.9058 35.4692C17.1471 35.4692 19.8115 38.1337 19.8115 41.375C19.8115 44.6163 17.1746 47.2808 13.9058 47.2808Z" fill="#0070AF"/>
<path d="M69.5299 47.2808C66.2611 47.2808 63.624 44.6163 63.624 41.375C63.624 38.1062 66.2886 35.4692 69.5299 35.4692C72.7986 35.4692 75.4355 38.1337 75.4355 41.375C75.463 44.6163 72.7986 47.2808 69.5299 47.2808Z" fill="#0070AF"/>
<path d="M125.154 47.2808C121.885 47.2808 119.248 44.6163 119.248 41.375C119.248 38.1062 121.913 35.4692 125.154 35.4692C128.423 35.4692 131.06 38.1337 131.06 41.375C131.087 44.6163 128.423 47.2808 125.154 47.2808Z" fill="#0070AF"/>
<path d="M13.9058 97.9879C10.6371 97.9879 8 95.3234 8 92.0821C8 88.8134 10.6645 86.1764 13.9058 86.1764C17.1471 86.1764 19.8115 88.8408 19.8115 92.0821C19.8115 95.3509 17.1746 97.9879 13.9058 97.9879Z" fill="#0070AF"/>
<path d="M69.5299 97.9879C66.2611 97.9879 63.624 95.3234 63.624 92.0821C63.624 88.8134 66.2886 86.1764 69.5299 86.1764C72.7986 86.1764 75.4355 88.8408 75.4355 92.0821C75.463 95.3509 72.7986 97.9879 69.5299 97.9879Z" fill="#0070AF"/>
<path d="M13.9058 148.723C17.1675 148.723 19.8115 146.079 19.8115 142.817C19.8115 139.555 17.1675 136.911 13.9058 136.911C10.6442 136.911 8 139.555 8 142.817C8 146.079 10.6442 148.723 13.9058 148.723Z" fill="#0070AF"/>
<path d="M172.856 41L138.297 75.3904L103.718 41L69.1591 75.3904L34.6006 41L0 75.4535L3.97288 79.1111L34.6006 48.6096L69.1591 83L103.718 48.6096L138.297 83L172.856 48.6096L203.358 78.943L207.162 75.1171L172.856 41Z" fill="#FF9D00"/>
</svg>
