<svg width="199" height="114" viewBox="0 0 199 114" fill="none" xmlns="http://www.w3.org/2000/svg">
<path d="M9.72556 113.714V94.2632M19.4511 103.989H0H19.4511Z" stroke="#8BD2BD" stroke-miterlimit="10"/>
<path d="M9.72556 65.8346V46.3835M19.4511 56.109H0H19.4511Z" stroke="#8BD2BD" stroke-miterlimit="10"/>
<path d="M9.72556 19.4511V0M19.4511 9.72556H0H19.4511Z" stroke="#8BD2BD" stroke-miterlimit="10"/>
<path d="M9.72556 113.714V94.2632M19.4511 103.989H0H19.4511Z" stroke="#FF1720" stroke-width="2" stroke-miterlimit="10"/>
<path d="M9.72556 65.8346V46.3835M19.4511 56.109H0H19.4511Z" stroke="#FF1720" stroke-width="2" stroke-miterlimit="10"/>
<path d="M9.72556 19.4511V0M19.4511 9.72556H0H19.4511Z" stroke="#FF1720" stroke-width="2" stroke-miterlimit="10"/>
<path d="M54.6152 113.714V94.2632M64.3408 103.989H44.8896H64.3408Z" stroke="#8BD2BD" stroke-miterlimit="10"/>
<path d="M54.6152 65.8346V46.3834M64.3408 56.109H44.8896H64.3408Z" stroke="#8BD2BD" stroke-miterlimit="10"/>
<path d="M54.6152 19.4513V0.00012207M64.3408 9.72569H44.8896H64.3408Z" stroke="#8BD2BD" stroke-miterlimit="10"/>
<path d="M54.6152 113.714V94.2632M64.3408 103.989H44.8896H64.3408Z" stroke="#FF1720" stroke-width="2" stroke-miterlimit="10"/>
<path d="M54.6152 65.8346V46.3834M64.3408 56.109H44.8896H64.3408Z" stroke="#FF1720" stroke-width="2" stroke-miterlimit="10"/>
<path d="M54.6152 19.4513V0.00012207M64.3408 9.72569H44.8896H64.3408Z" stroke="#FF1720" stroke-width="2" stroke-miterlimit="10"/>
<path d="M99.4961 65.8346V46.3834M109.222 56.109H89.7705H109.222Z" stroke="#8BD2BD" stroke-miterlimit="10"/>
<path d="M99.4961 19.4513V0.00012207M109.222 9.72569H89.7705H109.222Z" stroke="#8BD2BD" stroke-miterlimit="10"/>
<path d="M99.4961 65.8346V46.3834M109.222 56.109H89.7705H109.222Z" stroke="#FF1720" stroke-width="2" stroke-miterlimit="10"/>
<path d="M99.4961 19.4513V0.00012207M109.222 9.72569H89.7705H109.222Z" stroke="#FF1720" stroke-width="2" stroke-miterlimit="10"/>
<path d="M144.386 65.8346V46.3834M154.111 56.109H134.66H154.111Z" stroke="#8BD2BD" stroke-miterlimit="10"/>
<path d="M144.386 19.4513V0.00012207M154.111 9.72569H134.66H154.111Z" stroke="#8BD2BD" stroke-miterlimit="10"/>
<path d="M144.386 65.8346V46.3834M154.111 56.109H134.66H154.111Z" stroke="#FF1720" stroke-width="2" stroke-miterlimit="10"/>
<path d="M144.386 19.4513V0.00012207M154.111 9.72569H134.66H154.111Z" stroke="#FF1720" stroke-width="2" stroke-miterlimit="10"/>
<path d="M189.274 65.8346V46.3835M199 56.109H179.549H199Z" stroke="#8BD2BD" stroke-miterlimit="10"/>
<path d="M189.274 19.4511V0M199 9.72556H179.549H199Z" stroke="#8BD2BD" stroke-miterlimit="10"/>
<path d="M189.274 65.8346V46.3835M199 56.109H179.549H199Z" stroke="#FF1720" stroke-width="2" stroke-miterlimit="10"/>
<path d="M189.274 19.4511V0M199 9.72556H179.549H199Z" stroke="#FF1720" stroke-width="2" stroke-miterlimit="10"/>
</svg>
