<svg width="177" height="134" viewBox="0 0 177 134" fill="none" xmlns="http://www.w3.org/2000/svg">
<path d="M36.471 26.942C33.4429 26.942 31 24.4737 31 21.471C31 18.4429 33.4684 16 36.471 16C39.4737 16 41.9419 18.4684 41.9419 21.471C41.9419 24.4992 39.4992 26.942 36.471 26.942Z" fill="#0070AF"/>
<path d="M36.471 73.9413C33.4429 73.9413 31 71.473 31 68.4703C31 65.4422 33.4684 62.9993 36.471 62.9993C39.4737 62.9993 41.9419 65.4676 41.9419 68.4703C41.9419 71.473 39.4992 73.9413 36.471 73.9413Z" fill="#0070AF"/>
<path d="M87.9994 73.9413C84.9712 73.9413 82.5283 71.473 82.5283 68.4703C82.5283 65.4422 84.9967 62.9993 87.9994 62.9993C91.0275 62.9993 93.4702 65.4676 93.4702 68.4703C93.4957 71.473 91.0275 73.9413 87.9994 73.9413Z" fill="#0070AF"/>
<path d="M36.471 120.941C33.4429 120.941 31 118.472 31 115.47C31 112.442 33.4684 109.999 36.471 109.999C39.4737 109.999 41.9419 112.467 41.9419 115.47C41.9419 118.472 39.4992 120.941 36.471 120.941Z" fill="#0070AF"/>
<path d="M87.9994 120.941C84.9712 120.941 82.5283 118.472 82.5283 115.47C82.5283 112.442 84.9967 109.999 87.9994 109.999C91.0275 109.999 93.4702 112.467 93.4702 115.47C93.4957 118.472 91.0275 120.941 87.9994 120.941Z" fill="#0070AF"/>
<path d="M139.529 120.941C136.501 120.941 134.058 118.472 134.058 115.47C134.058 112.442 136.526 109.999 139.529 109.999C142.557 109.999 145 112.467 145 115.47C145.025 118.472 142.557 120.941 139.529 120.941Z" fill="#0070AF"/>
<path d="M141.856 0L107.297 34.3904L72.7178 0L38.1591 34.3904L3.60055 0L-31 34.4535L-27.0271 38.1111L3.60055 7.60961L38.1591 42L72.7178 7.60961L107.297 42L141.856 7.60961L172.358 37.943L176.162 34.1171L141.856 0Z" fill="#FF9D00"/>
</svg>
