<svg width="160" height="184" viewBox="0 0 160 184" fill="none" xmlns="http://www.w3.org/2000/svg">
<path d="M4.57764e-05 0C-88.3718 0 -160 71.6282 -160 160C-160 248.372 -88.3718 320 4.57764e-05 320C88.3718 320 160 248.372 160 160C160 71.6282 88.3718 0 4.57764e-05 0ZM4.57764e-05 257.174C-53.6705 257.174 -97.1736 213.671 -97.1736 160C-97.1736 106.329 -53.6705 62.8264 4.57764e-05 62.8264C53.6706 62.8264 97.1736 106.329 97.1736 160C97.1736 213.671 53.6706 257.174 4.57764e-05 257.174Z" fill="#0059A3"/>
</svg>
