<svg width="278" height="82" viewBox="0 0 278 82" fill="none" xmlns="http://www.w3.org/2000/svg">
<rect x="0.340088" y="0.448364" width="277.66" height="81.1032" rx="8.44824" fill="#101623"/>
<path d="M43.2042 39.7873L20.8221 63.542C20.8242 63.5462 20.8242 63.5525 20.8263 63.5568C21.5138 66.1361 23.8682 68.0344 26.6641 68.0344C27.7825 68.0344 28.8315 67.7317 29.7312 67.202L29.8027 67.1599L54.9954 52.6233L43.2042 39.7873Z" fill="#EA4335"/>
<path d="M65.8466 35.7421L65.8256 35.7274L54.9489 29.4229L42.6952 40.327L54.993 52.6206L65.8109 46.3792C67.7071 45.3533 68.9957 43.3541 68.9957 41.0501C68.9957 38.7587 67.726 36.7701 65.8466 35.7421Z" fill="#FBBC04"/>
<path d="M20.8219 18.4563C20.6873 18.9524 20.6158 19.4737 20.6158 20.0119V61.9885C20.6158 62.5266 20.6873 63.048 20.824 63.542L43.9733 40.3948L20.8219 18.4563Z" fill="#4285F4"/>
<path d="M43.3703 40.9998L54.9533 29.4188L29.7901 14.8296C28.8756 14.2809 27.8077 13.9656 26.6662 13.9656C23.8703 13.9656 21.5117 15.868 20.8242 18.4495C20.8242 18.4516 20.8221 18.4537 20.8221 18.4558L43.3703 40.9998Z" fill="#34A853"/>
<path d="M101.941 20.6777C101.941 22.3429 101.448 23.6682 100.461 24.6578C99.3381 25.8341 97.8777 26.4222 96.0814 26.4222C94.3586 26.4222 92.8962 25.8261 91.694 24.6319C90.4879 23.4397 89.8878 21.9594 89.8878 20.1949C89.8878 18.4284 90.4879 16.9501 91.694 15.7559C92.8962 14.5636 94.3586 13.9655 96.0814 13.9655C96.9338 13.9655 97.7525 14.1324 98.5274 14.4663C99.3044 14.8001 99.9263 15.2432 100.393 15.7976L99.3441 16.8467C98.5553 15.9049 97.4683 15.432 96.0814 15.432C94.8256 15.432 93.7407 15.8731 92.8247 16.7553C91.9086 17.6396 91.4516 18.7841 91.4516 20.1949C91.4516 21.6037 91.9086 22.7502 92.8247 23.6324C93.7407 24.5167 94.8256 24.9558 96.0814 24.9558C97.4127 24.9558 98.5215 24.5127 99.4117 23.6245C99.9879 23.0463 100.32 22.2435 100.409 21.2103H96.0814V19.7776H101.858C101.913 20.0896 101.941 20.3896 101.941 20.6777Z" fill="white"/>
<path d="M101.941 20.6777C101.941 22.3429 101.448 23.6682 100.461 24.6578C99.3381 25.8341 97.8777 26.4222 96.0814 26.4222C94.3586 26.4222 92.8962 25.8261 91.694 24.6319C90.4879 23.4397 89.8878 21.9594 89.8878 20.1949C89.8878 18.4284 90.4879 16.9501 91.694 15.7559C92.8962 14.5636 94.3586 13.9655 96.0814 13.9655C96.9338 13.9655 97.7525 14.1324 98.5274 14.4663C99.3044 14.8001 99.9263 15.2432 100.393 15.7976L99.3441 16.8467C98.5553 15.9049 97.4683 15.432 96.0814 15.432C94.8256 15.432 93.7407 15.8731 92.8247 16.7553C91.9086 17.6396 91.4516 18.7841 91.4516 20.1949C91.4516 21.6037 91.9086 22.7502 92.8247 23.6324C93.7407 24.5167 94.8256 24.9558 96.0814 24.9558C97.4127 24.9558 98.5215 24.5127 99.4117 23.6245C99.9879 23.0463 100.32 22.2435 100.409 21.2103H96.0814V19.7776H101.858C101.913 20.0896 101.941 20.3896 101.941 20.6777Z" fill="white"/>
<path d="M111.1 15.6985H105.671V19.4778H110.567V20.9105H105.671V24.6898H111.1V26.1562H104.139V14.2341H111.1V15.6985Z" fill="white"/>
<path d="M111.1 15.6985H105.671V19.4778H110.567V20.9105H105.671V24.6898H111.1V26.1562H104.139V14.2341H111.1V15.6985Z" fill="white"/>
<path d="M117.56 26.1556H116.028V15.6979H112.698V14.2334H120.891V15.6979H117.56V26.1556Z" fill="white"/>
<path d="M117.56 26.1556H116.028V15.6979H112.698V14.2334H120.891V15.6979H117.56V26.1556Z" fill="white"/>
<path d="M126.818 14.2334H128.349V26.1556H126.818V14.2334Z" fill="white"/>
<path d="M135.145 26.1556H133.613V15.6979H130.283V14.2334H138.475V15.6979H135.145V26.1556Z" fill="white"/>
<path d="M135.145 26.1556H133.613V15.6979H130.283V14.2334H138.475V15.6979H135.145V26.1556Z" fill="white"/>
<path d="M146.373 23.6166C147.256 24.5107 148.335 24.9558 149.612 24.9558C150.89 24.9558 151.969 24.5107 152.851 23.6166C153.733 22.7224 154.177 21.5818 154.177 20.1949C154.177 18.8079 153.733 17.6654 152.851 16.7732C151.969 15.879 150.89 15.432 149.612 15.432C148.335 15.432 147.256 15.879 146.373 16.7732C145.493 17.6654 145.05 18.8079 145.05 20.1949C145.05 21.5818 145.493 22.7224 146.373 23.6166ZM153.984 24.614C152.811 25.8202 151.355 26.4222 149.612 26.4222C147.87 26.4222 146.413 25.8202 145.243 24.614C144.071 23.4099 143.486 21.9375 143.486 20.1949C143.486 18.4523 144.071 16.9779 145.243 15.7737C146.413 14.5696 147.87 13.9655 149.612 13.9655C151.345 13.9655 152.798 14.5716 153.976 15.7817C155.152 16.9918 155.74 18.4622 155.74 20.1949C155.74 21.9375 155.154 23.4099 153.984 24.614Z" fill="white"/>
<path d="M146.373 23.6166C147.256 24.5107 148.335 24.9558 149.612 24.9558C150.89 24.9558 151.969 24.5107 152.851 23.6166C153.733 22.7224 154.177 21.5818 154.177 20.1949C154.177 18.8079 153.733 17.6654 152.851 16.7732C151.969 15.879 150.89 15.432 149.612 15.432C148.335 15.432 147.256 15.879 146.373 16.7732C145.493 17.6654 145.05 18.8079 145.05 20.1949C145.05 21.5818 145.493 22.7224 146.373 23.6166ZM153.984 24.614C152.811 25.8202 151.355 26.4222 149.612 26.4222C147.87 26.4222 146.413 25.8202 145.243 24.614C144.071 23.4099 143.486 21.9375 143.486 20.1949C143.486 18.4523 144.071 16.9779 145.243 15.7737C146.413 14.5696 147.87 13.9655 149.612 13.9655C151.345 13.9655 152.798 14.5716 153.976 15.7817C155.152 16.9918 155.74 18.4622 155.74 20.1949C155.74 21.9375 155.154 23.4099 153.984 24.614Z" fill="white"/>
<path d="M157.89 26.1556V14.2334H159.753L165.548 23.5069H165.615L165.548 21.2099V14.2334H167.082V26.1556H165.482L159.42 16.4311H159.354L159.42 18.7301V26.1556H157.89Z" fill="white"/>
<path d="M157.89 26.1556V14.2334H159.753L165.548 23.5069H165.615L165.548 21.2099V14.2334H167.082V26.1556H165.482L159.42 16.4311H159.354L159.42 18.7301V26.1556H157.89Z" fill="white"/>
<path d="M220.205 59.9353H223.913V35.0954H220.205V59.9353ZM253.601 44.043L249.351 54.8127H249.224L244.812 44.043H240.818L247.433 59.0948L243.664 67.4681H247.529L257.724 44.043H253.601ZM232.574 57.1137C231.358 57.1137 229.665 56.5076 229.665 55.0035C229.665 53.088 231.773 52.3528 233.596 52.3528C235.225 52.3528 235.994 52.7045 236.983 53.1833C236.695 55.4843 234.714 57.1137 232.574 57.1137ZM233.021 43.5005C230.337 43.5005 227.555 44.6828 226.407 47.3037L229.697 48.6768C230.4 47.3037 231.71 46.8546 233.085 46.8546C235.002 46.8546 236.952 48.0051 236.983 50.0518V50.3061C236.312 49.9226 234.875 49.3484 233.117 49.3484C229.57 49.3484 225.957 51.2977 225.957 54.9399C225.957 58.2642 228.866 60.4062 232.125 60.4062C234.619 60.4062 235.994 59.2875 236.856 57.9761H236.983V59.8936H240.562V50.3697C240.562 45.9605 237.272 43.5005 233.021 43.5005ZM210.107 47.0673H204.833V38.5528H210.107C212.879 38.5528 214.453 40.8479 214.453 42.8091C214.453 44.7345 212.879 47.0673 210.107 47.0673ZM210.012 35.0954H201.127V59.9353H204.833V50.5247H210.012C214.121 50.5247 218.16 47.5481 218.16 42.8091C218.16 38.07 214.121 35.0954 210.012 35.0954ZM161.566 57.1177C159.004 57.1177 156.86 54.9737 156.86 52.0289C156.86 49.0523 159.004 46.8745 161.566 46.8745C164.095 46.8745 166.078 49.0523 166.078 52.0289C166.078 54.9737 164.095 57.1177 161.566 57.1177ZM165.824 45.4339H165.695C164.862 44.4424 163.263 43.5462 161.246 43.5462C157.019 43.5462 153.147 47.258 153.147 52.0289C153.147 56.766 157.019 60.4479 161.246 60.4479C163.263 60.4479 164.862 59.5518 165.695 58.5265H165.824V59.7445C165.824 62.9774 164.095 64.7061 161.309 64.7061C159.036 64.7061 157.627 63.0728 157.051 61.6958L153.818 63.041C154.746 65.2824 157.212 68.0344 161.309 68.0344C165.663 68.0344 169.345 65.4731 169.345 59.2319V44.0569H165.824V45.4339ZM171.906 59.9353H175.62V35.0934H171.906V59.9353ZM181.092 51.7408C180.997 48.4761 183.622 46.8109 185.509 46.8109C186.984 46.8109 188.232 47.5461 188.647 48.6032L181.092 51.7408ZM192.617 48.9231C191.914 47.0355 189.768 43.5462 185.382 43.5462C181.029 43.5462 177.412 46.9699 177.412 51.9971C177.412 56.7342 180.997 60.4479 185.798 60.4479C189.672 60.4479 191.914 58.0794 192.842 56.7024L189.96 54.7809C189.001 56.1897 187.687 57.1177 185.798 57.1177C183.91 57.1177 182.565 56.2533 181.7 54.5584L193.001 49.8829L192.617 48.9231ZM102.589 46.1393V49.7239H111.167C110.91 51.7408 110.239 53.2132 109.215 54.2365C107.965 55.4863 106.012 56.8633 102.589 56.8633C97.3051 56.8633 93.176 52.6051 93.176 47.3236C93.176 42.0401 97.3051 37.7838 102.589 37.7838C105.438 37.7838 107.518 38.9045 109.054 40.3451L111.584 37.8156C109.438 35.767 106.59 34.1973 102.589 34.1973C95.3538 34.1973 89.2715 40.0888 89.2715 47.3236C89.2715 54.5584 95.3538 60.4479 102.589 60.4479C106.493 60.4479 109.438 59.1663 111.743 56.766C114.113 54.3974 114.849 51.0691 114.849 48.3787C114.849 47.5461 114.785 46.7791 114.656 46.1393H102.589ZM124.603 57.1177C122.042 57.1177 119.832 55.0055 119.832 51.9971C119.832 48.9549 122.042 46.8745 124.603 46.8745C127.162 46.8745 129.372 48.9549 129.372 51.9971C129.372 55.0055 127.162 57.1177 124.603 57.1177ZM124.603 43.5462C119.927 43.5462 116.118 47.0991 116.118 51.9971C116.118 56.8633 119.927 60.4479 124.603 60.4479C129.276 60.4479 133.086 56.8633 133.086 51.9971C133.086 47.0991 129.276 43.5462 124.603 43.5462ZM143.108 57.1177C140.547 57.1177 138.337 55.0055 138.337 51.9971C138.337 48.9549 140.547 46.8745 143.108 46.8745C145.669 46.8745 147.877 48.9549 147.877 51.9971C147.877 55.0055 145.669 57.1177 143.108 57.1177ZM143.108 43.5462C138.435 43.5462 134.625 47.0991 134.625 51.9971C134.625 56.8633 138.435 60.4479 143.108 60.4479C147.782 60.4479 151.591 56.8633 151.591 51.9971C151.591 47.0991 147.782 43.5462 143.108 43.5462Z" fill="white"/>
</svg>
