<svg width="360" height="330" viewBox="0 0 360 330" fill="none" xmlns="http://www.w3.org/2000/svg">
<path fill-rule="evenodd" clip-rule="evenodd" d="M174.54 0.025071C212.735 -1.23844 230.399 45.5665 259.685 70.1179C294.569 99.3618 355.159 109.972 359.718 155.263C364.297 200.763 312.118 228.206 278.742 259.465C247.101 289.1 217.613 323.795 174.54 328.697C127.137 334.091 77.0934 320.178 43.5766 286.227C10.2227 252.44 -7.89991 201.393 3.32744 155.263C13.272 114.404 63.6944 103.817 94.8472 75.5708C123.036 50.0116 136.509 1.28313 174.54 0.025071Z" fill="#FAFAFA"/>
<path d="M124.546 295.695C122.146 295.687 119.757 295.378 117.435 294.775L116.977 294.649L116.552 294.436C101.199 286.738 88.2464 276.57 78.0539 264.215C69.6168 253.927 63.0388 242.247 58.6157 229.699C53.3265 214.675 50.7818 198.823 51.1032 182.899C51.1097 182.565 51.1152 182.307 51.1152 182.129C51.1152 174.389 55.4119 167.597 62.0615 164.826C67.1508 162.705 113.359 143.726 116.698 142.354C122.986 139.204 129.693 141.833 130.767 142.293C133.174 143.278 175.891 160.749 185.122 165.145C194.636 169.675 197.174 177.814 197.174 181.908C197.174 200.446 193.964 217.771 187.632 233.401C182.518 246.053 175.271 257.734 166.205 267.933C148.713 287.617 131.217 294.596 131.048 294.657C128.957 295.377 126.757 295.728 124.546 295.695ZM120.432 285.503C121.948 285.843 125.441 286.353 127.717 285.523C130.609 284.469 145.253 276.875 158.937 261.475C177.844 240.198 187.438 213.451 187.452 181.977C187.418 181.339 186.965 176.791 180.942 173.923C171.89 169.613 127.49 151.457 127.042 151.274L126.92 151.222C125.989 150.832 123.028 150.011 120.987 151.081L120.578 151.271C120.083 151.475 71.0323 171.621 65.801 173.801C62.1416 175.325 60.8377 179.103 60.8377 182.129C60.8377 182.35 60.832 182.672 60.8239 183.088C60.4058 204.624 65.3894 257.617 120.432 285.503Z" fill="#3F3D56"/>
<path d="M118.732 146.775C118.732 146.775 69.2358 167.104 63.9325 169.313C58.6293 171.523 55.9777 176.826 55.9777 182.129C55.9777 187.433 52.0003 256.632 118.732 290.09C118.732 290.09 124.789 291.766 129.384 290.09C133.979 288.414 192.314 260.131 192.314 181.908C192.314 181.908 192.314 173.954 183.034 169.534C173.753 165.115 128.883 146.775 128.883 146.775C128.883 146.775 123.373 144.344 118.732 146.775Z" fill="#6677FF"/>
<path opacity="0.1" d="M124.036 162.685V271.132C124.036 271.132 74.0971 247.094 74.539 183.897L124.036 162.685Z" fill="black"/>
<path d="M124.685 240.628L108.777 220.174L118.028 212.979L125.561 222.663L151.006 195.802L159.516 203.864L124.685 240.628Z" fill="white"/>
<path d="M251.26 105.393H87.4043V107.007H251.26V105.393Z" fill="#CCCCCC"/>
<path d="M87.3679 135.914C103.842 135.914 117.198 122.559 117.198 106.084C117.198 89.6097 103.842 76.2544 87.3679 76.2544C70.8934 76.2544 57.5381 89.6097 57.5381 106.084C57.5381 122.559 70.8934 135.914 87.3679 135.914Z" fill="#6C63FF"/>
<path d="M223.423 135.914C239.897 135.914 253.252 122.559 253.252 106.084C253.252 89.6097 239.897 76.2544 223.423 76.2544C206.948 76.2544 193.593 89.6097 193.593 106.084C193.593 122.559 206.948 135.914 223.423 135.914Z" fill="#FFAC30"/>
<path d="M85.0724 114.979C84.5484 114.979 84.0384 114.809 83.6195 114.494L83.5937 114.475L78.1186 110.287C77.6066 109.895 77.2714 109.315 77.187 108.675C77.1025 108.035 77.2756 107.388 77.6682 106.876C78.0608 106.364 78.6408 106.029 79.2805 105.945C79.9202 105.86 80.5673 106.033 81.0793 106.426L84.6252 109.145L93.0045 98.2129C93.3969 97.7011 93.9766 97.3662 94.616 97.2817C95.2554 97.1972 95.9021 97.3702 96.414 97.7625L96.3623 97.8344L96.4156 97.7625C96.927 98.1555 97.2615 98.7353 97.3458 99.3747C97.4301 100.014 97.2572 100.661 96.8652 101.173L87.0088 114.025C86.7805 114.322 86.487 114.562 86.151 114.726C85.815 114.89 85.4457 114.975 85.0716 114.974L85.0724 114.979Z" fill="white"/>
<path d="M106.469 245.246L106.469 245.246C105.895 245.246 105.345 245.475 104.939 245.88C104.534 246.286 104.306 246.836 104.305 247.41V247.41L104.305 287.956L104.305 287.956C104.305 288.53 104.534 289.08 104.939 289.486C105.345 289.891 105.895 290.12 106.469 290.12H106.469H269.922H269.922C270.496 290.12 271.046 289.891 271.452 289.486C271.857 289.08 272.085 288.53 272.086 287.956V287.956V247.41V247.409C272.085 246.836 271.857 246.285 271.452 245.88C271.046 245.474 270.496 245.246 269.922 245.245L269.922 245.245L106.469 245.246ZM269.921 290.634H106.47C105.759 290.633 105.078 290.351 104.576 289.848C104.074 289.346 103.791 288.665 103.79 287.955V247.41C103.791 246.7 104.074 246.019 104.576 245.517C105.078 245.014 105.759 244.732 106.469 244.731H269.921C270.632 244.732 271.313 245.014 271.815 245.517C272.317 246.019 272.6 246.7 272.6 247.41V287.955C272.6 288.665 272.317 289.346 271.815 289.848C271.312 290.351 270.632 290.633 269.921 290.634Z" fill="#FDFDFD" stroke="#BFBFBF" stroke-width="0.696105"/>
<path d="M160.345 257.906C159.8 257.906 159.277 258.123 158.892 258.508C158.507 258.894 158.29 259.416 158.29 259.961C158.29 260.506 158.507 261.029 158.892 261.414C159.277 261.8 159.8 262.016 160.345 262.016H257.223C257.768 262.016 258.291 261.8 258.676 261.414C259.061 261.029 259.278 260.506 259.278 259.961C259.278 259.416 259.061 258.894 258.676 258.508C258.291 258.123 257.768 257.906 257.223 257.906H160.345Z" fill="#BFBFBF"/>
<path d="M160.345 270.237C159.8 270.237 159.277 270.453 158.892 270.839C158.507 271.224 158.29 271.747 158.29 272.292C158.29 272.837 158.507 273.36 158.892 273.745C159.277 274.13 159.8 274.347 160.345 274.347H202.032C202.577 274.347 203.099 274.13 203.485 273.745C203.87 273.36 204.087 272.837 204.087 272.292C204.087 271.747 203.87 271.224 203.485 270.839C203.099 270.453 202.577 270.237 202.032 270.237H160.345Z" fill="#BFBFBF"/>
<path d="M131.983 278.363C138.793 278.363 144.313 272.842 144.313 266.033C144.313 259.223 138.793 253.703 131.983 253.703C125.174 253.703 119.653 259.223 119.653 266.033C119.653 272.842 125.174 278.363 131.983 278.363Z" fill="white"/>
<path d="M130.046 272.885C129.632 272.886 129.228 272.751 128.897 272.503L128.876 272.487L124.549 269.177C124.144 268.866 123.879 268.408 123.812 267.902C123.745 267.396 123.881 266.884 124.192 266.479C124.502 266.074 124.961 265.809 125.466 265.742C125.972 265.675 126.484 265.812 126.889 266.122L129.692 268.271L136.316 259.63C136.626 259.225 137.084 258.96 137.59 258.894C138.095 258.827 138.606 258.963 139.011 259.273L138.97 259.33L139.013 259.273C139.417 259.584 139.681 260.042 139.748 260.548C139.815 261.053 139.678 261.564 139.368 261.969L131.578 272.135C131.397 272.369 131.166 272.558 130.9 272.688C130.635 272.818 130.343 272.885 130.048 272.884L130.046 272.885Z" fill="#6C63FF"/>
</svg>
