<svg width="141" height="140" viewBox="0 0 141 140" fill="none" xmlns="http://www.w3.org/2000/svg">
<g clip-path="url(#clip0_348_126)">
<g filter="url(#filter0_d_348_126)">
<path d="M128.833 46.6667V87.5C128.835 94.2238 126.513 100.742 122.261 105.95C118.009 111.159 112.088 114.739 105.5 116.083V116.667C105.5 118.214 104.885 119.698 103.791 120.791C102.697 121.885 101.214 122.5 99.6666 122.5C98.1195 122.5 96.6358 121.885 95.5418 120.791C94.4479 119.698 93.8333 118.214 93.8333 116.667H43.6666C43.6666 118.214 43.0521 119.698 41.9581 120.791C40.8641 121.885 39.3804 122.5 37.8333 122.5C36.2862 122.5 34.8025 121.885 33.7085 120.791C32.6145 119.698 32 118.214 32 116.667V115.092C26.2257 113.141 21.2075 109.431 17.6502 104.482C14.0929 99.5336 12.1753 93.5947 12.1666 87.5V46.6667C12.1666 38.9312 15.2395 31.5125 20.7093 26.0427C26.1792 20.5729 33.5978 17.5 41.3333 17.5H99.6666C107.402 17.5 114.821 20.5729 120.291 26.0427C125.76 31.5125 128.833 38.9312 128.833 46.6667Z" fill="#D9DDFF"/>
<path d="M61.7499 55.9413C61.7581 57.9971 61.2229 60.0185 60.1985 61.801C59.1742 63.5834 57.697 65.0634 55.9166 66.0913V85.108C55.9166 86.6551 55.302 88.1388 54.2081 89.2328C53.1141 90.3267 51.6304 90.9413 50.0833 90.9413C48.5362 90.9413 47.0525 90.3267 45.9585 89.2328C44.8645 88.1388 44.2499 86.6551 44.2499 85.108V66.033C42.4759 65.0088 41.0029 63.5355 39.9789 61.7614C38.9549 59.9873 38.4161 57.9748 38.4166 55.9264C38.4172 53.8779 38.957 51.8657 39.9819 50.0921C41.0068 48.3185 42.4806 46.846 44.2551 45.8227C46.0297 44.7994 48.0423 44.2614 50.0908 44.2627C52.1392 44.264 54.1512 44.8046 55.9244 45.8302C57.6976 46.8558 59.1695 48.3302 60.1921 50.1051C61.2148 51.88 61.752 53.8929 61.7499 55.9413Z" fill="#6677FF"/>
<path d="M96.8083 55.4167C95.2612 55.4167 93.7775 54.8021 92.6835 53.7081C91.5896 52.6142 90.975 51.1304 90.975 49.5833C90.975 48.0362 91.5896 46.5525 92.6835 45.4585C93.7775 44.3646 95.2612 43.75 96.8083 43.75C98.3554 43.75 99.8391 44.3646 100.933 45.4585C102.027 46.5525 102.642 48.0362 102.642 49.5833C102.642 51.1304 102.027 52.6142 100.933 53.7081C99.8391 54.8021 98.3554 55.4167 96.8083 55.4167Z" fill="#6677FF"/>
<path d="M96.8083 90.4167C95.2612 90.4167 93.7775 89.8021 92.6835 88.7081C91.5896 87.6142 90.975 86.1304 90.975 84.5833C90.975 83.0362 91.5896 81.5525 92.6835 80.4585C93.7775 79.3646 95.2612 78.75 96.8083 78.75C98.3554 78.75 99.8391 79.3646 100.933 80.4585C102.027 81.5525 102.642 83.0362 102.642 84.5833C102.642 86.1304 102.027 87.6142 100.933 88.7081C99.8391 89.8021 98.3554 90.4167 96.8083 90.4167Z" fill="#6677FF"/>
<path d="M96.8083 72.9167C95.2612 72.9167 93.7775 72.3021 92.6835 71.2081C91.5896 70.1142 90.975 68.6304 90.975 67.0833C90.975 65.5362 91.5896 64.0525 92.6835 62.9585C93.7775 61.8646 95.2612 61.25 96.8083 61.25C98.3554 61.25 99.8391 61.8646 100.933 62.9585C102.027 64.0525 102.642 65.5362 102.642 67.0833C102.642 68.6304 102.027 70.1142 100.933 71.2081C99.8391 72.3021 98.3554 72.9167 96.8083 72.9167Z" fill="#6677FF"/>
<path d="M79.3083 55.4167C77.7612 55.4167 76.2775 54.8021 75.1835 53.7081C74.0896 52.6142 73.475 51.1304 73.475 49.5833C73.475 48.0362 74.0896 46.5525 75.1835 45.4585C76.2775 44.3646 77.7612 43.75 79.3083 43.75C80.8554 43.75 82.3391 44.3646 83.4331 45.4585C84.5271 46.5525 85.1416 48.0362 85.1416 49.5833C85.1416 51.1304 84.5271 52.6142 83.4331 53.7081C82.3391 54.8021 80.8554 55.4167 79.3083 55.4167Z" fill="#6677FF"/>
<path d="M79.3083 90.4167C77.7612 90.4167 76.2775 89.8021 75.1835 88.7081C74.0896 87.6142 73.475 86.1304 73.475 84.5833C73.475 83.0362 74.0896 81.5525 75.1835 80.4585C76.2775 79.3646 77.7612 78.75 79.3083 78.75C80.8554 78.75 82.3391 79.3646 83.4331 80.4585C84.5271 81.5525 85.1416 83.0362 85.1416 84.5833C85.1416 86.1304 84.5271 87.6142 83.4331 88.7081C82.3391 89.8021 80.8554 90.4167 79.3083 90.4167Z" fill="#6677FF"/>
<path d="M79.3083 72.9167C77.7612 72.9167 76.2775 72.3021 75.1835 71.2081C74.0896 70.1142 73.475 68.6304 73.475 67.0833C73.475 65.5362 74.0896 64.0525 75.1835 62.9585C76.2775 61.8646 77.7612 61.25 79.3083 61.25C80.8554 61.25 82.3391 61.8646 83.4331 62.9585C84.5271 64.0525 85.1416 65.5362 85.1416 67.0833C85.1416 68.6304 84.5271 70.1142 83.4331 71.2081C82.3391 72.3021 80.8554 72.9167 79.3083 72.9167Z" fill="#6677FF"/>
</g>
</g>
<defs>
<filter id="filter0_d_348_126" x="-11.8334" y="-2.5" width="164.667" height="153" filterUnits="userSpaceOnUse" color-interpolation-filters="sRGB">
<feFlood flood-opacity="0" result="BackgroundImageFix"/>
<feColorMatrix in="SourceAlpha" type="matrix" values="0 0 0 0 0 0 0 0 0 0 0 0 0 0 0 0 0 0 127 0" result="hardAlpha"/>
<feOffset dy="4"/>
<feGaussianBlur stdDeviation="12"/>
<feComposite in2="hardAlpha" operator="out"/>
<feColorMatrix type="matrix" values="0 0 0 0 0.4 0 0 0 0 0.466667 0 0 0 0 1 0 0 0 0.2 0"/>
<feBlend mode="normal" in2="BackgroundImageFix" result="effect1_dropShadow_348_126"/>
<feBlend mode="normal" in="SourceGraphic" in2="effect1_dropShadow_348_126" result="shape"/>
</filter>
<clipPath id="clip0_348_126">
<rect width="140" height="140" fill="white" transform="translate(0.5)"/>
</clipPath>
</defs>
</svg>
