<svg width="141" height="140" viewBox="0 0 141 140" fill="none" xmlns="http://www.w3.org/2000/svg">
<g clip-path="url(#clip0_348_133)">
<g filter="url(#filter0_d_348_133)">
<path d="M122.999 43.2962V77.1419C123.006 83.4784 121.539 89.7297 118.714 95.4013C115.889 101.073 111.784 106.009 106.724 109.82L91.0905 121.491C85.1399 125.925 77.9183 128.319 70.4988 128.319C63.0793 128.319 55.8578 125.925 49.9072 121.491L34.3322 109.82C29.2775 106 25.1735 101.063 22.3403 95.3945C19.5071 89.726 18.0213 83.4794 17.9988 77.1419V43.2962C17.9975 38.3176 19.5874 33.4689 22.5364 29.4585C25.4854 25.448 29.639 22.4859 34.3905 21.0048L58.5405 13.5354C66.4746 11.0248 74.9898 11.0248 82.9238 13.5354L106.841 21.0048C111.548 22.5267 115.651 25.5063 118.555 29.5132C121.46 33.52 123.016 38.3468 122.999 43.2962Z" fill="#D9DDFF"/>
<path d="M64.6658 81.6678C63.8981 81.6722 63.1371 81.525 62.4264 81.2348C61.7157 80.9445 61.0692 80.5167 60.5242 79.9761L48.8575 68.3094C47.7591 67.211 47.142 65.7212 47.142 64.1678C47.142 62.6143 47.7591 61.1245 48.8575 60.0261C49.9559 58.9277 51.4457 58.3106 52.9992 58.3106C54.5526 58.3106 56.0424 58.9277 57.1408 60.0261L64.6658 67.6094L83.8575 48.3594C84.9559 47.261 86.4458 46.6439 87.9992 46.6439C89.5526 46.6439 91.0424 47.261 92.1408 48.3594C93.2393 49.4579 93.8564 50.9477 93.8564 52.5011C93.8564 54.0545 93.2393 55.5443 92.1408 56.6428L68.8075 79.9761C68.2624 80.5167 67.616 80.9445 66.9053 81.2348C66.1946 81.525 65.4335 81.6722 64.6658 81.6678Z" fill="#6677FF"/>
</g>
</g>
<defs>
<filter id="filter0_d_348_133" x="-6.00116" y="-8.34757" width="153" height="164.667" filterUnits="userSpaceOnUse" color-interpolation-filters="sRGB">
<feFlood flood-opacity="0" result="BackgroundImageFix"/>
<feColorMatrix in="SourceAlpha" type="matrix" values="0 0 0 0 0 0 0 0 0 0 0 0 0 0 0 0 0 0 127 0" result="hardAlpha"/>
<feOffset dy="4"/>
<feGaussianBlur stdDeviation="12"/>
<feComposite in2="hardAlpha" operator="out"/>
<feColorMatrix type="matrix" values="0 0 0 0 0.4 0 0 0 0 0.466667 0 0 0 0 1 0 0 0 0.2 0"/>
<feBlend mode="normal" in2="BackgroundImageFix" result="effect1_dropShadow_348_133"/>
<feBlend mode="normal" in="SourceGraphic" in2="effect1_dropShadow_348_133" result="shape"/>
</filter>
<clipPath id="clip0_348_133">
<rect width="140" height="140" fill="white" transform="translate(0.5)"/>
</clipPath>
</defs>
</svg>
