<svg width="300" height="300" viewBox="0 0 300 300" fill="none" xmlns="http://www.w3.org/2000/svg">
<g clip-path="url(#clip0_435_44)">
<path d="M150 300C230.705 300 296.129 234.576 296.129 153.871C296.129 73.1655 230.705 7.74121 150 7.74121C69.2949 7.74121 3.87061 73.1655 3.87061 153.871C3.87061 234.576 69.2949 300 150 300Z" fill="#FF556A"/>
<path d="M178.397 35.1655C164.45 35.1655 83.0579 35.1655 70.8769 35.1655C55.1796 35.1655 42.2368 47.9413 42.2368 63.8056C42.2368 66.0052 42.2368 84.0474 42.2368 109.179C42.2368 150.775 42.2368 211.795 42.2368 252.56C68.9521 281.715 107.339 300 150 300C170.237 300 189.512 295.884 207.036 288.448C207.036 224.817 207.036 169.554 207.036 63.8056C207.036 48.0134 194.189 35.1655 178.397 35.1655Z" fill="#647892"/>
<path d="M73.4403 63.8051C73.4403 47.9607 86.3603 35.165 102.08 35.165C92.6403 35.165 80.28 35.165 70.8769 35.165C55.1796 35.165 42.2368 47.9408 42.2368 63.8051C42.2368 66.0047 42.2368 84.0469 42.2368 109.178C42.2368 150.775 42.2368 211.795 42.2368 252.56C51.371 262.529 61.8722 271.225 73.4403 278.355C73.4403 235.39 73.4403 137.23 73.4403 63.8051Z" fill="#4D6682"/>
<path d="M178.397 51.0332H164.997C162.359 51.0332 160.219 53.1719 160.218 55.8098V58.8438C160.218 62.9102 156.89 66.2365 152.825 66.2365H96.4508C92.3844 66.2365 89.0574 62.9096 89.0574 58.8438V55.8098C89.0557 53.1719 86.9164 51.0332 84.2779 51.0332H70.8781C63.824 51.0332 58.1064 56.752 58.1064 63.8055V267.482C83.2092 287.813 115.179 300 150 300C164.297 300 178.11 297.938 191.169 294.11C191.169 277.629 191.169 74.043 191.169 63.8055C191.169 56.752 185.451 51.0332 178.397 51.0332Z" fill="#8996FF"/>
<path d="M73.4401 63.8049C73.4401 59.4953 74.4093 55.1225 76.456 51.0332H70.8767C63.8226 51.0332 58.105 56.752 58.105 63.8055V267.479C62.9765 271.418 67.9001 274.927 73.4407 278.347C73.4401 235.381 73.4401 137.231 73.4401 63.8049Z" fill="#6F7FFF"/>
<path d="M124.64 208.111C147.878 208.111 166.716 189.273 166.716 166.035C166.716 142.797 147.878 123.959 124.64 123.959C101.402 123.959 82.5635 142.797 82.5635 166.035C82.5635 189.273 101.402 208.111 124.64 208.111Z" fill="#EFEFEF"/>
<path d="M103.436 178.274C93.3252 160.764 97.2387 139.011 111.682 126C108.922 126.896 106.213 128.085 103.599 129.595C83.4738 141.213 76.5791 166.947 88.1977 187.072C99.8162 207.197 125.55 214.092 145.675 202.474C148.289 200.964 150.674 199.213 152.83 197.271C134.341 203.273 113.545 195.786 103.436 178.274Z" fill="#DDDDDD"/>
<path d="M142.348 55.6545H123.151C120.6 55.6545 118.531 53.5861 118.531 51.0338C118.531 48.482 120.599 46.4131 123.151 46.4131H142.348C144.9 46.4131 146.969 48.4814 146.969 51.0338C146.969 53.5855 144.9 55.6545 142.348 55.6545Z" fill="#4D6682"/>
<path d="M106.923 55.6571C103.995 55.6571 101.811 52.9313 102.394 50.1311C102.941 47.5061 105.422 46.0301 107.828 46.5024C110.039 46.9612 111.543 48.8637 111.543 51.0369C111.544 53.6297 109.417 55.6571 106.923 55.6571Z" fill="#4D6682"/>
<path d="M128 290.726H121.273C118.721 290.726 116.652 288.657 116.652 286.105C116.652 283.553 118.721 281.484 121.273 281.484H128C130.552 281.484 132.621 283.553 132.621 286.105C132.621 288.657 130.553 290.726 128 290.726Z" fill="#48AEF9"/>
<path d="M124.637 188.142C117.892 188.142 112.423 182.674 112.423 175.928V155.702C112.423 148.956 117.892 143.488 124.637 143.488C131.383 143.488 136.851 148.956 136.851 155.702V175.928C136.85 182.673 131.383 188.142 124.637 188.142Z" fill="#DDDDDD"/>
<path d="M124.637 175.928V155.701C124.637 151.183 127.096 147.247 130.744 145.134C128.946 144.093 126.864 143.487 124.637 143.487C117.891 143.487 112.423 148.955 112.423 155.701V175.927C112.423 182.673 117.891 188.141 124.637 188.141C126.864 188.141 128.946 187.535 130.744 186.493C127.097 184.382 124.637 180.447 124.637 175.928Z" fill="#CCCCCC"/>
<path d="M102.119 250.349C99.5125 250.349 97.498 248.202 97.498 245.729C97.498 243.225 99.5342 241.108 102.119 241.108C104.917 241.108 107.206 243.617 106.654 246.634C106.172 248.897 104.24 250.349 102.119 250.349Z" fill="#A4D9F4"/>
<path d="M124.637 250.349C122.063 250.349 120.017 248.252 120.017 245.729C120.017 242.775 122.745 240.617 125.537 241.2C127.6 241.587 129.258 243.45 129.258 245.729C129.257 248.238 127.217 250.349 124.637 250.349Z" fill="#A4D9F4"/>
<path d="M147.149 250.349C144.533 250.349 142.528 248.2 142.528 245.728C142.528 242.834 145.204 240.611 148.054 241.2C150.178 241.597 151.769 243.519 151.769 245.728C151.77 248.257 149.731 250.349 147.149 250.349Z" fill="#A4D9F4"/>
<path d="M241.789 51.0738C241.789 55.4338 236.546 59.0473 235.472 63.0686C234.36 67.2293 237.06 72.9732 234.952 76.616C232.814 80.3115 226.47 80.8313 223.471 83.8301C220.472 86.8289 219.952 93.1734 216.257 95.3109C212.614 97.4191 206.87 94.718 202.709 95.8307C198.688 96.9053 195.074 102.148 190.714 102.148C186.354 102.148 182.741 96.9059 178.72 95.8307C174.559 94.7186 168.815 97.4191 165.172 95.3109C161.477 93.1729 160.957 86.8289 157.958 83.8295C154.959 80.8307 148.615 80.3104 146.477 76.6154C144.369 72.9727 147.07 67.2287 145.958 63.068C144.882 59.0467 139.641 55.4332 139.641 51.0732C139.641 46.7133 144.883 43.0998 145.958 39.0785C147.07 34.9178 144.369 29.1738 146.477 25.5305C148.615 21.8355 154.959 21.3152 157.959 18.3164C160.958 15.3176 161.478 8.97305 165.173 6.83555C168.816 4.72793 174.56 7.42852 178.72 6.31582C182.742 5.2418 186.354 0 190.715 0C195.075 0 198.688 5.2418 202.71 6.31699C206.871 7.4291 212.614 4.72852 216.257 6.83672C219.953 8.9748 220.472 15.3188 223.471 18.3182C226.47 21.317 232.815 21.8373 234.953 25.5322C237.061 29.175 234.36 34.9189 235.472 39.0797C236.546 43.1004 241.789 46.7139 241.789 51.0738Z" fill="#2FCC63"/>
<path d="M217.495 124.612C199.07 123.84 183.14 134.926 176.684 150.864C176.246 151.945 175.201 152.656 174.035 152.656H155.013C154.321 152.656 153.652 152.901 153.124 153.349L148.18 157.545C147.58 158.055 146.818 158.334 146.03 158.334H112.423V174.969H171.798C173.291 174.969 174.621 175.961 175.001 177.405C179.753 195.433 196.166 208.728 215.687 208.728C239.147 208.728 258.123 189.528 257.758 165.984C257.415 143.833 239.629 125.539 217.495 124.612ZM240.81 173.578C240.81 180.383 235.293 185.901 228.488 185.901C221.683 185.901 216.165 180.384 216.165 173.578V159.722C216.165 152.916 221.682 147.399 228.488 147.399C235.293 147.399 240.81 152.916 240.81 159.722V173.578Z" fill="#FAC149"/>
<path d="M185.389 68.2231C183.618 68.2231 181.92 67.52 180.668 66.2678L171.442 57.0422C168.836 54.4354 168.836 50.2084 171.442 47.601C174.049 44.9948 178.277 44.9948 180.884 47.601L185.389 52.1063L198.41 39.085C201.017 36.4782 205.244 36.4782 207.851 39.085C210.458 41.6918 210.458 45.9188 207.851 48.5262L190.11 66.2684C188.857 67.52 187.159 68.2231 185.389 68.2231Z" fill="#EFEFEF"/>
<path d="M231.723 201.591C208.485 201.591 189.647 182.754 189.647 159.515C189.647 145.521 196.484 133.13 206.995 125.48C193.187 128.383 181.874 138.053 176.684 150.863C176.246 151.944 175.202 152.655 174.036 152.655H155.013C154.321 152.655 153.652 152.901 153.124 153.349L148.181 157.544C147.58 158.053 146.818 158.333 146.03 158.333H112.423V174.968H171.798C173.292 174.968 174.621 175.959 175.001 177.404C179.753 195.432 196.166 208.726 215.687 208.726C224.927 208.726 233.465 205.739 240.406 200.69C237.603 201.277 234.7 201.591 231.723 201.591Z" fill="#F8A748"/>
</g>
<defs>
<clipPath id="clip0_435_44">
<rect width="300" height="300" fill="white"/>
</clipPath>
</defs>
</svg>
