<svg width="141" height="140" viewBox="0 0 141 140" fill="none" xmlns="http://www.w3.org/2000/svg">
<g clip-path="url(#clip0_348_112)">
<g filter="url(#filter0_d_348_112)">
<path d="M70.5001 134.167C94.6626 134.167 114.25 114.579 114.25 90.4167C114.25 66.2542 94.6626 46.6667 70.5001 46.6667C46.3377 46.6667 26.7501 66.2542 26.7501 90.4167C26.7501 114.579 46.3377 134.167 70.5001 134.167Z" fill="#CFF5B1"/>
<path d="M74.8166 72.6832L77.6166 78.5166C77.9737 79.2168 78.494 79.8208 79.1336 80.2777C79.7732 80.7346 80.5134 81.0309 81.2916 81.1416L87.5916 82.0749C88.4788 82.2094 89.3112 82.5879 89.9958 83.168C90.6805 83.7481 91.1904 84.5071 91.4688 85.3602C91.7471 86.2133 91.7828 87.127 91.572 87.9993C91.3612 88.8716 90.9121 89.6681 90.2749 90.2999L85.6666 94.7332C85.1176 95.2833 84.7091 95.9574 84.4756 96.6985C84.2421 97.4397 84.1904 98.2262 84.3249 98.9916L85.3749 105C85.5415 105.89 85.452 106.809 85.1167 107.651C84.7814 108.492 84.2141 109.221 83.4809 109.753C82.7476 110.284 81.8785 110.597 80.9746 110.654C80.0707 110.711 79.1692 110.51 78.3749 110.075L72.5416 107.1C71.8533 106.756 71.0944 106.577 70.3249 106.577C69.5554 106.577 68.7965 106.756 68.1082 107.1L62.2749 110.075C61.493 110.417 60.6338 110.544 59.7864 110.442C58.939 110.34 58.1344 110.013 57.4559 109.495C56.7774 108.977 56.2499 108.287 55.9279 107.497C55.6059 106.707 55.5013 105.844 55.6249 105L56.6749 99.1666C56.8094 98.4012 56.7577 97.6147 56.5242 96.8735C56.2907 96.1324 55.8822 95.4583 55.3332 94.9083L50.7249 90.4749C50.0877 89.8431 49.6386 89.0466 49.4278 88.1743C49.217 87.302 49.2527 86.3883 49.5311 85.5352C49.8094 84.6821 50.3193 83.9231 51.004 83.343C51.6886 82.7629 52.521 82.3844 53.4082 82.2499L59.7082 81.3166C60.4864 81.2059 61.2266 80.9096 61.8662 80.4527C62.5058 79.9958 63.0261 79.3918 63.3832 78.6916L66.1832 72.8582C66.5717 72.0528 67.1756 71.3706 67.9281 70.8874C68.6805 70.4041 69.5521 70.1387 70.4462 70.1206C71.3403 70.1025 72.2219 70.3323 72.9933 70.7847C73.7647 71.237 74.3958 71.8942 74.8166 72.6832Z" fill="#00CC87"/>
<path d="M117.167 20.4166V35C117.173 36.9168 116.801 38.8161 116.07 40.5881C115.339 42.3602 114.264 43.9701 112.908 45.325L106.142 51.8583C96.4402 42.8882 83.7131 37.906 70.5001 37.906C57.2871 37.906 44.56 42.8882 34.8584 51.8583L28.0918 45.0916C25.4098 42.4124 23.8815 38.7907 23.8334 35V20.4166C23.8334 16.5489 25.3699 12.8396 28.1048 10.1047C30.8397 7.36977 34.549 5.83331 38.4168 5.83331H102.583C106.451 5.83331 110.16 7.36977 112.895 10.1047C115.63 12.8396 117.167 16.5489 117.167 20.4166Z" fill="#00CC87"/>
</g>
</g>
<defs>
<filter id="filter0_d_348_112" x="-11.1666" y="-17.1667" width="163.333" height="198.333" filterUnits="userSpaceOnUse" color-interpolation-filters="sRGB">
<feFlood flood-opacity="0" result="BackgroundImageFix"/>
<feColorMatrix in="SourceAlpha" type="matrix" values="0 0 0 0 0 0 0 0 0 0 0 0 0 0 0 0 0 0 127 0" result="hardAlpha"/>
<feOffset dy="12"/>
<feGaussianBlur stdDeviation="17.5"/>
<feComposite in2="hardAlpha" operator="out"/>
<feColorMatrix type="matrix" values="0 0 0 0 0.556863 0 0 0 0 0.878431 0 0 0 0 0.305882 0 0 0 0.2 0"/>
<feBlend mode="normal" in2="BackgroundImageFix" result="effect1_dropShadow_348_112"/>
<feBlend mode="normal" in="SourceGraphic" in2="effect1_dropShadow_348_112" result="shape"/>
</filter>
<clipPath id="clip0_348_112">
<rect width="140" height="140" fill="white" transform="translate(0.500122 -1.52588e-05)"/>
</clipPath>
</defs>
</svg>
