<svg width="200" height="200" viewBox="0 0 200 200" fill="none" xmlns="http://www.w3.org/2000/svg">
<g clip-path="url(#clip0_378_1765)">
<path d="M56.0152 176.171L50.8086 165.307C50.5699 164.809 50.196 164.389 49.7285 164.095L49.6625 164.053C48.7605 163.484 47.6207 163.451 46.6863 163.966C42.6703 166.182 39.7492 168.308 37.8047 169.912L27.7621 150.73C27.3766 149.993 26.6961 149.455 25.8902 149.25C25.0856 149.045 24.2297 149.192 23.5387 149.654L1.29966 164.538C0.450051 165.107 -0.0417452 166.078 0.00278597 167.099C0.0473171 168.121 0.621144 169.045 1.51763 169.538L17.9024 178.55V196.65C17.9024 197.701 18.466 198.672 19.3789 199.193C19.8293 199.45 20.3301 199.579 20.8313 199.579C21.3461 199.579 21.8613 199.443 22.3203 199.172L54.8632 179.959C56.1714 179.186 56.6718 177.542 56.0152 176.171Z" fill="#6677FF"/>
<path d="M198.701 164.538L176.462 149.654C175.771 149.191 174.915 149.045 174.11 149.25C173.304 149.455 172.624 149.993 172.238 150.73L162.196 169.912C160.251 168.308 157.33 166.182 153.314 163.966C152.38 163.451 151.24 163.484 150.338 164.053L150.272 164.095C149.804 164.389 149.431 164.809 149.192 165.307L143.985 176.171C143.329 177.541 143.829 179.186 145.138 179.959L177.68 199.171C178.139 199.442 178.654 199.578 179.169 199.578C179.67 199.578 180.171 199.45 180.622 199.193C181.534 198.671 182.098 197.7 182.098 196.649V178.55L198.483 169.538C199.379 169.045 199.953 168.121 199.998 167.099C200.042 166.077 199.551 165.107 198.701 164.538Z" fill="#6677FF"/>
<path d="M43.1515 129.105C42.4508 127.658 40.7136 127.046 39.2601 127.735C25.0313 134.483 18.8586 141.603 18.6031 141.903C17.827 142.812 17.682 144.103 18.236 145.162L34.3871 176.013C34.8336 176.865 35.6738 177.439 36.6285 177.557C36.7472 177.571 36.8652 177.578 36.9832 177.578C37.8152 177.578 38.6187 177.221 39.1785 176.592C39.1953 176.573 40.8937 174.682 44.5593 172.149C47.9468 169.809 53.7546 166.428 62.187 163.607C63.1359 163.29 63.8566 162.51 64.0991 161.54C64.3417 160.57 64.0726 159.543 63.3851 158.817C55.4382 150.418 48.63 140.422 43.1515 129.105Z" fill="#6677FF"/>
<path d="M181.396 141.902C181.141 141.602 174.968 134.483 160.74 127.735C159.286 127.046 157.55 127.657 156.849 129.105C151.369 140.423 144.561 150.419 136.614 158.816C135.927 159.542 135.657 160.57 135.9 161.54C136.143 162.51 136.864 163.29 137.812 163.607C146.245 166.428 152.052 169.809 155.44 172.149C159.106 174.681 160.804 176.572 160.813 176.582C161.373 177.222 162.178 177.583 163.018 177.583C163.132 177.583 163.248 177.576 163.363 177.563C164.323 177.449 165.165 176.869 165.613 176.013L181.764 145.162C182.318 144.103 182.173 142.813 181.396 141.902Z" fill="#E93234"/>
<path d="M181.396 141.902C181.141 141.602 174.968 134.483 160.74 127.735C159.286 127.046 157.55 127.657 156.849 129.105C151.369 140.423 144.561 150.419 136.614 158.816C135.927 159.542 135.657 160.57 135.9 161.54C136.143 162.51 136.864 163.29 137.812 163.607C146.245 166.428 152.052 169.809 155.44 172.149C159.106 174.681 160.804 176.572 160.813 176.582C161.373 177.222 162.178 177.583 163.018 177.583C163.132 177.583 163.248 177.576 163.363 177.563C164.323 177.449 165.165 176.869 165.613 176.013L181.764 145.162C182.318 144.103 182.173 142.813 181.396 141.902Z" fill="#6677FF"/>
<path d="M178.996 32.8246C178.854 31.4445 177.763 30.3535 176.383 30.2113C153.072 27.8066 134.073 20.0324 122.24 13.9348C109.376 7.30626 101.95 1.16369 101.878 1.10393C100.791 0.195337 99.2089 0.195337 98.1214 1.10393C97.8292 1.34846 68.3691 25.5949 23.6165 30.2117C22.2364 30.3543 21.1458 31.4449 21.0036 32.825C20.877 34.0562 17.9907 63.3749 25.9934 97.5198C30.7141 117.66 38.2735 135.235 48.4617 149.755C61.2606 167.997 78.2367 181.418 98.9171 189.644C99.2652 189.782 99.632 189.852 99.9995 189.852C100.367 189.852 100.734 189.782 101.082 189.644C121.762 181.418 138.739 167.997 151.537 149.755C161.726 135.235 169.285 117.66 174.006 97.5198C182.009 63.3745 179.122 34.0558 178.996 32.8246Z" fill="#00ED9D"/>
<path d="M160.872 47.5971C160.73 46.2171 159.64 45.1261 158.259 44.9839C124.472 41.4983 102.099 23.1519 101.879 22.9687C100.792 22.0601 99.2096 22.0601 98.1221 22.9687C97.9014 23.1534 75.6233 41.4886 41.7417 44.9839C40.3617 45.1264 39.271 46.2171 39.1288 47.5971C39.032 48.5397 36.8218 70.9877 42.9448 97.1111C46.5612 112.541 52.3566 126.01 60.1686 137.145C69.9983 151.154 83.0358 161.461 98.9178 167.779C99.2658 167.918 99.6326 167.987 100 167.987C100.368 167.987 100.735 167.918 101.083 167.779C116.965 161.461 130.002 151.154 139.832 137.145C147.645 126.01 153.44 112.541 157.056 97.1111C163.179 70.9869 160.969 48.5397 160.872 47.5971Z" fill="#00CC87"/>
<path fill-rule="evenodd" clip-rule="evenodd" d="M112.2 82.6329C112.183 82.3108 112.166 82.0057 112.149 81.7175C112.048 80.056 111.692 78.4285 111.081 76.8857C106.182 64.5435 104.419 57.1347 103.842 53.7101C103.757 53.1676 103.707 52.9472 103.622 52.7777C103.469 52.5064 103.198 52.286 102.927 52.1673C102.842 52.1334 102.723 52.0826 102.605 52.0487C102.164 51.8961 101.706 51.7774 101.401 51.7096C101.13 51.6418 100.841 51.7096 100.621 51.8791C100.418 52.0487 100.299 52.3199 100.299 52.5912V54.1848V67.2221C100.943 67.3238 101.621 67.5612 102.215 67.9003C103.164 68.4428 103.757 69.1887 103.893 69.9686C104.571 74.3596 106.08 81.5988 107.148 83.1585C107.301 83.3959 107.25 83.718 107.012 83.8706C106.928 83.9384 106.826 83.9553 106.724 83.9553C106.555 83.9553 106.402 83.8706 106.3 83.7349C105.08 81.9378 103.554 74.4274 102.893 70.1212C102.774 69.3583 101.774 68.6801 100.723 68.358C100.519 68.2902 100.316 68.4428 100.316 68.6632V91.1437V98.8575C100.316 98.9423 100.384 99.6205 100.807 100.434C101.401 101.604 102.401 102.503 103.774 103.13C104.402 103.418 105.131 103.723 105.927 104.062C108.182 105.029 110.691 106.097 112.302 107.131L116.049 96.3315C114.608 94.5344 113.607 92.2795 112.997 89.4483C112.421 86.9392 112.285 84.447 112.2 82.6329Z" fill="white"/>
<path fill-rule="evenodd" clip-rule="evenodd" d="M122.39 114.167L128.408 96.857L118.575 93.1781L112.557 110.488L122.39 114.167Z" fill="white"/>
<path fill-rule="evenodd" clip-rule="evenodd" d="M87.0412 82.6329C87.0582 82.3108 87.0751 82.0056 87.0921 81.7174C87.1938 80.056 87.5498 78.4284 88.1601 76.8857C93.0597 64.5265 94.8229 57.1178 95.3824 53.6931C95.4671 53.1506 95.518 52.9302 95.6028 52.7607C95.7554 52.4894 96.0266 52.269 96.2979 52.1504C96.3826 52.1165 96.5013 52.0656 96.62 52.0317C97.0608 51.8791 97.5185 51.7604 97.8237 51.6926C98.0949 51.6248 98.3832 51.6926 98.6036 51.8621C98.807 52.0317 98.9257 52.3029 98.9257 52.5742V54.1678V67.2052C98.2814 67.3069 97.6033 67.5442 97.0099 67.8833C96.0605 68.4258 95.4671 69.1718 95.3315 69.9516C94.6534 74.3426 93.1445 81.5818 92.0764 83.1415C91.9238 83.3789 91.9747 83.701 92.2121 83.8536C92.2968 83.9214 92.3985 83.9384 92.5003 83.9384C92.6698 83.9384 92.8224 83.8536 92.9241 83.718C94.1448 81.9209 95.6706 74.4104 96.3318 70.1042C96.4504 69.3413 97.4507 68.6632 98.5018 68.341C98.7053 68.2732 98.9087 68.4258 98.9087 68.6462V91.1267V98.8406C98.9087 98.9253 98.8409 99.6035 98.4171 100.417C97.8237 101.587 96.8234 102.486 95.4502 103.113C94.8229 103.401 94.0939 103.706 93.2971 104.045C91.0423 105.012 88.5331 106.08 86.9225 107.114L83.1758 96.3145C84.6168 94.5174 85.6171 92.2626 86.2274 89.4313C86.8039 86.9391 86.9395 84.447 87.0412 82.6329Z" fill="white"/>
<path fill-rule="evenodd" clip-rule="evenodd" d="M76.8356 114.167L70.834 96.857L80.6501 93.1781L86.6686 110.488L76.8356 114.167Z" fill="white"/>
</g>
<defs>
<clipPath id="clip0_378_1765">
<rect width="200" height="200" fill="white"/>
</clipPath>
</defs>
</svg>
