<svg width="270" height="82" viewBox="0 0 270 82" fill="none" xmlns="http://www.w3.org/2000/svg">
<rect x="0.560059" y="0.517334" width="268.78" height="80.9653" rx="8.43389" fill="black"/>
<path d="M46.4577 14.0116H20.8013V39.6827H46.4577V14.0116Z" fill="#F25022"/>
<path d="M74.7767 14.0116H49.1202V39.6827H74.7767V14.0116Z" fill="#7FBA00"/>
<path d="M46.4577 42.3176H20.8013V67.9885H46.4577V42.3176Z" fill="#00A4EF"/>
<path d="M74.7786 42.3176H49.1222V67.9885H74.7786V42.3176Z" fill="#FFB900"/>
<path d="M108.652 30.7262C107.817 31.1975 106.932 31.5529 105.997 31.7927C105.062 32.0322 104.077 32.152 103.041 32.152C100.584 32.152 98.6329 31.4218 97.1878 29.9613C95.7427 28.5007 95.0201 26.4414 95.0201 23.783C95.0201 21.1016 95.8201 18.965 97.4195 17.3732C99.0269 15.7736 101.098 14.9738 103.633 14.9738C104.575 14.9738 105.441 15.0704 106.229 15.2635C107.025 15.449 107.828 15.7465 108.64 16.1561L107.794 17.86C107.114 17.5045 106.445 17.2495 105.788 17.095C105.132 16.9404 104.409 16.8632 103.621 16.8632C101.759 16.8632 100.228 17.4543 99.0308 18.6366C97.8409 19.8189 97.2456 21.488 97.2456 23.6441C97.2456 25.8307 97.7712 27.4844 98.8222 28.6049C99.8809 29.7176 101.365 30.274 103.273 30.274C103.899 30.274 104.482 30.2123 105.023 30.0886C105.572 29.9651 106.074 29.7797 106.53 29.5322V25.0117H102.914V23.134H108.652V30.7262ZM122.283 26.2637H113.728C113.767 27.6082 114.126 28.6438 114.806 29.3699C115.486 30.0886 116.441 30.4479 117.669 30.4479C118.202 30.4479 118.747 30.3669 119.304 30.2046C119.868 30.0345 120.432 29.7604 120.996 29.3817L121.935 30.8188C121.232 31.2826 120.525 31.6227 119.814 31.839C119.103 32.0553 118.322 32.1636 117.472 32.1636C115.633 32.1636 114.2 31.6188 113.172 30.5292C112.144 29.4319 111.627 27.9019 111.619 25.939C111.611 23.9838 112.129 22.4115 113.172 21.2214C114.223 20.0237 115.583 19.4248 117.252 19.4248C118.844 19.4248 120.081 19.9425 120.961 20.978C121.842 22.0058 122.283 23.4393 122.283 25.2782V26.2637ZM120.208 24.6408C120.2 23.5204 119.93 22.651 119.397 22.0328C118.871 21.4146 118.145 21.1055 117.217 21.1055C116.305 21.1055 115.533 21.4262 114.899 22.0676C114.273 22.7012 113.891 23.5589 113.751 24.6408H120.208ZM131.289 31.723C130.957 31.8621 130.624 31.9624 130.292 32.0244C129.968 32.0939 129.601 32.1286 129.191 32.1286C128.194 32.1286 127.414 31.8428 126.85 31.271C126.293 30.6992 126.015 29.8529 126.015 28.7325V21.4301H123.94V19.7146H126.015V16.9327L128.09 16.272V19.7146H131.127V21.4301H128.09V28.5123C128.09 29.2001 128.213 29.6945 128.461 29.996C128.708 30.2975 129.079 30.4479 129.574 30.4479C129.805 30.4479 130.029 30.4209 130.246 30.3669C130.462 30.3129 130.648 30.247 130.802 30.1699L131.289 31.723ZM141.455 17.1413C141.045 17.1413 140.705 17.0061 140.434 16.7356C140.164 16.4652 140.029 16.1367 140.029 15.7504C140.029 15.3486 140.164 15.0163 140.434 14.7536C140.705 14.4831 141.045 14.3479 141.455 14.3479C141.864 14.3479 142.204 14.4831 142.474 14.7536C142.753 15.0163 142.892 15.3486 142.892 15.7504C142.892 16.1367 142.753 16.4652 142.474 16.7356C142.204 17.0061 141.864 17.1413 141.455 17.1413ZM142.463 31.8737H140.4V19.7146H142.463V31.8737ZM152.571 31.723C152.238 31.8621 151.906 31.9624 151.573 32.0244C151.249 32.0939 150.882 32.1286 150.472 32.1286C149.476 32.1286 148.695 31.8428 148.131 31.271C147.575 30.6992 147.296 29.8529 147.296 28.7325V21.4301H145.222V19.7146H147.296V16.9327L149.371 16.272V19.7146H152.408V21.4301H149.371V28.5123C149.371 29.2001 149.495 29.6945 149.742 29.996C149.99 30.2975 150.36 30.4479 150.855 30.4479C151.087 30.4479 151.311 30.4209 151.527 30.3669C151.744 30.3129 151.929 30.247 152.084 30.1699L152.571 31.723ZM167.535 15.9474C167.318 15.8702 167.121 15.8161 166.943 15.7851C166.766 15.7543 166.58 15.7388 166.387 15.7388C165.746 15.7388 165.267 15.9088 164.95 16.2488C164.641 16.5888 164.486 17.0872 164.486 17.7441V19.7146H167.28V21.4301H164.486V31.8737H162.435V21.4301H160.394V19.7146H162.435V17.6397C162.435 16.5038 162.786 15.6151 163.489 14.9738C164.2 14.3324 165.166 14.0117 166.387 14.0117C166.696 14.0117 166.978 14.0349 167.233 14.0813C167.488 14.1276 167.751 14.1933 168.021 14.2783L167.535 15.9474ZM175.695 21.4764C175.54 21.4301 175.397 21.3953 175.266 21.3721C175.134 21.3489 174.976 21.3373 174.791 21.3373C173.809 21.3373 173.037 21.7546 172.472 22.5892C171.908 23.4159 171.626 24.4631 171.626 25.7304V31.8737H169.563V19.7146H171.626V22.1255H171.673C171.951 21.2678 172.372 20.6187 172.936 20.1782C173.508 19.73 174.169 19.5059 174.918 19.5059C175.158 19.5059 175.363 19.5175 175.532 19.5407C175.71 19.5639 175.872 19.5987 176.019 19.645L175.695 21.4764ZM183.461 32.1636C181.645 32.1636 180.196 31.5954 179.114 30.4595C178.04 29.3159 177.503 27.8013 177.503 25.9159C177.503 23.8836 178.059 22.2955 179.172 21.1519C180.285 20.0082 181.803 19.4325 183.728 19.4248C185.551 19.4171 186.977 19.9773 188.005 21.1055C189.04 22.226 189.558 23.7675 189.558 25.7304C189.558 27.6853 189.005 29.2464 187.9 30.4132C186.795 31.5799 185.315 32.1636 183.461 32.1636ZM183.6 30.4479C184.836 30.4479 185.783 30.0461 186.44 29.2426C187.104 28.431 187.437 27.2835 187.437 25.7999C187.437 24.3008 187.104 23.1494 186.44 22.3458C185.775 21.5421 184.829 21.1403 183.6 21.1403C182.371 21.1403 181.398 21.5614 180.679 22.4037C179.968 23.2382 179.612 24.3898 179.612 25.858C179.612 27.2874 179.972 28.4117 180.691 29.231C181.409 30.0423 182.379 30.4479 183.6 30.4479ZM210.178 31.8737H208.104V24.8841C208.104 23.5628 207.899 22.6085 207.489 22.0212C207.08 21.4339 206.396 21.1403 205.438 21.1403C204.619 21.1403 203.923 21.5112 203.351 22.253C202.787 22.9948 202.505 23.8913 202.505 24.9423V31.8737H200.442V24.664C200.442 23.4895 200.214 22.6085 199.758 22.0212C199.31 21.4339 198.634 21.1403 197.73 21.1403C196.887 21.1403 196.192 21.4919 195.643 22.1951C195.102 22.8983 194.832 23.818 194.832 24.9539V31.8737H192.768V19.7146H194.832V21.6387H194.878C195.311 20.9046 195.844 20.3521 196.478 19.9812C197.111 19.6103 197.842 19.4248 198.668 19.4248C199.503 19.4248 200.226 19.6527 200.836 20.1087C201.454 20.5646 201.883 21.1712 202.123 21.9285C202.571 21.0939 203.131 20.468 203.803 20.0507C204.484 19.6334 205.268 19.4248 206.157 19.4248C207.493 19.4248 208.498 19.8382 209.17 20.6651C209.843 21.4842 210.178 22.7205 210.178 24.3744V31.8737Z" fill="white"/>
<path d="M129.887 42.5926C129.887 41.8318 130.161 41.2232 130.709 40.7057C131.257 40.1884 131.896 39.9448 132.657 39.9448C133.448 39.9448 134.118 40.2187 134.635 40.7362C135.153 41.2534 135.426 41.8926 135.426 42.5926C135.426 43.3231 135.153 43.962 134.605 44.4492C134.057 44.9665 133.418 45.2101 132.626 45.2101C131.835 45.2101 131.196 44.9665 130.648 44.4492C130.161 43.9317 129.887 43.3231 129.887 42.5926ZM134.909 67.488H130.374V48.162H134.909V67.488Z" fill="white"/>
<path d="M148.725 64.1839C149.395 64.1839 150.155 64.0316 150.977 63.7275C151.799 63.423 152.529 62.9969 153.229 62.4797V66.71C152.499 67.1361 151.677 67.4405 150.764 67.6533C149.851 67.8663 148.816 67.9883 147.721 67.9883C144.891 67.9883 142.577 67.0752 140.782 65.2794C138.986 63.4839 138.104 61.1708 138.104 58.4014C138.104 55.297 139.017 52.7406 140.843 50.732C142.669 48.7234 145.225 47.719 148.573 47.719C149.425 47.719 150.277 47.8407 151.16 48.0537C152.042 48.2668 152.712 48.5406 153.229 48.8145V53.1667C152.529 52.6492 151.799 52.2537 151.069 51.9798C150.338 51.7059 149.577 51.5537 148.816 51.5537C147.021 51.5537 145.591 52.132 144.464 53.2884C143.369 54.4451 142.821 56.0275 142.821 58.0059C142.821 59.9536 143.338 61.4753 144.404 62.5708C145.469 63.6667 146.899 64.1839 148.725 64.1839Z" fill="white"/>
<path d="M166.163 47.8677C166.528 47.8677 166.863 47.8982 167.137 47.9285C167.411 47.9893 167.685 48.0505 167.868 48.1113V52.7068C167.624 52.524 167.289 52.3721 166.833 52.2199C166.376 52.0677 165.828 51.9763 165.159 51.9763C164.033 51.9763 163.089 52.4329 162.329 53.3762C161.568 54.3199 161.172 55.7501 161.172 57.7284V67.4978H156.637V48.1721H161.172V51.2154H161.233C161.659 50.1502 162.268 49.3285 163.12 48.7502C163.972 48.1721 164.976 47.8677 166.163 47.8677Z" fill="white"/>
<path d="M168.112 58.1275C168.112 54.932 169.025 52.4059 170.821 50.519C172.616 48.6623 175.142 47.719 178.338 47.719C181.351 47.719 183.725 48.632 185.429 50.4276C187.133 52.2231 187.986 54.6581 187.986 57.7014C187.986 60.8361 187.073 63.3317 185.277 65.1883C183.481 67.0447 181.016 67.9577 177.912 67.9577C174.929 67.9577 172.525 67.0752 170.79 65.31C168.995 63.5753 168.112 61.1708 168.112 58.1275ZM172.86 57.9753C172.86 59.9839 173.316 61.5361 174.229 62.6014C175.142 63.6667 176.451 64.1839 178.155 64.1839C179.799 64.1839 181.077 63.6667 181.929 62.6014C182.781 61.5361 183.238 59.9536 183.238 57.8536C183.238 55.7839 182.781 54.2014 181.899 53.1362C181.016 52.0712 179.738 51.5537 178.125 51.5537C176.451 51.5537 175.173 52.1015 174.229 53.2276C173.316 54.3537 172.86 55.9059 172.86 57.9753Z" fill="white"/>
<path d="M194.744 53.2591C194.744 53.8983 194.957 54.4158 195.352 54.781C195.778 55.146 196.691 55.6027 198.091 56.181C199.917 56.9113 201.195 57.733 201.926 58.646C202.656 59.5591 203.021 60.6549 203.021 61.9329C203.021 63.759 202.322 65.2199 200.922 66.3157C199.522 67.4112 197.635 67.959 195.261 67.959C194.47 67.959 193.587 67.8676 192.613 67.6546C191.639 67.4721 190.817 67.1982 190.148 66.9243V62.4504C190.97 63.0288 191.852 63.4851 192.826 63.8199C193.77 64.1546 194.652 64.3374 195.413 64.3374C196.448 64.3374 197.208 64.1851 197.695 63.9113C198.182 63.6374 198.426 63.1504 198.426 62.4504C198.426 61.8113 198.182 61.2938 197.665 60.8679C197.148 60.4418 196.204 59.9243 194.774 59.3766C193.1 58.6766 191.913 57.8852 191.213 57.0027C190.513 56.1199 190.148 54.9941 190.148 53.6549C190.148 51.9202 190.848 50.4897 192.217 49.3636C193.587 48.2375 195.382 47.6897 197.604 47.6897C198.274 47.6897 199.035 47.7505 199.887 47.9028C200.739 48.055 201.439 48.2375 201.987 48.4811V52.8027C201.378 52.4072 200.678 52.0722 199.887 51.768C199.095 51.4941 198.274 51.3419 197.513 51.3419C196.661 51.3419 195.961 51.5244 195.504 51.8591C194.987 52.1941 194.744 52.6811 194.744 53.2591Z" fill="white"/>
<path d="M205.027 58.1275C205.027 54.932 205.94 52.4059 207.736 50.519C209.531 48.6623 212.058 47.719 215.253 47.719C218.266 47.719 220.64 48.632 222.344 50.4276C224.049 52.2231 224.901 54.6581 224.901 57.7014C224.901 60.8361 223.988 63.3317 222.192 65.1883C220.397 67.0447 217.931 67.9577 214.827 67.9577C211.845 67.9577 209.44 67.0752 207.705 65.31C205.91 63.5753 205.027 61.1708 205.027 58.1275ZM209.745 57.9753C209.745 59.9839 210.201 61.5361 211.114 62.6014C212.027 63.6667 213.336 64.1839 215.04 64.1839C216.684 64.1839 217.962 63.6667 218.814 62.6014C219.666 61.5361 220.123 59.9536 220.123 57.8536C220.123 55.7839 219.666 54.2014 218.784 53.1362C217.901 52.0712 216.623 51.5537 215.01 51.5537C213.336 51.5537 212.058 52.1015 211.114 53.2276C210.201 54.3537 209.745 55.9059 209.745 57.9753Z" fill="white"/>
<path d="M239.908 51.91V61.8316C239.908 63.901 240.395 65.423 241.338 66.4577C242.282 67.4924 243.742 67.9793 245.66 67.9793C246.299 67.9793 246.969 67.9185 247.638 67.7663C248.308 67.6141 248.795 67.4924 249.069 67.3099V63.536C248.795 63.7185 248.46 63.8708 248.095 63.9924C247.729 64.1141 247.395 64.1752 247.151 64.1752C246.238 64.1752 245.538 63.9316 245.112 63.4447C244.686 62.9577 244.473 62.1055 244.473 60.9186V51.8797H249.099V48.1667H244.503V42.4451L239.938 43.8451V48.197H233.151V45.8537C233.151 44.697 233.395 43.8145 233.912 43.2059C234.429 42.5973 235.16 42.3231 236.104 42.3231C236.591 42.3231 237.016 42.3843 237.412 42.5059C237.778 42.6276 238.051 42.7492 238.203 42.8406V38.9145C237.869 38.7929 237.503 38.7321 237.078 38.6712C236.651 38.6104 236.164 38.5798 235.617 38.5798C233.547 38.5798 231.843 39.219 230.534 40.5276C229.225 41.8362 228.556 43.4798 228.556 45.519V48.197H225.33V51.91H228.556V67.523H233.151V51.91H239.908Z" fill="white"/>
<path d="M125.991 40.5386V67.5034H121.304V46.3819H121.243L112.874 67.5034H109.769L101.187 46.3819H101.126V67.5034H96.8043V40.5386H103.5L111.261 60.534H111.382L119.569 40.5386H125.991Z" fill="white"/>
</svg>
