<svg width="155" height="54" viewBox="0 0 155 54" fill="none" xmlns="http://www.w3.org/2000/svg">
<path d="M13.6515 16.7262C12.8168 17.1975 11.9322 17.5529 10.9972 17.7927C10.0622 18.0322 9.07676 18.152 8.04146 18.152C5.58391 18.152 3.63288 17.4218 2.18779 15.9613C0.742692 14.5007 0.0201416 12.4414 0.0201416 9.78296C0.0201416 7.10164 0.82014 4.96501 2.41954 3.37315C4.02694 1.77358 6.09785 0.973789 8.63255 0.973789C9.57528 0.973789 10.4408 1.07038 11.229 1.26355C12.0248 1.44901 12.8284 1.74651 13.6399 2.15607L12.7936 3.85997C12.1138 3.50451 11.4453 3.2495 10.7883 3.09496C10.1317 2.94042 9.40911 2.86315 8.62098 2.86315C6.75868 2.86315 5.22842 3.45428 4.0308 4.63658C2.8409 5.81889 2.24565 7.48802 2.24565 9.64409C2.24565 11.8307 2.77117 13.4844 3.8222 14.6049C4.88095 15.7176 6.36461 16.274 8.2732 16.274C8.89901 16.274 9.4824 16.2123 10.0233 16.0886C10.572 15.9651 11.0744 15.7797 11.5302 15.5322V11.0117H7.91386V9.134H13.6515V16.7262ZM27.2826 12.2637H18.7283C18.7669 13.6082 19.1262 14.6438 19.8064 15.3699C20.4865 16.0886 21.4408 16.4479 22.6693 16.4479C23.2025 16.4479 23.7473 16.3669 24.3037 16.2046C24.8678 16.0345 25.4319 15.7604 25.9959 15.3817L26.9351 16.8188C26.2318 17.2826 25.5247 17.6227 24.8137 17.839C24.1028 18.0553 23.3224 18.1636 22.4722 18.1636C20.6334 18.1636 19.1998 17.6188 18.1719 16.5292C17.1444 15.4319 16.6266 13.9019 16.6188 11.939C16.6111 9.98385 17.1289 8.41146 18.1719 7.22143C19.223 6.02367 20.5829 5.4248 22.252 5.4248C23.844 5.4248 25.0805 5.94254 25.9612 6.97799C26.8422 8.00576 27.2826 9.43934 27.2826 11.2782V12.2637ZM25.2078 10.6408C25.2001 9.52035 24.9298 8.65101 24.3965 8.03279C23.871 7.41461 23.1446 7.1055 22.2173 7.1055C21.3055 7.1055 20.5328 7.42621 19.8992 8.06757C19.2731 8.70121 18.8906 9.55893 18.7515 10.6408H25.2078ZM36.2891 17.723C35.9567 17.8621 35.6244 17.9624 35.2923 18.0244C34.9677 18.0939 34.6006 18.1286 34.1911 18.1286C33.1941 18.1286 32.4137 17.8428 31.8496 17.271C31.2932 16.6992 31.0152 15.8529 31.0152 14.7325V7.43007H28.9401V5.71456H31.0152V2.93268L33.09 2.272V5.71456H36.1267V7.43007H33.09V14.5123C33.09 15.2001 33.2134 15.6945 33.4609 15.996C33.7081 16.2975 34.079 16.4479 34.5736 16.4479C34.8054 16.4479 35.0294 16.4209 35.2457 16.3669C35.4621 16.3129 35.6475 16.247 35.8021 16.1699L36.2891 17.723ZM46.4546 3.14134C46.0451 3.14134 45.705 3.00609 45.4344 2.73565C45.1641 2.46517 45.0287 2.13675 45.0287 1.7504C45.0287 1.34856 45.1641 1.01628 45.4344 0.753554C45.705 0.483081 46.0451 0.347858 46.4546 0.347858C46.8641 0.347858 47.2041 0.483081 47.4744 0.753554C47.7528 1.01628 47.8916 1.34856 47.8916 1.7504C47.8916 2.13675 47.7528 2.46517 47.4744 2.73565C47.2041 3.00609 46.8641 3.14134 46.4546 3.14134ZM47.4629 17.8737H45.3997V5.71456H47.4629V17.8737ZM57.5705 17.723C57.2382 17.8621 56.9058 17.9624 56.5735 18.0244C56.2492 18.0939 55.8821 18.1286 55.4723 18.1286C54.4756 18.1286 53.6952 17.8428 53.1311 17.271C52.5747 16.6992 52.2964 15.8529 52.2964 14.7325V7.43007H50.2216V5.71456H52.2964V2.93268L54.3711 2.272V5.71456H57.4082V7.43007H54.3711V14.5123C54.3711 15.2001 54.4949 15.6945 54.742 15.996C54.9895 16.2975 55.3604 16.4479 55.8548 16.4479C56.0868 16.4479 56.3109 16.4209 56.5272 16.3669C56.7435 16.3129 56.929 16.247 57.0836 16.1699L57.5705 17.723ZM72.5345 1.94743C72.3182 1.87016 72.1212 1.81607 71.9434 1.78515C71.7657 1.75426 71.5802 1.7388 71.387 1.7388C70.7458 1.7388 70.2666 1.9088 69.9497 2.24882C69.6408 2.58882 69.4862 3.08725 69.4862 3.74407V5.71456H72.2796V7.43007H69.4862V17.8737H67.4345V7.43007H65.3945V5.71456H67.4345V3.63974C67.4345 2.50381 67.7862 1.61515 68.4894 0.973789C69.2001 0.332398 70.1663 0.0117188 71.387 0.0117188C71.6962 0.0117188 71.9781 0.0348933 72.2333 0.0812728C72.4882 0.127623 72.7511 0.19332 73.0214 0.278304L72.5345 1.94743ZM80.6947 7.47642C80.5404 7.43007 80.3974 7.39529 80.2659 7.37212C80.1345 7.34891 79.9763 7.33734 79.7905 7.33734C78.8092 7.33734 78.0365 7.7546 77.4725 8.58917C76.9084 9.4159 76.6262 10.4631 76.6262 11.7304V17.8737H74.563V5.71456H76.6262V8.12552H76.6728C76.9508 7.26778 77.3719 6.61868 77.936 6.17821C78.5081 5.73002 79.1686 5.50593 79.9181 5.50593C80.1576 5.50593 80.3626 5.51753 80.5324 5.5407C80.7101 5.56388 80.8724 5.59865 81.0193 5.64503L80.6947 7.47642ZM88.4608 18.1636C86.6448 18.1636 85.1961 17.5954 84.1143 16.4595C83.0401 15.3159 82.503 13.8013 82.503 11.9159C82.503 9.88355 83.0594 8.29555 84.1721 7.15188C85.2849 6.00821 86.8033 5.43251 88.7276 5.4248C90.5513 5.41705 91.9768 5.97732 93.0047 7.1055C94.04 8.226 94.5578 9.76753 94.5578 11.7304C94.5578 13.6853 94.0053 15.2464 92.9003 16.4132C91.7952 17.5799 90.3154 18.1636 88.4608 18.1636ZM88.6 16.4479C89.8365 16.4479 90.7831 16.0461 91.4397 15.2426C92.1044 14.431 92.4368 13.2835 92.4368 11.7999C92.4368 10.3008 92.1044 9.14943 91.4397 8.34576C90.7753 7.54211 89.8288 7.14028 88.6 7.14028C87.3712 7.14028 86.3976 7.56143 85.6789 8.40371C84.968 9.23816 84.6125 10.3898 84.6125 11.858C84.6125 13.2874 84.9718 14.4117 85.6905 15.231C86.4092 16.0423 87.3789 16.4479 88.6 16.4479ZM115.178 17.8737H113.104V10.8841C113.104 9.56278 112.899 8.60849 112.489 8.02122C112.08 7.43393 111.396 7.14028 110.438 7.14028C109.619 7.14028 108.923 7.51119 108.351 8.25303C107.787 8.99483 107.505 9.89127 107.505 10.9423V17.8737H105.442V10.664C105.442 9.48949 105.214 8.60849 104.758 8.02122C104.31 7.43393 103.634 7.14028 102.73 7.14028C101.887 7.14028 101.192 7.49188 100.643 8.19508C100.102 8.89828 99.832 9.81798 99.832 10.9539V17.8737H97.7685V5.71456H99.832V7.6387H99.8783C100.311 6.90461 100.844 6.35209 101.478 5.98118C102.111 5.61026 102.842 5.4248 103.668 5.4248C104.503 5.4248 105.226 5.65275 105.836 6.10868C106.454 6.56458 106.883 7.1712 107.123 7.92849C107.571 7.09393 108.131 6.468 108.803 6.0507C109.484 5.63343 110.268 5.4248 111.157 5.4248C112.493 5.4248 113.498 5.83821 114.17 6.66506C114.843 7.48416 115.178 8.72053 115.178 10.3744V17.8737Z" fill="white"/>
<path d="M34.8873 28.5926C34.8873 27.8318 35.1612 27.2232 35.7093 26.7057C36.2571 26.1884 36.8959 25.9448 37.657 25.9448C38.4481 25.9448 39.1179 26.2187 39.6351 26.7362C40.1526 27.2534 40.4265 27.8926 40.4265 28.5926C40.4265 29.3231 40.1526 29.962 39.6048 30.4492C39.057 30.9665 38.4179 31.2101 37.6265 31.2101C36.8351 31.2101 36.1962 30.9665 35.6482 30.4492C35.1612 29.9317 34.8873 29.3231 34.8873 28.5926ZM39.909 53.488H35.3743V34.162H39.909V53.488Z" fill="white"/>
<path d="M53.7252 50.1839C54.3947 50.1839 55.1555 50.0316 55.9774 49.7275C56.7991 49.423 57.5294 48.9969 58.2294 48.4797V52.71C57.4991 53.1361 56.6774 53.4405 55.7644 53.6533C54.8513 53.8663 53.8163 53.9883 52.7208 53.9883C49.8905 53.9883 47.5775 53.0752 45.7817 51.2794C43.9861 49.4839 43.1036 47.1708 43.1036 44.4014C43.1036 41.297 44.0167 38.7406 45.8428 36.732C47.6686 34.7234 50.2253 33.719 53.573 33.719C54.4252 33.719 55.2774 33.8407 56.1599 34.0537C57.0424 34.2668 57.7121 34.5406 58.2294 34.8145V39.1667C57.5294 38.6492 56.7991 38.2537 56.0685 37.9798C55.3383 37.7059 54.5774 37.5537 53.8163 37.5537C52.0208 37.5537 50.5905 38.132 49.4644 39.2884C48.3686 40.4451 47.8208 42.0275 47.8208 44.0059C47.8208 45.9536 48.3383 47.4753 49.4036 48.5708C50.4686 49.6667 51.8991 50.1839 53.7252 50.1839Z" fill="white"/>
<path d="M71.1632 33.8677C71.5285 33.8677 71.8632 33.8982 72.1371 33.9285C72.411 33.9893 72.6849 34.0505 72.8676 34.1113V38.7068C72.624 38.524 72.2893 38.3721 71.8329 38.2199C71.3763 38.0677 70.8285 37.9763 70.1591 37.9763C69.0329 37.9763 68.0893 38.4329 67.3285 39.3762C66.5677 40.3199 66.1721 41.7501 66.1721 43.7284V53.4978H61.6375V34.1721H66.1721V37.2154H66.233C66.6591 36.1502 67.2677 35.3285 68.1199 34.7502C68.9721 34.1721 69.9763 33.8677 71.1632 33.8677Z" fill="white"/>
<path d="M73.1122 44.1275C73.1122 40.932 74.0252 38.4059 75.8208 36.519C77.6163 34.6623 80.1424 33.719 83.3379 33.719C86.351 33.719 88.7248 34.632 90.4293 36.4276C92.1334 38.2231 92.9856 40.6581 92.9856 43.7014C92.9856 46.8361 92.0726 49.3317 90.2771 51.1883C88.4812 53.0447 86.0163 53.9577 82.9118 53.9577C79.9294 53.9577 77.5249 53.0752 75.7902 51.31C73.9947 49.5753 73.1122 47.1708 73.1122 44.1275ZM77.8599 43.9753C77.8599 45.9839 78.3163 47.5361 79.2294 48.6014C80.1424 49.6667 81.451 50.1839 83.1554 50.1839C84.7988 50.1839 86.0771 49.6667 86.9293 48.6014C87.7812 47.5361 88.2379 45.9536 88.2379 43.8536C88.2379 41.7839 87.7812 40.2014 86.8987 39.1362C86.0163 38.0712 84.7379 37.5537 83.1249 37.5537C81.451 37.5537 80.1727 38.1015 79.2294 39.2276C78.3163 40.3537 77.8599 41.9059 77.8599 43.9753Z" fill="white"/>
<path d="M99.7435 39.2591C99.7435 39.8983 99.9566 40.4158 100.352 40.781C100.778 41.146 101.691 41.6027 103.091 42.181C104.917 42.9113 106.195 43.733 106.926 44.646C107.656 45.5591 108.021 46.6549 108.021 47.9329C108.021 49.759 107.322 51.2199 105.922 52.3157C104.522 53.4112 102.635 53.959 100.261 53.959C99.4696 53.959 98.5868 53.8676 97.613 53.6546C96.6391 53.4721 95.8174 53.1982 95.1477 52.9243V48.4504C95.9697 49.0288 96.8521 49.4851 97.826 49.8199C98.7696 50.1546 99.6521 50.3374 100.413 50.3374C101.448 50.3374 102.208 50.1851 102.695 49.9113C103.182 49.6374 103.426 49.1504 103.426 48.4504C103.426 47.8113 103.182 47.2938 102.665 46.8679C102.148 46.4418 101.204 45.9243 99.7738 45.3766C98.0999 44.6766 96.913 43.8852 96.213 43.0027C95.513 42.1199 95.1477 40.9941 95.1477 39.6549C95.1477 37.9202 95.8477 36.4897 97.2174 35.3636C98.5868 34.2375 100.382 33.6897 102.604 33.6897C103.274 33.6897 104.035 33.7505 104.887 33.9028C105.739 34.055 106.439 34.2375 106.987 34.4811V38.8027C106.378 38.4072 105.678 38.0722 104.887 37.768C104.095 37.4941 103.274 37.3419 102.513 37.3419C101.661 37.3419 100.961 37.5244 100.504 37.8591C99.9868 38.1941 99.7435 38.6811 99.7435 39.2591Z" fill="white"/>
<path d="M110.027 44.1275C110.027 40.932 110.94 38.4059 112.736 36.519C114.531 34.6623 117.058 33.719 120.253 33.719C123.266 33.719 125.64 34.632 127.344 36.4276C129.049 38.2231 129.901 40.6581 129.901 43.7014C129.901 46.8361 128.988 49.3317 127.192 51.1883C125.397 53.0447 122.931 53.9577 119.827 53.9577C116.845 53.9577 114.44 53.0752 112.705 51.31C110.91 49.5753 110.027 47.1708 110.027 44.1275ZM114.745 43.9753C114.745 45.9839 115.201 47.5361 116.114 48.6014C117.027 49.6667 118.336 50.1839 120.04 50.1839C121.684 50.1839 122.962 49.6667 123.814 48.6014C124.666 47.5361 125.123 45.9536 125.123 43.8536C125.123 41.7839 124.666 40.2014 123.784 39.1362C122.901 38.0712 121.623 37.5537 120.01 37.5537C118.336 37.5537 117.058 38.1015 116.114 39.2276C115.201 40.3537 114.745 41.9059 114.745 43.9753Z" fill="white"/>
<path d="M144.908 37.91V47.8316C144.908 49.901 145.395 51.423 146.338 52.4577C147.282 53.4924 148.742 53.9793 150.66 53.9793C151.299 53.9793 151.969 53.9185 152.638 53.7663C153.308 53.6141 153.795 53.4924 154.069 53.3099V49.536C153.795 49.7185 153.46 49.8708 153.095 49.9924C152.729 50.1141 152.395 50.1752 152.151 50.1752C151.238 50.1752 150.538 49.9316 150.112 49.4447C149.686 48.9577 149.473 48.1055 149.473 46.9186V37.8797H154.099V34.1667H149.503V28.4451L144.938 29.8451V34.197H138.151V31.8537C138.151 30.697 138.395 29.8145 138.912 29.2059C139.429 28.5973 140.16 28.3231 141.104 28.3231C141.591 28.3231 142.016 28.3843 142.412 28.5059C142.778 28.6276 143.051 28.7492 143.203 28.8406V24.9145C142.869 24.7929 142.503 24.7321 142.078 24.6712C141.651 24.6104 141.164 24.5798 140.617 24.5798C138.547 24.5798 136.843 25.219 135.534 26.5276C134.225 27.8362 133.556 29.4798 133.556 31.519V34.197H130.33V37.91H133.556V53.523H138.151V37.91H144.908Z" fill="white"/>
<path d="M30.9908 26.5386V53.5034H26.3039V32.3819H26.243L17.8737 53.5034H14.7692L6.18679 32.3819H6.12596V53.5034H1.80432V26.5386H8.49983L16.2606 46.534H16.3823L24.5692 26.5386H30.9908Z" fill="white"/>
</svg>
